Padauk-BookBold.ufo
<glyph name="percent" format="2">
  <advance width="801"/>
  <unicode hex="0025"/>
  <outline>
    <contour>
      <point x="646" y="79" type="curve" smooth="yes"/>
      <point x="646" y="102"/>
      <point x="624" y="126"/>
      <point x="603" y="126" type="curve" smooth="yes"/>
      <point x="576" y="126"/>
      <point x="556" y="102"/>
      <point x="556" y="79" type="curve" smooth="yes"/>
      <point x="556" y="54"/>
      <point x="576" y="31"/>
      <point x="603" y="31" type="curve" smooth="yes"/>
      <point x="624" y="31"/>
      <point x="646" y="54"/>
    </contour>
    <contour>
      <point x="244" y="352" type="curve" smooth="yes"/>
      <point x="244" y="376"/>
      <point x="223" y="400"/>
      <point x="202" y="400" type="curve" smooth="yes"/>
      <point x="175" y="400"/>
      <point x="154" y="376"/>
      <point x="154" y="352" type="curve" smooth="yes"/>
      <point x="154" y="328"/>
      <point x="175" y="306"/>
      <point x="202" y="306" type="curve" smooth="yes"/>
      <point x="223" y="306"/>
      <point x="244" y="328"/>
    </contour>
    <contour>
      <point x="738" y="79" type="curve" smooth="yes"/>
      <point x="738" y="7"/>
      <point x="675" y="-59"/>
      <point x="603" y="-59" type="curve" smooth="yes"/>
      <point x="528" y="-59"/>
      <point x="465" y="7"/>
      <point x="465" y="79" type="curve" smooth="yes"/>
      <point x="465" y="153"/>
      <point x="528" y="217"/>
      <point x="603" y="217" type="curve" smooth="yes"/>
      <point x="675" y="217"/>
      <point x="738" y="153"/>
    </contour>
    <contour>
      <point x="336" y="352" type="curve" smooth="yes"/>
      <point x="336" y="282"/>
      <point x="273" y="216"/>
      <point x="202" y="216" type="curve" smooth="yes"/>
      <point x="126" y="216"/>
      <point x="63" y="282"/>
      <point x="63" y="352" type="curve" smooth="yes"/>
      <point x="63" y="427"/>
      <point x="126" y="492"/>
      <point x="202" y="492" type="curve" smooth="yes"/>
      <point x="273" y="492"/>
      <point x="336" y="427"/>
    </contour>
    <contour>
      <point x="621" y="429" type="line"/>
      <point x="268" y="-69" type="line"/>
      <point x="181" y="4" type="line"/>
      <point x="528" y="498" type="line"/>
    </contour>
  </outline>
</glyph>
<glyph name="quotesingle" format="2">
  <advance width="366"/>
  <unicode hex="0027"/>
  <outline>
    <contour>
      <point x="249" y="643" type="line"/>
      <point x="226" y="384" type="line"/>
      <point x="139" y="384" type="line"/>
      <point x="115" y="643" type="line"/>
    </contour>
  </outline>
</glyph>
<glyph name="six" format="2">
  <advance width="511"/>
  <unicode hex="0036"/>
  <outline>
    <contour>
      <point x="351" y="204" type="curve" smooth="yes"/>
      <point x="351" y="283"/>
      <point x="322" y="322"/>
      <point x="264" y="322" type="curve" smooth="yes"/>
      <point x="205" y="322"/>
      <point x="175" y="283"/>
      <point x="175" y="204" type="curve" smooth="yes"/>
      <point x="175" y="125"/>
      <point x="205" y="85"/>
      <point x="264" y="85" type="curve" smooth="yes"/>
      <point x="322" y="85"/>
      <point x="351" y="125"/>
    </contour>
    <contour>
      <point x="481" y="217" type="curve" smooth="yes"/>
      <point x="481" y="108"/>
      <point x="416" y="-12"/>
      <point x="255" y="-12" type="curve" smooth="yes"/>
      <point x="81" y="-12"/>
      <point x="30" y="139"/>
      <point x="30" y="292" type="curve" smooth="yes"/>
      <point x="30" y="457"/>
      <point x="74" y="655"/>
      <point x="270" y="655" type="curve" smooth="yes"/>
      <point x="375" y="655"/>
      <point x="460" y="586"/>
      <point x="469" y="483" type="curve"/>
      <point x="345" y="483" type="line"/>
      <point x="345" y="524"/>
      <point x="314" y="558"/>
      <point x="273" y="558" type="curve" smooth="yes"/>
      <point x="178" y="558"/>
      <point x="154" y="398"/>
      <point x="154" y="334" type="curve"/>
      <point x="188" y="379"/>
      <point x="222" y="412"/>
      <point x="307" y="412" type="curve" smooth="yes"/>
      <point x="419" y="412"/>
      <point x="481" y="314"/>
    </contour>
  </outline>
</glyph>
<glyph name="equal" format="2">
  <advance width="591"/>
  <unicode hex="003D"/>
  <outline>
    <contour>
      <point x="565" y="385" type="line"/>
      <point x="565" y="271" type="line"/>
      <point x="25" y="271" type="line"/>
      <point x="25" y="385" type="line"/>
    </contour>
    <contour>
      <point x="565" y="175" type="line"/>
      <point x="565" y="61" type="line"/>
      <point x="25" y="61" type="line"/>
      <point x="25" y="175" type="line"/>
    </contour>
  </outline>
</glyph>
<glyph name="C" format="2">
  <advance width="648"/>
  <unicode hex="0043"/>
  <outline>
    <contour>
      <point x="600" y="216" type="line"/>
      <point x="585" y="75"/>
      <point x="457" y="-12"/>
      <point x="330" y="-12" type="curve" smooth="yes"/>
      <point x="130" y="-12"/>
      <point x="48" y="149"/>
      <point x="48" y="322" type="curve" smooth="yes"/>
      <point x="48" y="504"/>
      <point x="143" y="655"/>
      <point x="330" y="655" type="curve" smooth="yes"/>
      <point x="492" y="655"/>
      <point x="579" y="583"/>
      <point x="592" y="439" type="curve"/>
      <point x="463" y="439" type="line"/>
      <point x="452" y="514"/>
      <point x="411" y="553"/>
      <point x="330" y="553" type="curve" smooth="yes"/>
      <point x="220" y="553"/>
      <point x="183" y="462"/>
      <point x="183" y="322" type="curve" smooth="yes"/>
      <point x="183" y="178"/>
      <point x="220" y="88"/>
      <point x="330" y="88" type="curve" smooth="yes"/>
      <point x="410" y="88"/>
      <point x="443" y="148"/>
      <point x="456" y="216" type="curve"/>
    </contour>
  </outline>
</glyph>
<glyph name="G" format="2">
  <advance width="691"/>
  <unicode hex="0047"/>
  <outline>
    <contour>
      <point x="628" y="28" type="line"/>
      <point x="530" y="1"/>
      <point x="453" y="-12"/>
      <point x="397" y="-12" type="curve" smooth="yes"/>
      <point x="188" y="-12"/>
      <point x="48" y="111"/>
      <point x="48" y="315" type="curve" smooth="yes"/>
      <point x="48" y="510"/>
      <point x="187" y="655"/>
      <point x="375" y="655" type="curve" smooth="yes"/>
      <point x="539" y="655"/>
      <point x="636" y="581"/>
      <point x="636" y="441" type="curve"/>
      <point x="502" y="441" type="line"/>
      <point x="499" y="520"/>
      <point x="440" y="553"/>
      <point x="370" y="553" type="curve" smooth="yes"/>
      <point x="231" y="553"/>
      <point x="183" y="427"/>
      <point x="183" y="312" type="curve" smooth="yes"/>
      <point x="183" y="178"/>
      <point x="264" y="90"/>
      <point x="394" y="90" type="curve" smooth="yes"/>
      <point x="413" y="90"/>
      <point x="446" y="94"/>
      <point x="493" y="103" type="curve"/>
      <point x="493" y="235" type="line"/>
      <point x="378" y="235" type="line"/>
      <point x="378" y="342" type="line"/>
      <point x="628" y="342" type="line"/>
    </contour>
  </outline>
</glyph>
<glyph name="Z" format="2">
  <advance width="564"/>
  <unicode hex="005A"/>
  <outline>
    <contour>
      <point x="523" y="0" type="line"/>
      <point x="40" y="0" type="line"/>
      <point x="40" y="111" type="line"/>
      <point x="363" y="541" type="line"/>
      <point x="60" y="541" type="line"/>
      <point x="60" y="643" type="line"/>
      <point x="517" y="643" type="line"/>
      <point x="517" y="531" type="line"/>
      <point x="193" y="102" type="line"/>
      <point x="523" y="102" type="line"/>
    </contour>
  </outline>
</glyph>
<glyph name="bracketleft" format="2">
  <advance width="348"/>
  <unicode hex="005B"/>
  <outline>
    <contour>
      <point x="274" y="-177" type="line"/>
      <point x="73" y="-177" type="line"/>
      <point x="73" y="643" type="line"/>
      <point x="274" y="643" type="line"/>
      <point x="274" y="562" type="line"/>
      <point x="181" y="562" type="line"/>
      <point x="181" y="-96" type="line"/>
      <point x="274" y="-96" type="line"/>
    </contour>
  </outline>
</glyph>
<glyph name="c" format="2">
  <advance width="460"/>
  <unicode hex="0063"/>
  <outline>
    <contour>
      <point x="421" y="163" type="line"/>
      <point x="421" y="46"/>
      <point x="360" y="-12"/>
      <point x="237" y="-12" type="curve" smooth="yes"/>
      <point x="106" y="-12"/>
      <point x="40" y="64"/>
      <point x="40" y="217" type="curve" smooth="yes"/>
      <point x="40" y="373"/>
      <point x="113" y="457"/>
      <point x="237" y="457" type="curve" smooth="yes"/>
      <point x="360" y="457"/>
      <point x="421" y="401"/>
      <point x="421" y="289" type="curve"/>
      <point x="303" y="289" type="line"/>
      <point x="298" y="351"/>
      <point x="278" y="382"/>
      <point x="243" y="382" type="curve" smooth="yes"/>
      <point x="179" y="382"/>
      <point x="154" y="346"/>
      <point x="154" y="220" type="curve" smooth="yes"/>
      <point x="154" y="105"/>
      <point x="171" y="63"/>
      <point x="232" y="63" type="curve" smooth="yes"/>
      <point x="289" y="63"/>
      <point x="300" y="111"/>
      <point x="301" y="163" type="curve"/>
    </contour>
  </outline>
</glyph>
<glyph name="d" format="2">
  <advance width="546"/>
  <unicode hex="0064"/>
  <outline>
    <contour>
      <point x="369" y="220" type="curve" smooth="yes"/>
      <point x="369" y="328"/>
      <point x="336" y="382"/>
      <point x="270" y="382" type="curve" smooth="yes"/>
      <point x="184" y="382"/>
      <point x="159" y="282"/>
      <point x="159" y="216" type="curve" smooth="yes"/>
      <point x="159" y="148"/>
      <point x="189" y="67"/>
      <point x="265" y="67" type="curve" smooth="yes"/>
      <point x="342" y="67"/>
      <point x="369" y="160"/>
    </contour>
    <contour>
      <point x="487" y="0" type="line"/>
      <point x="367" y="0" type="line"/>
      <point x="367" y="61" type="line"/>
      <point x="328" y="12"/>
      <point x="288" y="-12"/>
      <point x="246" y="-12" type="curve" smooth="yes"/>
      <point x="109" y="-12"/>
      <point x="40" y="94"/>
      <point x="40" y="216" type="curve" smooth="yes"/>
      <point x="40" y="368"/>
      <point x="117" y="457"/>
      <point x="237" y="457" type="curve" smooth="yes"/>
      <point x="294" y="457"/>
      <point x="331" y="444"/>
      <point x="367" y="405" type="curve"/>
      <point x="367" y="643" type="line"/>
      <point x="487" y="643" type="line"/>
    </contour>
  </outline>
</glyph>
<glyph name="l" format="2">
  <advance width="235"/>
  <unicode hex="006C"/>
  <outline>
    <contour>
      <point x="178" y="0" type="line"/>
      <point x="58" y="0" type="line"/>
      <point x="58" y="643" type="line"/>
      <point x="178" y="643" type="line"/>
    </contour>
  </outline>
</glyph>
<glyph name="w" format="2">
  <advance width="763"/>
  <unicode hex="0077"/>
  <outline>
    <contour>
      <point x="753" y="445" type="line"/>
      <point x="618" y="0" type="line"/>
      <point x="475" y="0" type="line"/>
      <point x="381" y="312" type="line"/>
      <point x="288" y="0" type="line"/>
      <point x="145" y="0" type="line"/>
      <point x="9" y="445" type="line"/>
      <point x="133" y="445" type="line"/>
      <point x="219" y="151" type="line"/>
      <point x="312" y="445" type="line"/>
      <point x="450" y="445" type="line"/>
      <point x="544" y="151" type="line"/>
      <point x="630" y="445" type="line"/>
    </contour>
  </outline>
</glyph>
<glyph name="u1001" format="2">
  <advance width="600"/>
  <unicode hex="1001"/>
  <anchor x="0" y="0" name="_R"/>
  <anchor x="301" y="-53" name="BS"/>
  <anchor x="301" y="-53" name="L"/>
  <anchor x="301" y="495" name="U"/>
  <anchor x="283" y="-53" name="BD"/>
  <outline>
    <contour>
      <point x="367" y="108" type="curve"/>
      <point x="342" y="140"/>
      <point x="298" y="163"/>
      <point x="250" y="163" type="curve" smooth="yes"/>
      <point x="230" y="163"/>
      <point x="208" y="160"/>
      <point x="183" y="153" type="curve"/>
      <point x="224" y="102"/>
      <point x="273" y="91"/>
      <point x="301" y="91" type="curve" smooth="yes"/>
      <point x="326" y="91"/>
      <point x="348" y="97"/>
    </contour>
    <contour>
      <point x="546" y="222" type="curve" smooth="yes"/>
      <point x="546" y="94"/>
      <point x="449" y="-23"/>
      <point x="301" y="-23" type="curve" smooth="yes"/>
      <point x="206" y="-23"/>
      <point x="57" y="52"/>
      <point x="57" y="186" type="curve"/>
      <point x="137" y="243"/>
      <point x="210" y="256"/>
      <point x="250" y="256" type="curve" smooth="yes"/>
      <point x="298" y="256"/>
      <point x="374" y="236"/>
      <point x="426" y="183" type="curve"/>
      <point x="430" y="194"/>
      <point x="432" y="207"/>
      <point x="432" y="222" type="curve" smooth="yes"/>
      <point x="432" y="245"/>
      <point x="409" y="352"/>
      <point x="301" y="352" type="curve" smooth="yes"/>
      <point x="255" y="352"/>
      <point x="213" y="332"/>
      <point x="178" y="283" type="curve"/>
      <point x="79" y="336" type="line"/>
      <point x="127" y="421"/>
      <point x="212" y="466"/>
      <point x="301" y="466" type="curve" smooth="yes"/>
      <point x="460" y="466"/>
      <point x="546" y="329"/>
    </contour>
  </outline>
</glyph>
<glyph name="u1005" format="2">
  <advance width="591"/>
  <unicode hex="1005"/>
  <anchor x="0" y="0" name="_R"/>
  <anchor x="294" y="-53" name="BS"/>
  <anchor x="294" y="-53" name="L"/>
  <anchor x="294" y="495" name="U"/>
  <anchor x="288" y="-53" name="BD"/>
  <outline>
    <contour>
      <point x="250" y="222" type="curve" smooth="yes"/>
      <point x="250" y="258"/>
      <point x="239" y="291"/>
      <point x="216" y="322" type="curve"/>
      <point x="188" y="298"/>
      <point x="169" y="262"/>
      <point x="169" y="222" type="curve" smooth="yes"/>
      <point x="169" y="179"/>
      <point x="188" y="144"/>
      <point x="216" y="120" type="curve"/>
      <point x="237" y="149"/>
      <point x="250" y="183"/>
    </contour>
    <contour>
      <point x="421" y="222" type="curve" smooth="yes"/>
      <point x="421" y="287.316"/>
      <point x="366.96" y="352"/>
      <point x="304" y="352" type="curve"/>
      <point x="336" y="307"/>
      <point x="343" y="259"/>
      <point x="343" y="222" type="curve" smooth="yes"/>
      <point x="343" y="183"/>
      <point x="332" y="135"/>
      <point x="304" y="91" type="curve"/>
      <point x="368.537" y="91"/>
      <point x="421" y="160.524"/>
    </contour>
    <contour>
      <point x="535" y="222" type="curve" smooth="yes"/>
      <point x="535" y="87"/>
      <point x="429" y="-23"/>
      <point x="294" y="-23" type="curve" smooth="yes"/>
      <point x="164" y="-23"/>
      <point x="55" y="87"/>
      <point x="55" y="222" type="curve" smooth="yes"/>
      <point x="55" y="355"/>
      <point x="162" y="466"/>
      <point x="294" y="466" type="curve" smooth="yes"/>
      <point x="429" y="466"/>
      <point x="535" y="355"/>
    </contour>
  </outline>
</glyph>
<glyph name="u1008" format="2">
  <advance width="838"/>
  <unicode hex="1008"/>
  <anchor x="0" y="0" name="_R"/>
  <anchor x="904" y="-53" name="BS"/>
  <anchor x="171" y="-53" name="LL"/>
  <anchor x="904" y="-53" name="L"/>
  <anchor x="526" y="495" name="U"/>
  <anchor x="810" y="-53" name="BD"/>
  <outline>
    <contour>
      <point x="250" y="223" type="curve" smooth="yes"/>
      <point x="250" y="260"/>
      <point x="239" y="293"/>
      <point x="216" y="324" type="curve"/>
      <point x="187" y="300"/>
      <point x="169" y="264"/>
      <point x="169" y="223" type="curve" smooth="yes"/>
      <point x="169" y="180"/>
      <point x="187" y="145"/>
      <point x="216" y="121" type="curve"/>
      <point x="237" y="152"/>
      <point x="250" y="186"/>
    </contour>
    <contour>
      <point x="421" y="223" type="curve" smooth="yes"/>
      <point x="421" y="291"/>
      <point x="369" y="349"/>
      <point x="305" y="354" type="curve"/>
      <point x="304" y="354" type="line"/>
      <point x="336" y="310"/>
      <point x="343" y="260"/>
      <point x="343" y="223" type="curve" smooth="yes"/>
      <point x="343" y="186"/>
      <point x="333" y="135"/>
      <point x="304" y="91" type="curve"/>
      <point x="305" y="91" type="line"/>
      <point x="369" y="99"/>
      <point x="421" y="156"/>
    </contour>
    <contour>
      <point x="744" y="-471" type="line"/>
      <point x="333" y="-374" type="line"/>
      <point x="333" y="-18" type="line"/>
      <point x="318" y="-21"/>
      <point x="309" y="-21"/>
      <point x="297" y="-21" type="curve" smooth="yes"/>
      <point x="162" y="-21"/>
      <point x="55" y="87"/>
      <point x="55" y="223" type="curve" smooth="yes"/>
      <point x="55" y="356"/>
      <point x="162" y="468"/>
      <point x="294" y="468" type="curve" smooth="yes"/>
      <point x="430" y="468"/>
      <point x="535" y="356"/>
      <point x="535" y="223" type="curve" smooth="yes"/>
      <point x="535" y="144"/>
      <point x="502" y="76"/>
      <point x="447" y="31" type="curve"/>
      <point x="447" y="-284" type="line"/>
      <point x="630" y="-324" type="line"/>
      <point x="630" y="466" type="line"/>
      <point x="744" y="466" type="line"/>
    </contour>
  </outline>
</glyph>
<glyph name="u1009" format="2">
  <advance width="579"/>
  <unicode hex="1009"/>
  <anchor x="0" y="0" name="_R"/>
  <anchor x="450" y="-53" name="BS"/>
  <anchor x="724" y="-53" name="LL"/>
  <anchor x="304" y="-53" name="L"/>
  <anchor x="279" y="495" name="U"/>
  <anchor x="450" y="-53" name="BD"/>
  <outline>
    <contour>
      <point x="892" y="-272" type="line"/>
      <point x="892" y="-344" type="line" smooth="yes"/>
      <point x="892" y="-391"/>
      <point x="884" y="-418"/>
      <point x="868" y="-437" type="curve" smooth="yes"/>
      <point x="849" y="-460"/>
      <point x="822" y="-471"/>
      <point x="765" y="-471" type="curve" smooth="yes"/>
      <point x="244" y="-471" type="line" smooth="yes"/>
      <point x="187" y="-471"/>
      <point x="143" y="-447"/>
      <point x="109" y="-413" type="curve" smooth="yes"/>
      <point x="73" y="-377"/>
      <point x="55" y="-332"/>
      <point x="55" y="-282" type="curve" smooth="yes"/>
      <point x="55" y="108" type="line"/>
      <point x="157" y="160" type="line"/>
      <point x="199" y="92"/>
      <point x="258" y="91"/>
      <point x="278" y="91" type="curve" smooth="yes"/>
      <point x="280" y="91" type="line" smooth="yes"/>
      <point x="352" y="91"/>
      <point x="409" y="151"/>
      <point x="409" y="222" type="curve" smooth="yes"/>
      <point x="409" y="291"/>
      <point x="352" y="352"/>
      <point x="280" y="352" type="curve" smooth="yes"/>
      <point x="262" y="352"/>
      <point x="200" y="351"/>
      <point x="157" y="283" type="curve"/>
      <point x="55" y="336" type="line"/>
      <point x="106" y="432"/>
      <point x="205" y="466"/>
      <point x="280" y="466" type="curve" smooth="yes"/>
      <point x="412" y="466"/>
      <point x="523" y="355"/>
      <point x="523" y="222" type="curve" smooth="yes"/>
      <point x="523" y="87"/>
      <point x="412" y="-23"/>
      <point x="280" y="-23" type="curve" smooth="yes"/>
      <point x="245" y="-23"/>
      <point x="208" y="-15"/>
      <point x="169" y="1" type="curve"/>
      <point x="169" y="-273" type="line" smooth="yes"/>
      <point x="169" y="-294"/>
      <point x="176" y="-319"/>
      <point x="190" y="-332" type="curve" smooth="yes"/>
      <point x="206" y="-347"/>
      <point x="225" y="-357"/>
      <point x="256" y="-357" type="curve" smooth="yes"/>
      <point x="748" y="-357" type="line" smooth="yes"/>
      <point x="771" y="-357"/>
      <point x="778" y="-346"/>
      <point x="778" y="-320" type="curve" smooth="yes"/>
      <point x="778" y="-272" type="line"/>
    </contour>
  </outline>
</glyph>
<glyph name="u100C" format="2">
  <advance width="577"/>
  <unicode hex="100C"/>
  <anchor x="0" y="0" name="_R"/>
  <anchor x="684" y="-53" name="BS"/>
  <anchor x="684" y="-53" name="L"/>
  <anchor x="298" y="495" name="U"/>
  <anchor x="657" y="-53" name="BD"/>
  <outline>
    <contour>
      <point x="522" y="108" type="line"/>
      <point x="522" y="-267" type="line" smooth="yes"/>
      <point x="522" y="-339"/>
      <point x="499" y="-378"/>
      <point x="466" y="-413" type="curve" smooth="yes"/>
      <point x="435" y="-445"/>
      <point x="396" y="-471"/>
      <point x="333" y="-471" type="curve" smooth="yes"/>
      <point x="211" y="-471" type="line" smooth="yes"/>
      <point x="107" y="-471"/>
      <point x="69" y="-374"/>
      <point x="69" y="-312" type="curve" smooth="yes"/>
      <point x="69" y="-224"/>
      <point x="138" y="-158"/>
      <point x="223" y="-158" type="curve" smooth="yes"/>
      <point x="278" y="-158"/>
      <point x="307" y="-170"/>
      <point x="330" y="-186" type="curve"/>
      <point x="279" y="-288" type="line"/>
      <point x="262" y="-279"/>
      <point x="247" y="-272"/>
      <point x="223" y="-272" type="curve" smooth="yes"/>
      <point x="210" y="-272"/>
      <point x="183" y="-281"/>
      <point x="183" y="-312" type="curve" smooth="yes"/>
      <point x="183" y="-345"/>
      <point x="206" y="-357"/>
      <point x="238" y="-357" type="curve" smooth="yes"/>
      <point x="310" y="-357" type="line" smooth="yes"/>
      <point x="353" y="-357"/>
      <point x="372" y="-347"/>
      <point x="387" y="-332" type="curve" smooth="yes"/>
      <point x="401" y="-317"/>
      <point x="408" y="-292"/>
      <point x="408" y="-257" type="curve" smooth="yes"/>
      <point x="408" y="1" type="line"/>
      <point x="370" y="-15"/>
      <point x="333" y="-23"/>
      <point x="298" y="-23" type="curve" smooth="yes"/>
      <point x="166" y="-23"/>
      <point x="55" y="87"/>
      <point x="55" y="222" type="curve" smooth="yes"/>
      <point x="55" y="355"/>
      <point x="166" y="466"/>
      <point x="298" y="466" type="curve" smooth="yes"/>
      <point x="372" y="466"/>
      <point x="471" y="432"/>
      <point x="522" y="336" type="curve"/>
      <point x="420" y="283" type="line"/>
      <point x="387" y="333"/>
      <point x="346" y="352"/>
      <point x="298" y="352" type="curve" smooth="yes"/>
      <point x="229" y="352"/>
      <point x="169" y="291"/>
      <point x="169" y="222" type="curve" smooth="yes"/>
      <point x="169" y="151"/>
      <point x="229" y="91"/>
      <point x="298" y="91" type="curve" smooth="yes"/>
      <point x="346" y="91"/>
      <point x="386" y="107"/>
      <point x="420" y="160" type="curve"/>
    </contour>
  </outline>
</glyph>
<glyph name="u1013" format="2">
  <advance width="591"/>
  <unicode hex="1013"/>
  <anchor x="0" y="0" name="_R"/>
  <anchor x="297" y="-53" name="BS"/>
  <anchor x="297" y="-53" name="L"/>
  <anchor x="297" y="495" name="U"/>
  <anchor x="288" y="-53" name="BD"/>
  <outline>
    <contour>
      <point x="394" y="142" type="curve"/>
      <point x="366" y="162"/>
      <point x="334" y="174"/>
      <point x="297" y="174" type="curve" smooth="yes"/>
      <point x="261" y="174"/>
      <point x="227" y="162"/>
      <point x="196" y="139" type="curve"/>
      <point x="220" y="111"/>
      <point x="254" y="91"/>
      <point x="294" y="91" type="curve" smooth="yes"/>
      <point x="335" y="91"/>
      <point x="370" y="113"/>
    </contour>
    <contour>
      <point x="420" y="232" type="line"/>
      <point x="414" y="296"/>
      <point x="360" y="352"/>
      <point x="297" y="352" type="curve" smooth="yes"/>
      <point x="232" y="352"/>
      <point x="173" y="299"/>
      <point x="169" y="231" type="curve"/>
      <point x="169" y="230" type="line"/>
      <point x="207" y="261"/>
      <point x="258" y="267"/>
      <point x="297" y="267" type="curve" smooth="yes"/>
      <point x="332" y="267"/>
      <point x="383" y="258"/>
      <point x="420" y="231" type="curve"/>
    </contour>
    <contour>
      <point x="535" y="222" type="curve" smooth="yes"/>
      <point x="535" y="87"/>
      <point x="429" y="-23"/>
      <point x="297" y="-23" type="curve" smooth="yes"/>
      <point x="161" y="-23"/>
      <point x="55" y="87"/>
      <point x="55" y="222" type="curve" smooth="yes"/>
      <point x="55" y="355"/>
      <point x="162" y="466"/>
      <point x="294" y="466" type="curve" smooth="yes"/>
      <point x="429" y="466"/>
      <point x="535" y="355"/>
    </contour>
  </outline>
</glyph>
<glyph name="u101C" format="2">
  <advance width="985"/>
  <unicode hex="101C"/>
  <anchor x="0" y="0" name="_R"/>
  <anchor x="699" y="-53" name="BS"/>
  <anchor x="699" y="-53" name="L"/>
  <anchor x="492" y="-53" name="BD"/>
  <anchor x="699" y="495" name="U"/>
  <outline>
    <contour>
      <point x="931" y="222" type="curve" smooth="yes"/>
      <point x="931" y="87"/>
      <point x="831" y="-23"/>
      <point x="699" y="-23" type="curve" smooth="yes"/>
      <point x="510" y="-23"/>
      <point x="468" y="107"/>
      <point x="432" y="222" type="curve" smooth="yes"/>
      <point x="396" y="340"/>
      <point x="336" y="352"/>
      <point x="298" y="352" type="curve" smooth="yes"/>
      <point x="228" y="352"/>
      <point x="169" y="294"/>
      <point x="169" y="223" type="curve" smooth="yes"/>
      <point x="169" y="151"/>
      <point x="228" y="91"/>
      <point x="298" y="91" type="curve" smooth="yes"/>
      <point x="317" y="91"/>
      <point x="328" y="98"/>
      <point x="339" y="102" type="curve"/>
      <point x="396" y="3" type="line"/>
      <point x="384" y="-8"/>
      <point x="342" y="-23"/>
      <point x="298" y="-23" type="curve" smooth="yes"/>
      <point x="151" y="-23"/>
      <point x="55" y="87"/>
      <point x="55" y="222" type="curve" smooth="yes"/>
      <point x="55" y="355"/>
      <point x="151" y="466"/>
      <point x="298" y="466" type="curve" smooth="yes"/>
      <point x="442" y="466"/>
      <point x="518" y="354"/>
      <point x="553" y="222" type="curve" smooth="yes"/>
      <point x="581" y="119"/>
      <point x="636" y="91"/>
      <point x="699" y="91" type="curve" smooth="yes"/>
      <point x="771" y="91"/>
      <point x="817" y="157"/>
      <point x="817" y="222" type="curve" smooth="yes"/>
      <point x="817" y="291"/>
      <point x="767" y="352"/>
      <point x="699" y="352" type="curve" smooth="yes"/>
      <point x="683" y="352"/>
      <point x="659" y="347"/>
      <point x="646" y="342" type="curve"/>
      <point x="591" y="441" type="line"/>
      <point x="623" y="461"/>
      <point x="661" y="466"/>
      <point x="699" y="466" type="curve" smooth="yes"/>
      <point x="815" y="466"/>
      <point x="931" y="369"/>
    </contour>
  </outline>
</glyph>
<glyph name="u1024" format="2">
  <advance width="1213"/>
  <unicode hex="1024"/>
  <outline>
    <contour>
      <point x="1159" y="-471" type="line"/>
      <point x="1045" y="-471" type="line"/>
      <point x="1045" y="377" type="line" smooth="yes"/>
      <point x="1045" y="570"/>
      <point x="792" y="556"/>
      <point x="792" y="740" type="curve" smooth="yes"/>
      <point x="792" y="846"/>
      <point x="877" y="925"/>
      <point x="981" y="925" type="curve" smooth="yes"/>
      <point x="1068" y="925"/>
      <point x="1137" y="877"/>
      <point x="1156" y="816" type="curve"/>
      <point x="1062" y="754" type="line"/>
      <point x="1048" y="789"/>
      <point x="1019" y="811"/>
      <point x="981" y="811" type="curve" smooth="yes"/>
      <point x="925" y="811"/>
      <point x="906" y="774"/>
      <point x="906" y="740" type="curve" smooth="yes"/>
      <point x="906" y="643"/>
      <point x="1159" y="627"/>
      <point x="1159" y="382" type="curve" smooth="yes"/>
    </contour>
    <contour>
      <point x="922" y="-282" type="line" smooth="yes"/>
      <point x="922" y="-338"/>
      <point x="895" y="-379"/>
      <point x="867" y="-410" type="curve" smooth="yes"/>
      <point x="844" y="-435"/>
      <point x="800" y="-471"/>
      <point x="732" y="-471" type="curve" smooth="yes"/>
      <point x="187" y="-471" type="line" smooth="yes"/>
      <point x="94" y="-471"/>
      <point x="55" y="-391"/>
      <point x="55" y="-330" type="curve" smooth="yes"/>
      <point x="55" y="-200"/>
      <point x="175" y="-150"/>
      <point x="357" y="-150" type="curve" smooth="yes"/>
      <point x="450" y="-150"/>
      <point x="597" y="-174"/>
      <point x="664" y="-222" type="curve"/>
      <point x="595" y="-312" type="line"/>
      <point x="535" y="-283"/>
      <point x="435" y="-267"/>
      <point x="357" y="-267" type="curve" smooth="yes"/>
      <point x="257" y="-267"/>
      <point x="171" y="-275"/>
      <point x="171" y="-330" type="curve" smooth="yes"/>
      <point x="171" y="-341"/>
      <point x="173" y="-357"/>
      <point x="204" y="-357" type="curve" smooth="yes"/>
      <point x="706" y="-357" type="line" smooth="yes"/>
      <point x="745" y="-357"/>
      <point x="762" y="-353"/>
      <point x="784" y="-334" type="curve" smooth="yes"/>
      <point x="800" y="-321"/>
      <point x="808" y="-296"/>
      <point x="808" y="-273" type="curve" smooth="yes"/>
      <point x="808" y="222" type="line" smooth="yes"/>
      <point x="808" y="261"/>
      <point x="774" y="352"/>
      <point x="678" y="352" type="curve" smooth="yes"/>
      <point x="607" y="352"/>
      <point x="544" y="270"/>
      <point x="544" y="207" type="curve" smooth="yes"/>
      <point x="544" y="111"/>
      <point x="526" y="40"/>
      <point x="454" y="-23" type="curve"/>
      <point x="388" y="70" type="line"/>
      <point x="420" y="113"/>
      <point x="430" y="132"/>
      <point x="430" y="207" type="curve" smooth="yes"/>
      <point x="430" y="276"/>
      <point x="384" y="352"/>
      <point x="300" y="352" type="curve" smooth="yes"/>
      <point x="216" y="352"/>
      <point x="171" y="276"/>
      <point x="171" y="207" type="curve" smooth="yes"/>
      <point x="171" y="133"/>
      <point x="179" y="112"/>
      <point x="211" y="70" type="curve"/>
      <point x="145" y="-23" type="line"/>
      <point x="73" y="40"/>
      <point x="55" y="111"/>
      <point x="55" y="207" type="curve" smooth="yes"/>
      <point x="55" y="346"/>
      <point x="160" y="466"/>
      <point x="300" y="466" type="curve" smooth="yes"/>
      <point x="380" y="466"/>
      <point x="447" y="427"/>
      <point x="490" y="367" type="curve"/>
      <point x="529" y="422"/>
      <point x="594" y="466"/>
      <point x="678" y="466" type="curve" smooth="yes"/>
      <point x="811" y="466"/>
      <point x="922" y="355"/>
      <point x="922" y="222" type="curve" smooth="yes"/>
    </contour>
  </outline>
</glyph>
<glyph name="u1028" format="2">
  <advance width="590"/>
  <unicode hex="1028"/>
  <anchor x="295" y="-53" name="BS"/>
  <anchor x="295" y="-53" name="L"/>
  <anchor x="295" y="495" name="U"/>
  <anchor x="292" y="-53" name="BD"/>
  <outline>
    <contour>
      <point x="535" y="-228" type="line"/>
      <point x="535" y="-363"/>
      <point x="437" y="-471"/>
      <point x="295" y="-471" type="curve" smooth="yes"/>
      <point x="139" y="-471"/>
      <point x="55" y="-347"/>
      <point x="55" y="-230" type="curve" smooth="yes"/>
      <point x="55" y="222" type="line" smooth="yes"/>
      <point x="55" y="340"/>
      <point x="139" y="466"/>
      <point x="295" y="466" type="curve" smooth="yes"/>
      <point x="449" y="466"/>
      <point x="535" y="342"/>
      <point x="535" y="220" type="curve" smooth="yes"/>
      <point x="535" y="88"/>
      <point x="475" y="-23"/>
      <point x="339" y="-23" type="curve" smooth="yes"/>
      <point x="273" y="-23"/>
      <point x="221" y="16"/>
      <point x="221" y="82" type="curve" smooth="yes"/>
      <point x="221" y="163"/>
      <point x="329" y="171"/>
      <point x="329" y="199" type="curve" smooth="yes"/>
      <point x="329" y="207"/>
      <point x="322" y="222"/>
      <point x="300" y="222" type="curve" smooth="yes"/>
      <point x="283" y="222"/>
      <point x="265" y="208"/>
      <point x="262" y="192" type="curve"/>
      <point x="198" y="230" type="line"/>
      <point x="214" y="275"/>
      <point x="255" y="301"/>
      <point x="300" y="301" type="curve" smooth="yes"/>
      <point x="363" y="301"/>
      <point x="408" y="254"/>
      <point x="408" y="199" type="curve" smooth="yes"/>
      <point x="408" y="123"/>
      <point x="309" y="111"/>
      <point x="309" y="92" type="curve" smooth="yes"/>
      <point x="309" y="77"/>
      <point x="325" y="72"/>
      <point x="339" y="72" type="curve" smooth="yes"/>
      <point x="393" y="72"/>
      <point x="440" y="103"/>
      <point x="440" y="218" type="curve" smooth="yes"/>
      <point x="440" y="321"/>
      <point x="346" y="352"/>
      <point x="295" y="352" type="curve" smooth="yes"/>
      <point x="223" y="352"/>
      <point x="169" y="297"/>
      <point x="169" y="222" type="curve" smooth="yes"/>
      <point x="169" y="-227" type="line" smooth="yes"/>
      <point x="169" y="-302"/>
      <point x="223" y="-357"/>
      <point x="295" y="-357" type="curve" smooth="yes"/>
      <point x="364" y="-357"/>
      <point x="421" y="-306"/>
      <point x="421" y="-228" type="curve"/>
    </contour>
  </outline>
</glyph>
<glyph name="u102B" format="2">
  <advance width="234"/>
  <unicode hex="102B"/>
  <anchor x="-270" y="-53" name="KL"/>
  <anchor x="121" y="-53" name="BS"/>
  <anchor x="121" y="-53" name="L"/>
  <anchor x="96" y="-53" name="BD"/>
  <outline>
    <contour>
      <point x="180" y="0" type="line"/>
      <point x="66" y="0" type="line"/>
      <point x="66" y="721" type="line" smooth="yes"/>
      <point x="66" y="781"/>
      <point x="42" y="802"/>
      <point x="6" y="802" type="curve" smooth="yes"/>
      <point x="-27" y="802"/>
      <point x="-59" y="788"/>
      <point x="-59" y="727" type="curve"/>
      <point x="-171" y="727" type="line"/>
      <point x="-171" y="804"/>
      <point x="-133" y="916"/>
      <point x="7" y="916" type="curve" smooth="yes"/>
      <point x="91" y="916"/>
      <point x="180" y="861"/>
      <point x="180" y="721" type="curve" smooth="yes"/>
    </contour>
  </outline>
</glyph>
<glyph name="u1032" format="2">
  <advance width="0"/>
  <unicode hex="1032"/>
  <anchor x="-98" y="532" name="_Y"/>
  <anchor x="-295" y="532" name="_U"/>
  <anchor x="-247" y="537" name="UM"/>
  <outline>
    <contour>
      <point x="-55" y="617" type="line"/>
      <point x="-109" y="548" type="line"/>
      <point x="-415" y="791" type="line"/>
      <point x="-364" y="861" type="line"/>
    </contour>
  </outline>
</glyph>
<glyph name="u1034" format="2">
  <advance width="0"/>
  <unicode hex="1034"/>
  <anchor x="-98" y="532" name="_Y"/>
  <anchor x="-230" y="532" name="_U"/>
  <anchor x="-193" y="495" name="UM"/>
  <outline>
    <contour>
      <point x="-55" y="791" type="line"/>
      <point x="-361" y="548" type="line"/>
      <point x="-415" y="617" type="line"/>
      <point x="-106" y="861" type="line"/>
    </contour>
  </outline>
</glyph>
<glyph name="u103D" format="2">
  <advance width="0"/>
  <unicode hex="103D"/>
  <anchor x="-239" y="-53" name="_BS"/>
  <anchor x="-586" y="-53" name="LLM"/>
  <anchor x="-239" y="-53" name="_BSM"/>
  <anchor x="106" y="-53" name="LM"/>
  <anchor x="144" y="-53" name="BSM"/>
  <outline>
    <contour>
      <point x="-142" y="-282" type="curve" smooth="yes"/>
      <point x="-142" y="-228"/>
      <point x="-185" y="-180"/>
      <point x="-238" y="-180" type="curve" smooth="yes"/>
      <point x="-294" y="-180"/>
      <point x="-337" y="-230"/>
      <point x="-337" y="-282" type="curve" smooth="yes"/>
      <point x="-337" y="-335"/>
      <point x="-293" y="-384"/>
      <point x="-241" y="-384" type="curve" smooth="yes"/>
      <point x="-185" y="-384"/>
      <point x="-142" y="-337"/>
    </contour>
    <contour>
      <point x="-55" y="-282" type="curve" smooth="yes"/>
      <point x="-55" y="-386"/>
      <point x="-136" y="-471"/>
      <point x="-238" y="-471" type="curve" smooth="yes"/>
      <point x="-341" y="-471"/>
      <point x="-424" y="-386"/>
      <point x="-424" y="-282" type="curve" smooth="yes"/>
      <point x="-424" y="-182"/>
      <point x="-342" y="-93"/>
      <point x="-241" y="-93" type="curve" smooth="yes"/>
      <point x="-136" y="-93"/>
      <point x="-55" y="-182"/>
    </contour>
  </outline>
</glyph>
<glyph name="u1040" format="2">
  <advance width="590"/>
  <unicode hex="1040"/>
  <anchor x="293" y="-53" name="BS"/>
  <anchor x="293" y="-53" name="L"/>
  <anchor x="293" y="495" name="U"/>
  <anchor x="292" y="-53" name="BD"/>
  <outline>
    <contour>
      <point x="421" y="222" type="curve" smooth="yes"/>
      <point x="421" y="291"/>
      <point x="364" y="352"/>
      <point x="296" y="352" type="curve" smooth="yes"/>
      <point x="226" y="352"/>
      <point x="169" y="291"/>
      <point x="169" y="222" type="curve" smooth="yes"/>
      <point x="169" y="151"/>
      <point x="226" y="91"/>
      <point x="293" y="91" type="curve" smooth="yes"/>
      <point x="364" y="91"/>
      <point x="421" y="151"/>
    </contour>
    <contour>
      <point x="535" y="222" type="curve" smooth="yes"/>
      <point x="535" y="87"/>
      <point x="428" y="-23"/>
      <point x="296" y="-23" type="curve" smooth="yes"/>
      <point x="160" y="-23"/>
      <point x="55" y="87"/>
      <point x="55" y="222" type="curve" smooth="yes"/>
      <point x="55" y="355"/>
      <point x="161" y="466"/>
      <point x="293" y="466" type="curve" smooth="yes"/>
      <point x="428" y="466"/>
      <point x="535" y="355"/>
    </contour>
  </outline>
</glyph>
<glyph name="u1041" format="2">
  <advance width="578"/>
  <unicode hex="1041"/>
  <anchor x="280" y="-53" name="BS"/>
  <anchor x="280" y="-53" name="L"/>
  <anchor x="280" y="495" name="U"/>
  <anchor x="0" y="0" name="_R"/>
  <anchor x="272" y="-53" name="BD"/>
  <outline>
    <contour>
      <point x="523" y="222" type="curve" smooth="yes"/>
      <point x="523" y="87"/>
      <point x="412" y="-23"/>
      <point x="280" y="-23" type="curve" smooth="yes"/>
      <point x="187" y="-23"/>
      <point x="103" y="24"/>
      <point x="55" y="108" type="curve"/>
      <point x="157" y="160" type="line"/>
      <point x="194" y="106"/>
      <point x="232" y="91"/>
      <point x="280" y="91" type="curve" smooth="yes"/>
      <point x="350" y="91"/>
      <point x="409" y="151"/>
      <point x="409" y="222" type="curve" smooth="yes"/>
      <point x="409" y="292"/>
      <point x="350" y="352"/>
      <point x="280" y="352" type="curve" smooth="yes"/>
      <point x="232" y="352"/>
      <point x="190" y="333"/>
      <point x="157" y="283" type="curve"/>
      <point x="55" y="336" type="line"/>
      <point x="100" y="417"/>
      <point x="184" y="466"/>
      <point x="280" y="466" type="curve" smooth="yes"/>
      <point x="412" y="466"/>
      <point x="523" y="355"/>
    </contour>
  </outline>
</glyph>
<glyph name="u1042" format="2">
  <advance width="600"/>
  <unicode hex="1042"/>
  <anchor x="300" y="-53" name="BS"/>
  <anchor x="300" y="-53" name="L"/>
  <anchor x="300" y="495" name="U"/>
  <anchor x="252" y="-53" name="BD"/>
  <outline>
    <contour>
      <point x="508" y="466" type="line"/>
      <point x="508" y="-271" type="line" smooth="yes"/>
      <point x="508" y="-384"/>
      <point x="445" y="-471"/>
      <point x="300" y="-471" type="curve" smooth="yes"/>
      <point x="159" y="-471"/>
      <point x="93" y="-377"/>
      <point x="93" y="-242" type="curve"/>
      <point x="205" y="-242" type="line"/>
      <point x="205" y="-330"/>
      <point x="250" y="-357"/>
      <point x="300" y="-357" type="curve" smooth="yes"/>
      <point x="356" y="-357"/>
      <point x="394" y="-335"/>
      <point x="394" y="-256" type="curve" smooth="yes"/>
      <point x="394" y="466" type="line"/>
    </contour>
  </outline>
</glyph>
<glyph name="u1046" format="2">
  <advance width="600"/>
  <unicode hex="1046"/>
  <anchor x="300" y="-53" name="BS"/>
  <anchor x="300" y="-53" name="L"/>
  <anchor x="306" y="495" name="U"/>
  <anchor x="292" y="-53" name="BD"/>
  <outline>
    <contour>
      <point x="388" y="330" type="curve" smooth="yes"/>
      <point x="388" y="355"/>
      <point x="368" y="375"/>
      <point x="345" y="375" type="curve" smooth="yes"/>
      <point x="318" y="375"/>
      <point x="298" y="355"/>
      <point x="298" y="330" type="curve" smooth="yes"/>
      <point x="298" y="306"/>
      <point x="318" y="283"/>
      <point x="342" y="283" type="curve" smooth="yes"/>
      <point x="367" y="283"/>
      <point x="388" y="306"/>
    </contour>
    <contour>
      <point x="540" y="223" type="line"/>
      <point x="540" y="102"/>
      <point x="454" y="-23"/>
      <point x="300" y="-23" type="curve" smooth="yes"/>
      <point x="144" y="-23"/>
      <point x="60" y="103"/>
      <point x="60" y="222" type="curve" smooth="yes"/>
      <point x="60" y="673" type="line" smooth="yes"/>
      <point x="60" y="790"/>
      <point x="144" y="913"/>
      <point x="300" y="913" type="curve" smooth="yes"/>
      <point x="442" y="913"/>
      <point x="540" y="808"/>
      <point x="540" y="672" type="curve"/>
      <point x="426" y="672" type="line"/>
      <point x="426" y="749"/>
      <point x="369" y="802"/>
      <point x="300" y="802" type="curve" smooth="yes"/>
      <point x="228" y="802"/>
      <point x="174" y="745"/>
      <point x="174" y="670" type="curve" smooth="yes"/>
      <point x="174" y="222" type="line" smooth="yes"/>
      <point x="174" y="146"/>
      <point x="228" y="90"/>
      <point x="300" y="90" type="curve" smooth="yes"/>
      <point x="351" y="90"/>
      <point x="393" y="118"/>
      <point x="412" y="162" type="curve"/>
      <point x="298" y="208" type="line" smooth="yes"/>
      <point x="250" y="228"/>
      <point x="211" y="274"/>
      <point x="211" y="330" type="curve" smooth="yes"/>
      <point x="211" y="399"/>
      <point x="276" y="462"/>
      <point x="345" y="462" type="curve" smooth="yes"/>
      <point x="417" y="462"/>
      <point x="474" y="399"/>
      <point x="474" y="330" type="curve" smooth="yes"/>
      <point x="474" y="303"/>
      <point x="466" y="279"/>
      <point x="454" y="258" type="curve"/>
    </contour>
  </outline>
</glyph>
<glyph name="u1047" format="2">
  <advance width="591"/>
  <unicode hex="1047"/>
  <anchor x="294" y="-53" name="BS"/>
  <anchor x="294" y="-53" name="L"/>
  <anchor x="294" y="495" name="U"/>
  <anchor x="286" y="-53" name="BD"/>
  <outline>
    <contour>
      <point x="517" y="-399" type="line"/>
      <point x="480" y="-454"/>
      <point x="414" y="-471"/>
      <point x="354" y="-471" type="curve" smooth="yes"/>
      <point x="201" y="-471"/>
      <point x="168" y="-364"/>
      <point x="168" y="-275" type="curve" smooth="yes"/>
      <point x="168" y="-145"/>
      <point x="421" y="153"/>
      <point x="421" y="237" type="curve" smooth="yes"/>
      <point x="421" y="318"/>
      <point x="346" y="352"/>
      <point x="294" y="352" type="curve" smooth="yes"/>
      <point x="211" y="352"/>
      <point x="169" y="295"/>
      <point x="169" y="222" type="curve"/>
      <point x="55" y="222" type="line"/>
      <point x="55" y="343"/>
      <point x="145" y="466"/>
      <point x="294" y="466" type="curve" smooth="yes"/>
      <point x="399" y="466"/>
      <point x="535" y="381"/>
      <point x="535" y="237" type="curve" smooth="yes"/>
      <point x="535" y="99"/>
      <point x="282" y="-182"/>
      <point x="282" y="-275" type="curve" smooth="yes"/>
      <point x="282" y="-334"/>
      <point x="311" y="-356"/>
      <point x="354" y="-356" type="curve" smooth="yes"/>
      <point x="397" y="-356"/>
      <point x="420" y="-336"/>
      <point x="441" y="-317" type="curve"/>
    </contour>
  </outline>
</glyph>
<glyph name="u104F" format="2">
  <advance width="1068"/>
  <unicode hex="104F"/>
  <outline>
    <contour>
      <point x="415" y="319" type="curve"/>
      <point x="385" y="347"/>
      <point x="335" y="360"/>
      <point x="313" y="360" type="curve" smooth="yes"/>
      <point x="296" y="360"/>
      <point x="281" y="359"/>
      <point x="265" y="352" type="curve"/>
      <point x="289" y="331"/>
      <point x="316" y="312"/>
      <point x="363" y="312" type="curve" smooth="yes"/>
      <point x="383" y="312"/>
      <point x="396" y="312"/>
    </contour>
    <contour>
      <point x="417" y="124" type="curve"/>
      <point x="392" y="131"/>
      <point x="381" y="132"/>
      <point x="363" y="132" type="curve" smooth="yes"/>
      <point x="319" y="132"/>
      <point x="292" y="116"/>
      <point x="265" y="88" type="curve"/>
      <point x="280" y="85"/>
      <point x="296" y="84"/>
      <point x="313" y="84" type="curve" smooth="yes"/>
      <point x="343" y="84"/>
      <point x="392" y="99"/>
    </contour>
    <contour>
      <point x="1011" y="-8" type="line"/>
      <point x="897" y="-8" type="line"/>
      <point x="897" y="384" type="line" smooth="yes"/>
      <point x="897" y="557"/>
      <point x="645" y="570"/>
      <point x="645" y="733" type="curve" smooth="yes"/>
      <point x="645" y="852"/>
      <point x="730" y="925"/>
      <point x="838" y="925" type="curve" smooth="yes"/>
      <point x="926" y="925"/>
      <point x="989" y="877"/>
      <point x="1009" y="816" type="curve"/>
      <point x="915" y="754" type="line"/>
      <point x="897" y="790"/>
      <point x="877" y="811"/>
      <point x="838" y="811" type="curve" smooth="yes"/>
      <point x="778" y="811"/>
      <point x="759" y="777"/>
      <point x="759" y="733" type="curve" smooth="yes"/>
      <point x="759" y="656"/>
      <point x="1011" y="619"/>
      <point x="1011" y="384" type="curve" smooth="yes"/>
    </contour>
    <contour>
      <point x="787" y="-8" type="line"/>
      <point x="673" y="-8" type="line"/>
      <point x="673" y="297" type="line" smooth="yes"/>
      <point x="673" y="334"/>
      <point x="647" y="352"/>
      <point x="616" y="352" type="curve" smooth="yes"/>
      <point x="580" y="352"/>
      <point x="559" y="332"/>
      <point x="546" y="316" type="curve"/>
      <point x="548" y="308"/>
      <point x="549" y="301"/>
      <point x="549" y="294" type="curve"/>
      <point x="484" y="244"/>
      <point x="418" y="229"/>
      <point x="363" y="229" type="curve" smooth="yes"/>
      <point x="284" y="229"/>
      <point x="229" y="264"/>
      <point x="192" y="300" type="curve"/>
      <point x="177" y="274"/>
      <point x="169" y="250"/>
      <point x="169" y="222" type="curve" smooth="yes"/>
      <point x="169" y="195"/>
      <point x="177" y="168"/>
      <point x="192" y="142" type="curve"/>
      <point x="229" y="181"/>
      <point x="284" y="214"/>
      <point x="363" y="214" type="curve" smooth="yes"/>
      <point x="418" y="214"/>
      <point x="484" y="201"/>
      <point x="549" y="150" type="curve"/>
      <point x="533" y="43"/>
      <point x="427" y="-23"/>
      <point x="313" y="-23" type="curve" smooth="yes"/>
      <point x="133" y="-23"/>
      <point x="55" y="112"/>
      <point x="55" y="222" type="curve" smooth="yes"/>
      <point x="55" y="331"/>
      <point x="133" y="466"/>
      <point x="313" y="466" type="curve" smooth="yes"/>
      <point x="374" y="466"/>
      <point x="432" y="450"/>
      <point x="477" y="412" type="curve"/>
      <point x="517" y="455"/>
      <point x="554" y="466"/>
      <point x="616" y="466" type="curve" smooth="yes"/>
      <point x="695" y="466"/>
      <point x="787" y="416"/>
      <point x="787" y="297" type="curve" smooth="yes"/>
    </contour>
  </outline>
</glyph>
<glyph name="u1051" format="2">
  <advance width="600"/>
  <unicode hex="1051"/>
  <anchor x="0" y="0" name="_R"/>
  <anchor x="300" y="-53" name="BS"/>
  <anchor x="300" y="-53" name="L"/>
  <anchor x="300" y="495" name="U"/>
  <anchor x="292" y="-53" name="BD"/>
  <outline>
    <contour>
      <point x="301" y="236" type="line"/>
      <point x="300" y="237" type="line"/>
      <point x="299" y="236" type="line"/>
      <point x="300" y="235" type="line"/>
    </contour>
    <contour>
      <point x="363" y="236" type="curve" smooth="yes"/>
      <point x="363" y="201"/>
      <point x="335" y="174"/>
      <point x="300" y="174" type="curve" smooth="yes"/>
      <point x="267" y="174"/>
      <point x="239" y="201"/>
      <point x="239" y="236" type="curve" smooth="yes"/>
      <point x="239" y="272"/>
      <point x="267" y="300"/>
      <point x="300" y="300" type="curve" smooth="yes"/>
      <point x="335" y="300"/>
      <point x="363" y="272"/>
    </contour>
    <contour>
      <point x="546" y="236" type="curve" smooth="yes"/>
      <point x="546" y="97"/>
      <point x="439" y="-23"/>
      <point x="300" y="-23" type="curve" smooth="yes"/>
      <point x="160" y="-23"/>
      <point x="55" y="97"/>
      <point x="55" y="236" type="curve" smooth="yes"/>
      <point x="55" y="332"/>
      <point x="73" y="403"/>
      <point x="145" y="466" type="curve"/>
      <point x="211" y="373" type="line"/>
      <point x="179" y="330"/>
      <point x="169" y="311"/>
      <point x="169" y="236" type="curve" smooth="yes"/>
      <point x="169" y="167"/>
      <point x="216" y="91"/>
      <point x="300" y="91" type="curve" smooth="yes"/>
      <point x="384" y="91"/>
      <point x="430" y="167"/>
      <point x="430" y="236" type="curve" smooth="yes"/>
      <point x="430" y="311"/>
      <point x="420" y="330"/>
      <point x="388" y="373" type="curve"/>
      <point x="454" y="466" type="line"/>
      <point x="526" y="403"/>
      <point x="546" y="332"/>
    </contour>
  </outline>
</glyph>
<glyph name="u1054" format="2">
  <advance width="600"/>
  <unicode hex="1054"/>
  <anchor x="0" y="0" name="_R"/>
  <anchor x="300" y="-53" name="BS"/>
  <anchor x="300" y="-53" name="U"/>
  <anchor x="283" y="-53" name="L"/>
  <anchor x="283" y="-53" name="BD"/>
  <outline>
    <contour>
      <point x="417" y="290" type="curve"/>
      <point x="374" y="341"/>
      <point x="326" y="352"/>
      <point x="298" y="352" type="curve" smooth="yes"/>
      <point x="273" y="352"/>
      <point x="251" y="346"/>
      <point x="232" y="335" type="curve"/>
      <point x="259" y="303"/>
      <point x="301" y="280"/>
      <point x="349" y="280" type="curve" smooth="yes"/>
      <point x="369" y="280"/>
      <point x="389" y="281"/>
    </contour>
    <contour>
      <point x="543" y="251" type="curve"/>
      <point x="463" y="199"/>
      <point x="389" y="187"/>
      <point x="349" y="187" type="curve" smooth="yes"/>
      <point x="301" y="187"/>
      <point x="226" y="207"/>
      <point x="174" y="259" type="curve"/>
      <point x="171" y="247"/>
      <point x="169" y="234"/>
      <point x="169" y="221" type="curve" smooth="yes"/>
      <point x="169" y="168"/>
      <point x="209" y="91"/>
      <point x="298" y="91" type="curve" smooth="yes"/>
      <point x="347" y="91"/>
      <point x="385" y="110"/>
      <point x="421" y="160" type="curve"/>
      <point x="520" y="107" type="line"/>
      <point x="472" y="14"/>
      <point x="374" y="-23"/>
      <point x="298" y="-23" type="curve" smooth="yes"/>
      <point x="144" y="-23"/>
      <point x="55" y="112"/>
      <point x="55" y="221" type="curve" smooth="yes"/>
      <point x="55" y="349"/>
      <point x="151" y="466"/>
      <point x="298" y="466" type="curve" smooth="yes"/>
      <point x="401" y="466"/>
      <point x="543" y="389"/>
    </contour>
  </outline>
</glyph>
<glyph name="u1056" format="2">
  <advance width="539"/>
  <unicode hex="1056"/>
  <anchor x="0" y="0" name="_R"/>
  <anchor x="270" y="-53" name="BS"/>
  <anchor x="270" y="-53" name="L"/>
  <anchor x="300" y="495" name="U"/>
  <anchor x="238" y="-53" name="BD"/>
  <outline>
    <contour>
      <point x="484" y="148" type="curve" smooth="yes"/>
      <point x="484" y="22"/>
      <point x="372" y="-23"/>
      <point x="274" y="-23" type="curve" smooth="yes"/>
      <point x="220" y="-23"/>
      <point x="107" y="15"/>
      <point x="55" y="129" type="curve"/>
      <point x="148" y="198" type="line"/>
      <point x="182" y="120"/>
      <point x="240" y="91"/>
      <point x="273" y="91" type="curve" smooth="yes"/>
      <point x="312" y="91"/>
      <point x="368" y="95"/>
      <point x="368" y="148" type="curve" smooth="yes"/>
      <point x="368" y="206"/>
      <point x="175" y="217"/>
      <point x="175" y="346" type="curve" smooth="yes"/>
      <point x="175" y="425"/>
      <point x="258" y="466"/>
      <point x="309" y="466" type="curve" smooth="yes"/>
      <point x="363" y="466"/>
      <point x="394" y="459"/>
      <point x="450" y="405" type="curve"/>
      <point x="392" y="327" type="line"/>
      <point x="364" y="359"/>
      <point x="330" y="367"/>
      <point x="310" y="367" type="curve" smooth="yes"/>
      <point x="305" y="367"/>
      <point x="290" y="363"/>
      <point x="290" y="346" type="curve"/>
      <point x="305" y="317"/>
      <point x="484" y="269"/>
    </contour>
  </outline>
</glyph>
<glyph name="u1059" format="2">
  <advance width="489"/>
  <unicode hex="1059"/>
  <anchor x="247" y="-53" name="_BS"/>
  <anchor x="247" y="-53" name="_BSM"/>
  <anchor x="-495" y="-53" name="BDM"/>
  <anchor x="25" y="-53" name="_LM"/>
  <anchor x="-620" y="-53" name="_LLM"/>
  <anchor x="-293" y="495" name="UM"/>
  <anchor x="25" y="-53" name="BSM"/>
  <outline>
    <contour>
      <point x="336" y="-228" type="curve"/>
      <point x="303" y="-188"/>
      <point x="266" y="-180"/>
      <point x="244" y="-180" type="curve" smooth="yes"/>
      <point x="225" y="-180"/>
      <point x="208" y="-185"/>
      <point x="194" y="-193" type="curve"/>
      <point x="214" y="-218"/>
      <point x="247" y="-235"/>
      <point x="284" y="-235" type="curve" smooth="yes"/>
      <point x="299" y="-235"/>
      <point x="315" y="-235"/>
    </contour>
    <contour>
      <point x="433" y="-258" type="curve"/>
      <point x="372" y="-298"/>
      <point x="315" y="-307"/>
      <point x="284" y="-307" type="curve" smooth="yes"/>
      <point x="247" y="-307"/>
      <point x="189" y="-292"/>
      <point x="149" y="-252" type="curve"/>
      <point x="146" y="-261"/>
      <point x="145" y="-271"/>
      <point x="145" y="-281" type="curve" smooth="yes"/>
      <point x="145" y="-295"/>
      <point x="157" y="-375"/>
      <point x="193" y="-375" type="curve" smooth="yes"/>
      <point x="207" y="-375"/>
      <point x="221" y="-337"/>
      <point x="252" y="-337" type="curve" smooth="yes"/>
      <point x="283" y="-337"/>
      <point x="298" y="-375"/>
      <point x="311" y="-375" type="curve" smooth="yes"/>
      <point x="328" y="-375"/>
      <point x="337" y="-361"/>
      <point x="351" y="-334" type="curve"/>
      <point x="424" y="-372" type="line"/>
      <point x="399" y="-419"/>
      <point x="362" y="-463"/>
      <point x="311" y="-463" type="curve" smooth="yes"/>
      <point x="273" y="-463"/>
      <point x="262" y="-425"/>
      <point x="252" y="-425" type="curve" smooth="yes"/>
      <point x="242" y="-425"/>
      <point x="231" y="-463"/>
      <point x="193" y="-463" type="curve" smooth="yes"/>
      <point x="107" y="-463"/>
      <point x="57" y="-352"/>
      <point x="57" y="-281" type="curve" smooth="yes"/>
      <point x="57" y="-190"/>
      <point x="131" y="-92"/>
      <point x="244" y="-92" type="curve" smooth="yes"/>
      <point x="331" y="-92"/>
      <point x="433" y="-151"/>
    </contour>
  </outline>
</glyph>
<glyph name="u105A" format="2">
  <advance width="577"/>
  <unicode hex="105A"/>
  <anchor x="0" y="0" name="_R"/>
  <anchor x="298" y="-53" name="BS"/>
  <anchor x="298" y="-53" name="L"/>
  <anchor x="298" y="495" name="U"/>
  <anchor x="292" y="-53" name="BD"/>
  <outline>
    <contour>
      <point x="391" y="-188" type="curve" smooth="yes"/>
      <point x="391" y="-241"/>
      <point x="294" y="-311"/>
      <point x="294" y="-340" type="curve" smooth="yes"/>
      <point x="294" y="-354"/>
      <point x="304" y="-359"/>
      <point x="313" y="-359" type="curve" smooth="yes"/>
      <point x="328" y="-359"/>
      <point x="343" y="-350"/>
      <point x="351" y="-342" type="curve"/>
      <point x="383" y="-423" type="line"/>
      <point x="364" y="-438"/>
      <point x="338" y="-446"/>
      <point x="313" y="-446" type="curve" smooth="yes"/>
      <point x="277" y="-446"/>
      <point x="207" y="-427"/>
      <point x="207" y="-340" type="curve" smooth="yes"/>
      <point x="207" y="-278"/>
      <point x="304" y="-215"/>
      <point x="304" y="-188" type="curve" smooth="yes"/>
      <point x="304" y="-177"/>
      <point x="299" y="-166"/>
      <point x="284" y="-166" type="curve" smooth="yes"/>
      <point x="267" y="-166"/>
      <point x="255" y="-184"/>
      <point x="255" y="-207" type="curve"/>
      <point x="168" y="-207" type="line"/>
      <point x="168" y="-146"/>
      <point x="212" y="-79"/>
      <point x="284" y="-79" type="curve" smooth="yes"/>
      <point x="332" y="-79"/>
      <point x="391" y="-105"/>
    </contour>
    <contour>
      <point x="522" y="108" type="line"/>
      <point x="471" y="12"/>
      <point x="372" y="-23"/>
      <point x="298" y="-23" type="curve" smooth="yes"/>
      <point x="166" y="-23"/>
      <point x="55" y="87"/>
      <point x="55" y="222" type="curve" smooth="yes"/>
      <point x="55" y="355"/>
      <point x="166" y="466"/>
      <point x="298" y="466" type="curve" smooth="yes"/>
      <point x="372" y="466"/>
      <point x="471" y="432"/>
      <point x="522" y="336" type="curve"/>
      <point x="420" y="283" type="line"/>
      <point x="384" y="338"/>
      <point x="338" y="352"/>
      <point x="298" y="352" type="curve" smooth="yes"/>
      <point x="229" y="352"/>
      <point x="169" y="291"/>
      <point x="169" y="222" type="curve" smooth="yes"/>
      <point x="169" y="151"/>
      <point x="229" y="91"/>
      <point x="298" y="91" type="curve" smooth="yes"/>
      <point x="338" y="91"/>
      <point x="381" y="100"/>
      <point x="420" y="160" type="curve"/>
    </contour>
  </outline>
</glyph>
<glyph name="u105C" format="2">
  <advance width="599"/>
  <unicode hex="105C"/>
  <anchor x="0" y="0" name="_R"/>
  <anchor x="300" y="-53" name="BS"/>
  <anchor x="300" y="-53" name="L"/>
  <anchor x="300" y="495" name="U"/>
  <anchor x="290" y="-69" name="BD"/>
  <outline>
    <contour>
      <point x="301" y="221" type="line"/>
      <point x="300" y="222" type="line"/>
      <point x="299" y="221" type="line"/>
      <point x="300" y="220" type="line"/>
    </contour>
    <contour>
      <point x="363" y="221" type="curve" smooth="yes"/>
      <point x="363" y="186"/>
      <point x="335" y="159"/>
      <point x="300" y="159" type="curve" smooth="yes"/>
      <point x="267" y="159"/>
      <point x="239" y="186"/>
      <point x="239" y="221" type="curve" smooth="yes"/>
      <point x="239" y="257"/>
      <point x="267" y="285"/>
      <point x="300" y="285" type="curve" smooth="yes"/>
      <point x="335" y="285"/>
      <point x="363" y="257"/>
    </contour>
    <contour>
      <point x="441" y="221" type="curve" smooth="yes"/>
      <point x="441" y="301"/>
      <point x="378" y="364"/>
      <point x="300" y="364" type="curve" smooth="yes"/>
      <point x="224" y="364"/>
      <point x="160" y="301"/>
      <point x="160" y="221" type="curve" smooth="yes"/>
      <point x="160" y="144"/>
      <point x="224" y="81"/>
      <point x="300" y="81" type="curve" smooth="yes"/>
      <point x="378" y="81"/>
      <point x="441" y="144"/>
    </contour>
    <contour>
      <point x="544" y="221" type="curve" smooth="yes"/>
      <point x="544" y="88"/>
      <point x="433" y="-23"/>
      <point x="300" y="-23" type="curve" smooth="yes"/>
      <point x="167" y="-23"/>
      <point x="55" y="88"/>
      <point x="55" y="221" type="curve" smooth="yes"/>
      <point x="55" y="357"/>
      <point x="167" y="467"/>
      <point x="300" y="467" type="curve" smooth="yes"/>
      <point x="433" y="467"/>
      <point x="544" y="357"/>
    </contour>
  </outline>
</glyph>
<glyph name="u1061" format="2">
  <advance width="649"/>
  <unicode hex="1061"/>
  <anchor x="0" y="0" name="_R"/>
  <anchor x="298" y="-53" name="BS"/>
  <anchor x="241" y="-53" name="LL"/>
  <anchor x="756" y="-53" name="L"/>
  <anchor x="97" y="-53" name="BD"/>
  <anchor x="298" y="495" name="U"/>
  <outline>
    <contour>
      <point x="411" y="-471" type="line"/>
      <point x="220" y="-471" type="line"/>
      <point x="220" y="-371" type="line"/>
      <point x="310" y="-371" type="line"/>
      <point x="310" y="-104" type="line"/>
      <point x="411" y="-104" type="line"/>
    </contour>
    <contour>
      <point x="328" y="96" type="curve"/>
      <point x="312" y="117"/>
      <point x="295" y="139"/>
      <point x="271" y="154" type="curve" smooth="yes"/>
      <point x="244" y="171"/>
      <point x="210" y="185"/>
      <point x="174" y="189" type="curve"/>
      <point x="187" y="130"/>
      <point x="238" y="93"/>
      <point x="298" y="93" type="curve" smooth="yes"/>
      <point x="314" y="93"/>
      <point x="320" y="93"/>
    </contour>
    <contour>
      <point x="594" y="-471" type="line"/>
      <point x="480" y="-471" type="line"/>
      <point x="480" y="138" type="line" smooth="yes"/>
      <point x="480" y="297"/>
      <point x="362" y="352"/>
      <point x="298" y="352" type="curve" smooth="yes"/>
      <point x="238" y="352"/>
      <point x="200" y="322"/>
      <point x="181" y="282" type="curve"/>
      <point x="236" y="278"/>
      <point x="294" y="254"/>
      <point x="331" y="226" type="curve" smooth="yes"/>
      <point x="395" y="177"/>
      <point x="439" y="106"/>
      <point x="448" y="22" type="curve"/>
      <point x="408" y="-11"/>
      <point x="361" y="-23"/>
      <point x="298" y="-23" type="curve" smooth="yes"/>
      <point x="166" y="-23"/>
      <point x="55" y="88"/>
      <point x="55" y="222" type="curve" smooth="yes"/>
      <point x="55" y="341"/>
      <point x="151" y="466"/>
      <point x="298" y="466" type="curve" smooth="yes"/>
      <point x="440" y="466"/>
      <point x="594" y="366"/>
      <point x="594" y="150" type="curve" smooth="yes"/>
    </contour>
  </outline>
</glyph>
<glyph name="u1069" format="2">
  <advance width="396"/>
  <unicode hex="1069"/>
  <anchor x="0" y="0" name="_R"/>
  <anchor x="198" y="-53" name="BS"/>
  <anchor x="198" y="-53" name="L"/>
  <anchor x="198" y="495" name="U"/>
  <anchor x="180" y="-53" name="BD"/>
  <outline>
    <contour>
      <point x="349" y="325" type="curve" smooth="yes"/>
      <point x="349" y="298"/>
      <point x="346" y="259"/>
      <point x="301" y="225" type="curve" smooth="yes"/>
      <point x="261" y="195"/>
      <point x="213" y="194"/>
      <point x="178" y="177" type="curve" smooth="yes"/>
      <point x="168" y="172"/>
      <point x="154" y="160"/>
      <point x="154" y="143" type="curve" smooth="yes"/>
      <point x="154" y="115"/>
      <point x="171" y="91"/>
      <point x="196" y="91" type="curve" smooth="yes"/>
      <point x="224" y="91"/>
      <point x="253" y="99"/>
      <point x="277" y="127" type="curve"/>
      <point x="349" y="39" type="line"/>
      <point x="303" y="-17"/>
      <point x="222" y="-23"/>
      <point x="196" y="-23" type="curve" smooth="yes"/>
      <point x="141" y="-23"/>
      <point x="40" y="21"/>
      <point x="40" y="148" type="curve" smooth="yes"/>
      <point x="40" y="204"/>
      <point x="70" y="243"/>
      <point x="111" y="264" type="curve" smooth="yes"/>
      <point x="139" y="279"/>
      <point x="189" y="291"/>
      <point x="222" y="304" type="curve" smooth="yes"/>
      <point x="231" y="309"/>
      <point x="235" y="316"/>
      <point x="235" y="325" type="curve" smooth="yes"/>
      <point x="235" y="340"/>
      <point x="223" y="357"/>
      <point x="202" y="357" type="curve" smooth="yes"/>
      <point x="177" y="357"/>
      <point x="150" y="343"/>
      <point x="130" y="324" type="curve"/>
      <point x="58" y="408" type="line"/>
      <point x="114" y="459"/>
      <point x="172" y="466"/>
      <point x="202" y="466" type="curve" smooth="yes"/>
      <point x="279" y="466"/>
      <point x="349" y="405"/>
    </contour>
  </outline>
</glyph>
<glyph name="u106D" format="2">
  <advance width="396"/>
  <unicode hex="106D"/>
  <anchor x="0" y="0" name="_R"/>
  <anchor x="198" y="-53" name="BS"/>
  <anchor x="198" y="-53" name="L"/>
  <anchor x="198" y="495" name="U"/>
  <anchor x="174" y="-51" name="BD"/>
  <outline>
    <contour>
      <point x="355" y="148" type="curve" smooth="yes"/>
      <point x="355" y="21"/>
      <point x="255" y="-23"/>
      <point x="199" y="-23" type="curve" smooth="yes"/>
      <point x="174" y="-23"/>
      <point x="93" y="-17"/>
      <point x="46" y="39" type="curve"/>
      <point x="118" y="127" type="line"/>
      <point x="147" y="95"/>
      <point x="178" y="91"/>
      <point x="199" y="91" type="curve" smooth="yes"/>
      <point x="225" y="91"/>
      <point x="241" y="117"/>
      <point x="241" y="147" type="curve" smooth="yes"/>
      <point x="241" y="165"/>
      <point x="228" y="172"/>
      <point x="217" y="177" type="curve" smooth="yes"/>
      <point x="185" y="191"/>
      <point x="134" y="197"/>
      <point x="94" y="225" type="curve" smooth="yes"/>
      <point x="48" y="257"/>
      <point x="46" y="296"/>
      <point x="46" y="325" type="curve" smooth="yes"/>
      <point x="46" y="405"/>
      <point x="117" y="466"/>
      <point x="193" y="466" type="curve" smooth="yes"/>
      <point x="223" y="466"/>
      <point x="282" y="459"/>
      <point x="337" y="408" type="curve"/>
      <point x="265" y="324" type="line"/>
      <point x="246" y="343"/>
      <point x="219" y="357"/>
      <point x="193" y="357" type="curve" smooth="yes"/>
      <point x="172" y="357"/>
      <point x="160" y="340"/>
      <point x="160" y="325" type="curve" smooth="yes"/>
      <point x="160" y="316"/>
      <point x="165" y="309"/>
      <point x="174" y="304" type="curve" smooth="yes"/>
      <point x="207" y="291"/>
      <point x="256" y="279"/>
      <point x="285" y="264" type="curve" smooth="yes"/>
      <point x="325" y="243"/>
      <point x="355" y="204"/>
    </contour>
  </outline>
</glyph>
<glyph name="u1075" format="2">
  <advance width="592"/>
  <unicode hex="1075"/>
  <anchor x="0" y="0" name="_R"/>
  <anchor x="292" y="-53" name="BS"/>
  <anchor x="292" y="-53" name="L"/>
  <anchor x="292" y="495" name="U"/>
  <anchor x="285" y="-53" name="BD"/>
  <outline>
    <contour>
      <point x="537" y="204" type="curve" smooth="yes"/>
      <point x="537" y="92"/>
      <point x="504" y="21"/>
      <point x="447" y="-23" type="curve"/>
      <point x="381" y="70" type="line"/>
      <point x="420" y="112"/>
      <point x="423" y="173"/>
      <point x="423" y="204" type="curve" smooth="yes"/>
      <point x="423" y="323"/>
      <point x="331" y="352"/>
      <point x="292" y="352" type="curve" smooth="yes"/>
      <point x="216" y="352"/>
      <point x="169" y="310"/>
      <point x="169" y="277" type="curve" smooth="yes"/>
      <point x="169" y="206"/>
      <point x="292" y="214"/>
      <point x="292" y="102" type="curve" smooth="yes"/>
      <point x="292" y="17"/>
      <point x="231" y="-23"/>
      <point x="159" y="-23" type="curve" smooth="yes"/>
      <point x="128" y="-23"/>
      <point x="82" y="-9"/>
      <point x="55" y="36" type="curve"/>
      <point x="139" y="87" type="line"/>
      <point x="145" y="80"/>
      <point x="152" y="76"/>
      <point x="159" y="76" type="curve" smooth="yes"/>
      <point x="172" y="76"/>
      <point x="193" y="78"/>
      <point x="193" y="102" type="curve" smooth="yes"/>
      <point x="193" y="157"/>
      <point x="55" y="124"/>
      <point x="55" y="277" type="curve" smooth="yes"/>
      <point x="55" y="362"/>
      <point x="147" y="466"/>
      <point x="292" y="466" type="curve" smooth="yes"/>
      <point x="420" y="466"/>
      <point x="537" y="360"/>
    </contour>
  </outline>
</glyph>
<glyph name="u1076" format="2">
  <advance width="597"/>
  <unicode hex="1076"/>
  <anchor x="0" y="0" name="_R"/>
  <anchor x="297" y="-53" name="BS"/>
  <anchor x="297" y="-53" name="L"/>
  <anchor x="312" y="495" name="U"/>
  <anchor x="289" y="-53" name="BD"/>
  <outline>
    <contour>
      <point x="369" y="111" type="curve"/>
      <point x="342" y="142"/>
      <point x="300" y="163"/>
      <point x="255" y="163" type="curve" smooth="yes"/>
      <point x="234" y="163"/>
      <point x="214" y="162"/>
      <point x="186" y="153" type="curve"/>
      <point x="225" y="102"/>
      <point x="262" y="91"/>
      <point x="297" y="91" type="curve" smooth="yes"/>
      <point x="326" y="91"/>
      <point x="350" y="98"/>
    </contour>
    <contour>
      <point x="541" y="222" type="curve" smooth="yes"/>
      <point x="541" y="91"/>
      <point x="436" y="-23"/>
      <point x="297" y="-23" type="curve" smooth="yes"/>
      <point x="130" y="-23"/>
      <point x="61" y="100"/>
      <point x="61" y="192" type="curve"/>
      <point x="141" y="244"/>
      <point x="214" y="256"/>
      <point x="255" y="256" type="curve" smooth="yes"/>
      <point x="301" y="256"/>
      <point x="373" y="238"/>
      <point x="424" y="189" type="curve"/>
      <point x="426" y="199"/>
      <point x="427" y="210"/>
      <point x="427" y="223" type="curve" smooth="yes"/>
      <point x="427" y="249"/>
      <point x="426" y="352"/>
      <point x="312" y="352" type="curve" smooth="yes"/>
      <point x="271" y="352"/>
      <point x="271" y="270"/>
      <point x="177" y="270" type="curve" smooth="yes"/>
      <point x="105" y="270"/>
      <point x="55" y="313"/>
      <point x="55" y="370" type="curve" smooth="yes"/>
      <point x="55" y="418"/>
      <point x="69" y="442"/>
      <point x="109" y="466" type="curve"/>
      <point x="169" y="409" type="line"/>
      <point x="160" y="403"/>
      <point x="151" y="393"/>
      <point x="151" y="384" type="curve" smooth="yes"/>
      <point x="151" y="370"/>
      <point x="157" y="363"/>
      <point x="177" y="363" type="curve" smooth="yes"/>
      <point x="213" y="363"/>
      <point x="205" y="466"/>
      <point x="312" y="466" type="curve" smooth="yes"/>
      <point x="447" y="466"/>
      <point x="541" y="337"/>
    </contour>
  </outline>
</glyph>
<glyph name="u1077" format="2">
  <advance width="602"/>
  <unicode hex="1077"/>
  <anchor x="0" y="0" name="_R"/>
  <anchor x="306" y="-53" name="BS"/>
  <anchor x="306" y="-53" name="L"/>
  <anchor x="306" y="495" name="U"/>
  <anchor x="285" y="-53" name="BD"/>
  <outline>
    <contour>
      <point x="444" y="206" type="curve" smooth="yes"/>
      <point x="444" y="238"/>
      <point x="436" y="266"/>
      <point x="421" y="290" type="curve"/>
      <point x="397" y="268"/>
      <point x="378" y="241"/>
      <point x="378" y="206" type="curve" smooth="yes"/>
      <point x="378" y="161"/>
      <point x="390" y="133"/>
      <point x="408" y="110" type="curve"/>
      <point x="429" y="134"/>
      <point x="444" y="160"/>
    </contour>
    <contour>
      <point x="557" y="206" type="curve" smooth="yes"/>
      <point x="557" y="112"/>
      <point x="506" y="38"/>
      <point x="432" y="-23" type="curve"/>
      <point x="398" y="-23"/>
      <point x="284" y="55"/>
      <point x="284" y="208" type="curve" smooth="yes"/>
      <point x="284" y="254"/>
      <point x="307" y="305"/>
      <point x="343" y="345" type="curve"/>
      <point x="333" y="348"/>
      <point x="318" y="352"/>
      <point x="306" y="352" type="curve" smooth="yes"/>
      <point x="220" y="352"/>
      <point x="169" y="310"/>
      <point x="169" y="277" type="curve" smooth="yes"/>
      <point x="169" y="206"/>
      <point x="282" y="214"/>
      <point x="282" y="102" type="curve" smooth="yes"/>
      <point x="282" y="17"/>
      <point x="231" y="-23"/>
      <point x="159" y="-23" type="curve" smooth="yes"/>
      <point x="138" y="-23"/>
      <point x="84" y="-15"/>
      <point x="55" y="36" type="curve"/>
      <point x="139" y="87" type="line"/>
      <point x="145" y="80"/>
      <point x="152" y="76"/>
      <point x="159" y="76" type="curve" smooth="yes"/>
      <point x="172" y="76"/>
      <point x="183" y="85"/>
      <point x="183" y="102" type="curve" smooth="yes"/>
      <point x="183" y="157"/>
      <point x="55" y="124"/>
      <point x="55" y="277" type="curve" smooth="yes"/>
      <point x="55" y="362"/>
      <point x="151" y="466"/>
      <point x="306" y="466" type="curve" smooth="yes"/>
      <point x="441" y="466"/>
      <point x="557" y="349"/>
    </contour>
  </outline>
</glyph>
<glyph name="u1088" format="2">
  <advance width="325"/>
  <unicode hex="1088"/>
  <outline>
    <contour>
      <point x="207" y="357" type="curve" smooth="yes"/>
      <point x="207" y="378"/>
      <point x="187" y="399"/>
      <point x="162" y="399" type="curve" smooth="yes"/>
      <point x="135" y="399"/>
      <point x="118" y="378"/>
      <point x="118" y="357" type="curve" smooth="yes"/>
      <point x="118" y="336"/>
      <point x="135" y="310"/>
      <point x="162" y="310" type="curve" smooth="yes"/>
      <point x="187" y="310"/>
      <point x="207" y="333"/>
    </contour>
    <contour>
      <point x="273" y="357" type="curve" smooth="yes"/>
      <point x="273" y="297"/>
      <point x="222" y="247"/>
      <point x="162" y="247" type="curve" smooth="yes"/>
      <point x="103" y="247"/>
      <point x="51" y="297"/>
      <point x="51" y="357" type="curve" smooth="yes"/>
      <point x="51" y="417"/>
      <point x="103" y="466"/>
      <point x="162" y="466" type="curve" smooth="yes"/>
      <point x="222" y="466"/>
      <point x="273" y="417"/>
    </contour>
    <contour>
      <point x="207" y="102" type="curve" smooth="yes"/>
      <point x="207" y="123"/>
      <point x="187" y="144"/>
      <point x="162" y="144" type="curve" smooth="yes"/>
      <point x="135" y="144"/>
      <point x="118" y="123"/>
      <point x="118" y="102" type="curve" smooth="yes"/>
      <point x="118" y="81"/>
      <point x="135" y="55"/>
      <point x="162" y="55" type="curve" smooth="yes"/>
      <point x="187" y="55"/>
      <point x="207" y="78"/>
    </contour>
    <contour>
      <point x="273" y="87" type="line" smooth="yes"/>
      <point x="273" y="-21"/>
      <point x="181" y="-126"/>
      <point x="141" y="-143" type="curve"/>
      <point x="126" y="-128" type="line"/>
      <point x="157" y="-108"/>
      <point x="195" y="-44"/>
      <point x="201" y="0" type="curve"/>
      <point x="189" y="-5"/>
      <point x="175" y="-8"/>
      <point x="162" y="-8" type="curve" smooth="yes"/>
      <point x="103" y="-8"/>
      <point x="51" y="42"/>
      <point x="51" y="102" type="curve" smooth="yes"/>
      <point x="51" y="162"/>
      <point x="103" y="211"/>
      <point x="162" y="211" type="curve" smooth="yes"/>
      <point x="222" y="211"/>
      <point x="273" y="162"/>
      <point x="273" y="102" type="curve" smooth="yes"/>
    </contour>
  </outline>
</glyph>
<glyph name="u108E" format="2">
  <advance width="591"/>
  <unicode hex="108E"/>
  <anchor x="0" y="0" name="_R"/>
  <anchor x="297" y="-53" name="BS"/>
  <anchor x="297" y="-53" name="L"/>
  <anchor x="297" y="495" name="U"/>
  <anchor x="288" y="-53" name="BD"/>
  <outline>
    <contour>
      <point x="396" y="300" type="curve"/>
      <point x="372" y="331"/>
      <point x="337" y="352"/>
      <point x="297" y="352" type="curve" smooth="yes"/>
      <point x="255" y="352"/>
      <point x="217" y="331"/>
      <point x="195" y="300" type="curve"/>
      <point x="225" y="280"/>
      <point x="259" y="268"/>
      <point x="297" y="268" type="curve" smooth="yes"/>
      <point x="333" y="268"/>
      <point x="366" y="280"/>
    </contour>
    <contour>
      <point x="420" y="209" type="curve" smooth="yes"/>
      <point x="420" y="210" type="line"/>
      <point x="378" y="181"/>
      <point x="333" y="175"/>
      <point x="297" y="175" type="curve" smooth="yes"/>
      <point x="259" y="175"/>
      <point x="213" y="181"/>
      <point x="169" y="211" type="curve"/>
      <point x="169" y="210" type="line" smooth="yes"/>
      <point x="169" y="180"/>
      <point x="201" y="91"/>
      <point x="294" y="91" type="curve" smooth="yes"/>
      <point x="387" y="91"/>
      <point x="420" y="180"/>
    </contour>
    <contour>
      <point x="535" y="222" type="curve" smooth="yes"/>
      <point x="535" y="87"/>
      <point x="429" y="-23"/>
      <point x="297" y="-23" type="curve" smooth="yes"/>
      <point x="162" y="-23"/>
      <point x="55" y="87"/>
      <point x="55" y="222" type="curve" smooth="yes"/>
      <point x="55" y="355"/>
      <point x="162" y="466"/>
      <point x="294" y="466" type="curve" smooth="yes"/>
      <point x="429" y="466"/>
      <point x="535" y="355"/>
    </contour>
  </outline>
</glyph>
<glyph name="u108F" format="2">
  <advance width="325"/>
  <unicode hex="108F"/>
  <outline>
    <contour>
      <point x="205" y="357" type="curve" smooth="yes"/>
      <point x="205" y="378"/>
      <point x="189" y="399"/>
      <point x="162" y="399" type="curve" smooth="yes"/>
      <point x="136" y="399"/>
      <point x="117" y="378"/>
      <point x="117" y="357" type="curve" smooth="yes"/>
      <point x="117" y="333"/>
      <point x="136" y="310"/>
      <point x="162" y="310" type="curve" smooth="yes"/>
      <point x="189" y="310"/>
      <point x="205" y="336"/>
    </contour>
    <contour>
      <point x="273" y="357" type="curve" smooth="yes"/>
      <point x="273" y="297"/>
      <point x="220" y="247"/>
      <point x="162" y="247" type="curve" smooth="yes"/>
      <point x="102" y="247"/>
      <point x="51" y="297"/>
      <point x="51" y="357" type="curve" smooth="yes"/>
      <point x="51" y="417"/>
      <point x="102" y="466"/>
      <point x="162" y="466" type="curve" smooth="yes"/>
      <point x="220" y="466"/>
      <point x="273" y="417"/>
    </contour>
    <contour>
      <point x="205" y="102" type="curve" smooth="yes"/>
      <point x="205" y="123"/>
      <point x="189" y="144"/>
      <point x="162" y="144" type="curve" smooth="yes"/>
      <point x="136" y="144"/>
      <point x="117" y="123"/>
      <point x="117" y="102" type="curve" smooth="yes"/>
      <point x="117" y="78"/>
      <point x="136" y="55"/>
      <point x="162" y="55" type="curve" smooth="yes"/>
      <point x="189" y="55"/>
      <point x="205" y="81"/>
    </contour>
    <contour>
      <point x="273" y="102" type="curve" smooth="yes"/>
      <point x="273" y="42"/>
      <point x="220" y="-8"/>
      <point x="162" y="-8" type="curve" smooth="yes"/>
      <point x="148" y="-8"/>
      <point x="135" y="-5"/>
      <point x="123" y="0" type="curve"/>
      <point x="129" y="-44"/>
      <point x="166" y="-108"/>
      <point x="198" y="-128" type="curve"/>
      <point x="183" y="-143" type="line"/>
      <point x="142" y="-126"/>
      <point x="51" y="-21"/>
      <point x="51" y="87" type="curve" smooth="yes"/>
      <point x="51" y="102" type="line" smooth="yes"/>
      <point x="51" y="162"/>
      <point x="102" y="211"/>
      <point x="162" y="211" type="curve" smooth="yes"/>
      <point x="220" y="211"/>
      <point x="273" y="162"/>
    </contour>
  </outline>
</glyph>
<glyph name="u1090" format="2">
  <advance width="592"/>
  <unicode hex="1090"/>
  <anchor x="294" y="-15" name="BS"/>
  <anchor x="294" y="-15" name="L"/>
  <anchor x="294" y="555" name="U"/>
  <anchor x="283" y="-53" name="BD"/>
  <outline>
    <contour>
      <point x="423" y="-227" type="curve" smooth="yes"/>
      <point x="423" y="222" type="line" smooth="yes"/>
      <point x="423" y="297"/>
      <point x="368" y="353"/>
      <point x="295" y="353" type="curve" smooth="yes"/>
      <point x="224" y="353"/>
      <point x="168" y="297"/>
      <point x="168" y="222" type="curve" smooth="yes"/>
      <point x="168" y="-227" type="line" smooth="yes"/>
      <point x="168" y="-304"/>
      <point x="224" y="-358"/>
      <point x="295" y="-358" type="curve" smooth="yes"/>
      <point x="368" y="-358"/>
      <point x="423" y="-304"/>
    </contour>
    <contour>
      <point x="537" y="-230" type="line" smooth="yes"/>
      <point x="537" y="-349"/>
      <point x="451" y="-471"/>
      <point x="295" y="-471" type="curve" smooth="yes"/>
      <point x="142" y="-471"/>
      <point x="55" y="-349"/>
      <point x="55" y="-230" type="curve" smooth="yes"/>
      <point x="55" y="222" type="line" smooth="yes"/>
      <point x="55" y="339"/>
      <point x="142" y="466"/>
      <point x="295" y="466" type="curve" smooth="yes"/>
      <point x="451" y="466"/>
      <point x="537" y="339"/>
      <point x="537" y="222" type="curve" smooth="yes"/>
    </contour>
  </outline>
</glyph>
<glyph name="uA9F1" format="2">
  <advance width="637"/>
  <unicode hex="A9F1"/>
  <outline>
    <contour>
      <point x="197" y="560" type="curve" smooth="yes"/>
      <point x="197" y="577"/>
      <point x="183" y="591"/>
      <point x="166" y="591" type="curve" smooth="yes"/>
      <point x="149" y="591"/>
      <point x="135" y="577"/>
      <point x="135" y="560" type="curve" smooth="yes"/>
      <point x="135" y="543"/>
      <point x="149" y="529"/>
      <point x="166" y="529" type="curve" smooth="yes"/>
      <point x="183" y="529"/>
      <point x="197" y="543"/>
    </contour>
    <contour>
      <point x="582" y="579" type="curve" smooth="yes"/>
      <point x="582" y="519"/>
      <point x="548" y="471"/>
      <point x="487" y="447" type="curve"/>
      <point x="430" y="539" type="line"/>
      <point x="462" y="550"/>
      <point x="471" y="563"/>
      <point x="471" y="579" type="curve" smooth="yes"/>
      <point x="471" y="608"/>
      <point x="408" y="651"/>
      <point x="320" y="651" type="curve" smooth="yes"/>
      <point x="291" y="651"/>
      <point x="259" y="647"/>
      <point x="233" y="637" type="curve"/>
      <point x="254" y="619"/>
      <point x="269" y="594"/>
      <point x="269" y="560" type="curve" smooth="yes"/>
      <point x="269" y="504"/>
      <point x="223" y="458"/>
      <point x="166" y="458" type="curve" smooth="yes"/>
      <point x="99" y="458"/>
      <point x="55" y="503"/>
      <point x="55" y="576" type="curve" smooth="yes"/>
      <point x="55" y="688"/>
      <point x="173" y="762"/>
      <point x="320" y="762" type="curve" smooth="yes"/>
      <point x="467" y="762"/>
      <point x="582" y="691"/>
    </contour>
    <contour>
      <point x="243" y="276" type="curve" smooth="yes"/>
      <point x="243" y="293"/>
      <point x="229" y="307"/>
      <point x="212" y="307" type="curve" smooth="yes"/>
      <point x="195" y="307"/>
      <point x="181" y="293"/>
      <point x="181" y="276" type="curve" smooth="yes"/>
      <point x="181" y="259"/>
      <point x="195" y="245"/>
      <point x="212" y="245" type="curve" smooth="yes"/>
      <point x="229" y="245"/>
      <point x="243" y="259"/>
    </contour>
    <contour>
      <point x="561" y="-23" type="line"/>
      <point x="366" y="-23" type="line"/>
      <point x="366" y="131" type="line" smooth="yes"/>
      <point x="366" y="193"/>
      <point x="426" y="221"/>
      <point x="426" y="289" type="curve" smooth="yes"/>
      <point x="426" y="320"/>
      <point x="394" y="357"/>
      <point x="322" y="357" type="curve" smooth="yes"/>
      <point x="312" y="357"/>
      <point x="295" y="356"/>
      <point x="283" y="353" type="curve"/>
      <point x="305" y="336"/>
      <point x="316" y="305"/>
      <point x="316" y="276" type="curve" smooth="yes"/>
      <point x="316" y="219"/>
      <point x="271" y="172"/>
      <point x="212" y="172" type="curve" smooth="yes"/>
      <point x="151" y="172"/>
      <point x="98" y="211"/>
      <point x="98" y="294" type="curve" smooth="yes"/>
      <point x="98" y="369"/>
      <point x="178" y="468"/>
      <point x="322" y="468" type="curve" smooth="yes"/>
      <point x="466" y="468"/>
      <point x="539" y="369"/>
      <point x="539" y="289" type="curve" smooth="yes"/>
      <point x="539" y="221"/>
      <point x="479" y="194"/>
      <point x="479" y="132" type="curve" smooth="yes"/>
      <point x="479" y="87" type="line"/>
      <point x="561" y="87" type="line"/>
    </contour>
  </outline>
</glyph>
<glyph name="uA9F2" format="2">
  <advance width="595"/>
  <unicode hex="A9F2"/>
  <outline>
    <contour>
      <point x="540" y="753" type="line"/>
      <point x="540" y="702" type="line" smooth="yes"/>
      <point x="540" y="656"/>
      <point x="529" y="616"/>
      <point x="511" y="582" type="curve"/>
      <point x="529" y="548"/>
      <point x="540" y="503"/>
      <point x="540" y="459" type="curve" smooth="yes"/>
      <point x="540" y="334"/>
      <point x="484" y="269"/>
      <point x="449" y="269" type="curve" smooth="yes"/>
      <point x="423" y="269"/>
      <point x="409" y="348"/>
      <point x="297" y="348" type="curve" smooth="yes"/>
      <point x="222" y="348"/>
      <point x="168" y="297"/>
      <point x="168" y="222" type="curve" smooth="yes"/>
      <point x="168" y="147"/>
      <point x="222" y="90"/>
      <point x="297" y="90" type="curve" smooth="yes"/>
      <point x="352" y="90"/>
      <point x="390" y="117"/>
      <point x="413" y="158" type="curve"/>
      <point x="508" y="97" type="line"/>
      <point x="468" y="25"/>
      <point x="384" y="-23"/>
      <point x="297" y="-23" type="curve" smooth="yes"/>
      <point x="160" y="-23"/>
      <point x="55" y="85"/>
      <point x="55" y="222" type="curve" smooth="yes"/>
      <point x="55" y="359"/>
      <point x="158" y="459"/>
      <point x="294" y="459" type="curve"/>
      <point x="157" y="459"/>
      <point x="55" y="553"/>
      <point x="55" y="702" type="curve" smooth="yes"/>
      <point x="55" y="753" type="line"/>
      <point x="168" y="753" type="line"/>
      <point x="168" y="702" type="line" smooth="yes"/>
      <point x="168" y="623"/>
      <point x="221" y="570"/>
      <point x="297" y="570" type="curve" smooth="yes"/>
      <point x="375" y="570"/>
      <point x="427" y="623"/>
      <point x="427" y="702" type="curve" smooth="yes"/>
      <point x="427" y="753" type="line"/>
    </contour>
    <contour>
      <point x="300" y="459" type="curve"/>
      <point x="355" y="459"/>
      <point x="393" y="444"/>
      <point x="425" y="420" type="curve"/>
      <point x="430" y="425"/>
      <point x="431" y="444"/>
      <point x="431" y="459" type="curve" smooth="yes"/>
      <point x="431" y="475"/>
      <point x="428" y="488"/>
      <point x="424" y="493" type="curve"/>
      <point x="386" y="471"/>
      <point x="346" y="459"/>
    </contour>
  </outline>
</glyph>
<glyph name="uA9F4" format="2">
  <advance width="597"/>
  <unicode hex="A9F4"/>
  <outline>
    <contour>
      <point x="542" y="115" type="line"/>
      <point x="504" y="30"/>
      <point x="418" y="-23"/>
      <point x="302" y="-23" type="curve" smooth="yes"/>
      <point x="152" y="-23"/>
      <point x="55" y="62"/>
      <point x="55" y="166" type="curve" smooth="yes"/>
      <point x="55" y="294"/>
      <point x="152" y="357"/>
      <point x="292" y="357" type="curve" smooth="yes"/>
      <point x="342" y="357"/>
      <point x="371" y="336"/>
      <point x="397" y="336" type="curve" smooth="yes"/>
      <point x="412" y="336"/>
      <point x="417" y="345"/>
      <point x="417" y="369" type="curve" smooth="yes"/>
      <point x="417" y="393"/>
      <point x="412" y="402"/>
      <point x="397" y="402" type="curve" smooth="yes"/>
      <point x="373" y="402"/>
      <point x="342" y="381"/>
      <point x="292" y="381" type="curve" smooth="yes"/>
      <point x="152" y="381"/>
      <point x="55" y="444"/>
      <point x="55" y="569" type="curve" smooth="yes"/>
      <point x="55" y="675"/>
      <point x="152" y="759"/>
      <point x="302" y="759" type="curve" smooth="yes"/>
      <point x="416" y="759"/>
      <point x="510" y="703"/>
      <point x="541" y="616" type="curve"/>
      <point x="435" y="576" type="line"/>
      <point x="416" y="630"/>
      <point x="345" y="646"/>
      <point x="302" y="646" type="curve" smooth="yes"/>
      <point x="226" y="646"/>
      <point x="168" y="619"/>
      <point x="168" y="569" type="curve" smooth="yes"/>
      <point x="168" y="523"/>
      <point x="219" y="494"/>
      <point x="292" y="494" type="curve" smooth="yes"/>
      <point x="358" y="494"/>
      <point x="378" y="523"/>
      <point x="433" y="523" type="curve" smooth="yes"/>
      <point x="490" y="523"/>
      <point x="530" y="448"/>
      <point x="530" y="369" type="curve" smooth="yes"/>
      <point x="530" y="290"/>
      <point x="490" y="215"/>
      <point x="433" y="215" type="curve" smooth="yes"/>
      <point x="378" y="215"/>
      <point x="358" y="244"/>
      <point x="292" y="244" type="curve" smooth="yes"/>
      <point x="220" y="244"/>
      <point x="168" y="225"/>
      <point x="168" y="166" type="curve" smooth="yes"/>
      <point x="168" y="123"/>
      <point x="225" y="90"/>
      <point x="302" y="90" type="curve" smooth="yes"/>
      <point x="362" y="90"/>
      <point x="408" y="107"/>
      <point x="442" y="162" type="curve"/>
    </contour>
  </outline>
</glyph>
<glyph name="uA9F9" format="2">
  <advance width="830"/>
  <unicode hex="A9F9"/>
  <outline>
    <contour>
      <point x="191" y="338" type="line"/>
      <point x="176" y="306"/>
      <point x="168" y="259"/>
      <point x="168" y="224" type="curve" smooth="yes"/>
      <point x="168" y="130"/>
      <point x="204" y="100"/>
      <point x="235" y="100" type="curve" smooth="yes"/>
      <point x="294" y="100"/>
      <point x="362" y="154"/>
      <point x="371" y="226" type="curve" smooth="yes"/>
      <point x="371" y="229"/>
      <point x="371" y="231"/>
      <point x="371" y="234" type="curve" smooth="yes"/>
      <point x="371" y="375"/>
      <point x="447" y="466"/>
      <point x="572" y="466" type="curve" smooth="yes"/>
      <point x="699" y="466"/>
      <point x="775" y="355"/>
      <point x="775" y="214" type="curve" smooth="yes"/>
      <point x="775" y="69"/>
      <point x="710" y="-23"/>
      <point x="586" y="-23" type="curve" smooth="yes"/>
      <point x="510" y="-23"/>
      <point x="450" y="15"/>
      <point x="413" y="75" type="curve"/>
      <point x="368" y="24"/>
      <point x="305" y="-14"/>
      <point x="235" y="-14" type="curve" smooth="yes"/>
      <point x="135" y="-14"/>
      <point x="55" y="83"/>
      <point x="55" y="224" type="curve" smooth="yes"/>
      <point x="55" y="280"/>
      <point x="64" y="341"/>
      <point x="86" y="382" type="curve"/>
    </contour>
    <contour>
      <point x="664" y="214" type="curve" smooth="yes"/>
      <point x="664" y="304"/>
      <point x="627" y="355"/>
      <point x="572" y="355" type="curve" smooth="yes"/>
      <point x="534" y="355"/>
      <point x="482" y="330"/>
      <point x="482" y="234" type="curve" smooth="yes"/>
      <point x="482" y="124"/>
      <point x="530" y="88"/>
      <point x="586" y="88" type="curve" smooth="yes"/>
      <point x="623" y="88"/>
      <point x="664" y="123"/>
    </contour>
  </outline>
</glyph>
<glyph name="uAA60" format="2">
  <advance width="961"/>
  <unicode hex="AA60"/>
  <anchor x="0" y="0" name="_R"/>
  <anchor x="664" y="-53" name="BS"/>
  <anchor x="664" y="-53" name="L"/>
  <anchor x="491" y="-53" name="BD"/>
  <anchor x="664" y="495" name="U"/>
  <outline>
    <contour>
      <point x="784" y="229" type="curve"/>
      <point x="749" y="222"/>
      <point x="724" y="206"/>
      <point x="703" y="183" type="curve" smooth="yes"/>
      <point x="680" y="158"/>
      <point x="668" y="121"/>
      <point x="660" y="91" type="curve"/>
      <point x="726" y="94"/>
      <point x="786" y="150"/>
    </contour>
    <contour>
      <point x="906" y="222" type="curve" smooth="yes"/>
      <point x="906" y="87"/>
      <point x="795" y="-23"/>
      <point x="664" y="-23" type="curve" smooth="yes"/>
      <point x="627" y="-23"/>
      <point x="593" y="-18"/>
      <point x="567" y="3" type="curve"/>
      <point x="565" y="16"/>
      <point x="564" y="29"/>
      <point x="564" y="41" type="curve" smooth="yes"/>
      <point x="564" y="116"/>
      <point x="596" y="181"/>
      <point x="637" y="237" type="curve" smooth="yes"/>
      <point x="664" y="274"/>
      <point x="706" y="298"/>
      <point x="754" y="313" type="curve"/>
      <point x="731" y="336"/>
      <point x="699" y="352"/>
      <point x="664" y="352" type="curve" smooth="yes"/>
      <point x="631" y="352"/>
      <point x="585" y="346"/>
      <point x="529" y="306" type="curve"/>
      <point x="540" y="276"/>
      <point x="544" y="247"/>
      <point x="544" y="207" type="curve" smooth="yes"/>
      <point x="544" y="111"/>
      <point x="526" y="40"/>
      <point x="454" y="-23" type="curve"/>
      <point x="388" y="70" type="line"/>
      <point x="420" y="113"/>
      <point x="430" y="132"/>
      <point x="430" y="207" type="curve" smooth="yes"/>
      <point x="430" y="276"/>
      <point x="376" y="352"/>
      <point x="300" y="352" type="curve" smooth="yes"/>
      <point x="232" y="352"/>
      <point x="169" y="292"/>
      <point x="169" y="207" type="curve" smooth="yes"/>
      <point x="169" y="132"/>
      <point x="179" y="113"/>
      <point x="211" y="70" type="curve"/>
      <point x="145" y="-23" type="line"/>
      <point x="73" y="40"/>
      <point x="55" y="111"/>
      <point x="55" y="207" type="curve" smooth="yes"/>
      <point x="55" y="343"/>
      <point x="160" y="466"/>
      <point x="300" y="466" type="curve" smooth="yes"/>
      <point x="380" y="466"/>
      <point x="425" y="433"/>
      <point x="464" y="398" type="curve"/>
      <point x="515" y="438"/>
      <point x="567" y="466"/>
      <point x="664" y="466" type="curve" smooth="yes"/>
      <point x="795" y="466"/>
      <point x="906" y="355"/>
    </contour>
  </outline>
</glyph>
<glyph name="uAA61" format="2">
  <advance width="970"/>
  <unicode hex="AA61"/>
  <anchor x="0" y="0" name="_R"/>
  <anchor x="676" y="-53" name="BS"/>
  <anchor x="676" y="-53" name="L"/>
  <anchor x="487" y="-53" name="BD"/>
  <anchor x="676" y="495" name="U"/>
  <outline>
    <contour>
      <point x="801" y="222" type="curve" smooth="yes"/>
      <point x="801" y="291"/>
      <point x="744" y="352"/>
      <point x="676" y="352" type="curve" smooth="yes"/>
      <point x="606" y="352"/>
      <point x="549" y="291"/>
      <point x="549" y="222" type="curve" smooth="yes"/>
      <point x="549" y="151"/>
      <point x="606" y="91"/>
      <point x="673" y="91" type="curve" smooth="yes"/>
      <point x="744" y="91"/>
      <point x="801" y="151"/>
    </contour>
    <contour>
      <point x="915" y="222" type="curve" smooth="yes"/>
      <point x="915" y="87"/>
      <point x="808" y="-23"/>
      <point x="676" y="-23" type="curve" smooth="yes"/>
      <point x="612" y="-23"/>
      <point x="556" y="1"/>
      <point x="513" y="40" type="curve"/>
      <point x="498" y="15"/>
      <point x="480" y="-6"/>
      <point x="459" y="-23" type="curve"/>
      <point x="393" y="70" type="line"/>
      <point x="428" y="108"/>
      <point x="435" y="164"/>
      <point x="435" y="208" type="curve" smooth="yes"/>
      <point x="435" y="312"/>
      <point x="354" y="352"/>
      <point x="304" y="352" type="curve" smooth="yes"/>
      <point x="228" y="352"/>
      <point x="181" y="310"/>
      <point x="181" y="277" type="curve" smooth="yes"/>
      <point x="181" y="206"/>
      <point x="304" y="214"/>
      <point x="304" y="102" type="curve" smooth="yes"/>
      <point x="304" y="17"/>
      <point x="243" y="-23"/>
      <point x="171" y="-23" type="curve" smooth="yes"/>
      <point x="150" y="-23"/>
      <point x="96" y="-15"/>
      <point x="67" y="36" type="curve"/>
      <point x="151" y="87" type="line"/>
      <point x="157" y="80"/>
      <point x="164" y="76"/>
      <point x="173" y="76" type="curve" smooth="yes"/>
      <point x="194" y="76"/>
      <point x="205" y="83"/>
      <point x="205" y="102" type="curve" smooth="yes"/>
      <point x="205" y="157"/>
      <point x="67" y="124"/>
      <point x="67" y="277" type="curve" smooth="yes"/>
      <point x="67" y="362"/>
      <point x="159" y="466"/>
      <point x="304" y="466" type="curve" smooth="yes"/>
      <point x="376" y="466"/>
      <point x="444" y="433"/>
      <point x="489" y="376" type="curve"/>
      <point x="532" y="432"/>
      <point x="597" y="466"/>
      <point x="673" y="466" type="curve" smooth="yes"/>
      <point x="808" y="466"/>
      <point x="915" y="355"/>
    </contour>
  </outline>
</glyph>
<glyph name="uAA64" format="2">
  <advance width="966"/>
  <unicode hex="AA64"/>
  <anchor x="0" y="0" name="_R"/>
  <anchor x="670" y="-53" name="BS"/>
  <anchor x="670" y="-53" name="L"/>
  <anchor x="488" y="-53" name="BD"/>
  <anchor x="670" y="495" name="U"/>
  <outline>
    <contour>
      <point x="797" y="222" type="curve" smooth="yes"/>
      <point x="797" y="291"/>
      <point x="740" y="352"/>
      <point x="673" y="352" type="curve" smooth="yes"/>
      <point x="596" y="352"/>
      <point x="545" y="290"/>
      <point x="545" y="216" type="curve" smooth="yes"/>
      <point x="545" y="152"/>
      <point x="604" y="91"/>
      <point x="670" y="91" type="curve" smooth="yes"/>
      <point x="742" y="91"/>
      <point x="797" y="151"/>
    </contour>
    <contour>
      <point x="911" y="222" type="curve" smooth="yes"/>
      <point x="911" y="87"/>
      <point x="805" y="-23"/>
      <point x="673" y="-23" type="curve" smooth="yes"/>
      <point x="604" y="-23"/>
      <point x="535" y="13"/>
      <point x="488" y="69" type="curve"/>
      <point x="443" y="13"/>
      <point x="376" y="-23"/>
      <point x="300" y="-23" type="curve" smooth="yes"/>
      <point x="160" y="-23"/>
      <point x="55" y="99"/>
      <point x="55" y="235" type="curve" smooth="yes"/>
      <point x="55" y="331"/>
      <point x="73" y="401"/>
      <point x="145" y="465" type="curve"/>
      <point x="211" y="372" type="line"/>
      <point x="179" y="329"/>
      <point x="169" y="309"/>
      <point x="169" y="236" type="curve" smooth="yes"/>
      <point x="169" y="151"/>
      <point x="232" y="91"/>
      <point x="300" y="91" type="curve" smooth="yes"/>
      <point x="384" y="91"/>
      <point x="430" y="167"/>
      <point x="430" y="236" type="curve" smooth="yes"/>
      <point x="430" y="311"/>
      <point x="420" y="330"/>
      <point x="388" y="373" type="curve"/>
      <point x="454" y="466" type="line"/>
      <point x="477" y="445"/>
      <point x="496" y="423"/>
      <point x="509" y="401" type="curve"/>
      <point x="552" y="441"/>
      <point x="607" y="466"/>
      <point x="670" y="466" type="curve" smooth="yes"/>
      <point x="806" y="466"/>
      <point x="911" y="355"/>
    </contour>
  </outline>
</glyph>
<glyph name="uAA68" format="2">
  <advance width="960"/>
  <unicode hex="AA68"/>
  <anchor x="0" y="0" name="_R"/>
  <anchor x="655" y="-53" name="BS"/>
  <anchor x="655" y="-53" name="L"/>
  <anchor x="655" y="495" name="U"/>
  <anchor x="645" y="-53" name="BD"/>
  <outline>
    <contour>
      <point x="357" y="221" type="curve" smooth="yes"/>
      <point x="357" y="186"/>
      <point x="329" y="159"/>
      <point x="294" y="159" type="curve" smooth="yes"/>
      <point x="261" y="159"/>
      <point x="233" y="186"/>
      <point x="233" y="221" type="curve" smooth="yes"/>
      <point x="233" y="257"/>
      <point x="261" y="285"/>
      <point x="294" y="285" type="curve" smooth="yes"/>
      <point x="329" y="285"/>
      <point x="357" y="257"/>
    </contour>
    <contour>
      <point x="421" y="222" type="curve" smooth="yes"/>
      <point x="421" y="291"/>
      <point x="364" y="352"/>
      <point x="297" y="352" type="curve" smooth="yes"/>
      <point x="226" y="352"/>
      <point x="169" y="291"/>
      <point x="169" y="222" type="curve" smooth="yes"/>
      <point x="169" y="151"/>
      <point x="226" y="91"/>
      <point x="294" y="91" type="curve" smooth="yes"/>
      <point x="363" y="91"/>
      <point x="421" y="151"/>
    </contour>
    <contour>
      <point x="783" y="229" type="curve"/>
      <point x="748" y="221"/>
      <point x="724" y="206"/>
      <point x="703" y="183" type="curve" smooth="yes"/>
      <point x="680" y="158"/>
      <point x="668" y="126"/>
      <point x="659" y="91" type="curve"/>
      <point x="726" y="94"/>
      <point x="785" y="150"/>
    </contour>
    <contour>
      <point x="901" y="222" type="curve" smooth="yes"/>
      <point x="901" y="87"/>
      <point x="791" y="-23"/>
      <point x="655" y="-23" type="curve" smooth="yes"/>
      <point x="624" y="-23"/>
      <point x="593" y="-18"/>
      <point x="565" y="3" type="curve"/>
      <point x="564" y="14"/>
      <point x="564" y="25"/>
      <point x="564" y="36" type="curve" smooth="yes"/>
      <point x="564" y="110"/>
      <point x="584" y="177"/>
      <point x="627" y="228" type="curve" smooth="yes"/>
      <point x="657" y="265"/>
      <point x="699" y="294"/>
      <point x="752" y="313" type="curve"/>
      <point x="727" y="340"/>
      <point x="695" y="352"/>
      <point x="655" y="352" type="curve" smooth="yes"/>
      <point x="622" y="352"/>
      <point x="578" y="340"/>
      <point x="522" y="300" type="curve"/>
      <point x="531" y="273"/>
      <point x="535" y="253"/>
      <point x="535" y="222" type="curve" smooth="yes"/>
      <point x="535" y="87"/>
      <point x="429" y="-23"/>
      <point x="297" y="-23" type="curve" smooth="yes"/>
      <point x="162" y="-23"/>
      <point x="55" y="87"/>
      <point x="55" y="222" type="curve" smooth="yes"/>
      <point x="55" y="355"/>
      <point x="162" y="466"/>
      <point x="294" y="466" type="curve" smooth="yes"/>
      <point x="360" y="466"/>
      <point x="414" y="442"/>
      <point x="464" y="398" type="curve"/>
      <point x="514" y="438"/>
      <point x="572" y="466"/>
      <point x="655" y="466" type="curve" smooth="yes"/>
      <point x="794" y="466"/>
      <point x="901" y="355"/>
    </contour>
  </outline>
</glyph>
<glyph name="uAA6A" format="2">
  <advance width="960"/>
  <unicode hex="AA6A"/>
  <anchor x="0" y="0" name="_R"/>
  <anchor x="664" y="-53" name="BS"/>
  <anchor x="664" y="-53" name="L"/>
  <anchor x="479" y="-53" name="BD"/>
  <anchor x="664" y="495" name="U"/>
  <outline>
    <contour>
      <point x="421" y="222" type="curve" smooth="yes"/>
      <point x="421" y="291"/>
      <point x="364" y="352"/>
      <point x="297" y="352" type="curve" smooth="yes"/>
      <point x="226" y="352"/>
      <point x="169" y="291"/>
      <point x="169" y="222" type="curve" smooth="yes"/>
      <point x="169" y="151"/>
      <point x="226" y="91"/>
      <point x="294" y="91" type="curve" smooth="yes"/>
      <point x="363" y="91"/>
      <point x="421" y="151"/>
    </contour>
    <contour>
      <point x="695" y="95" type="curve"/>
      <point x="683" y="113"/>
      <point x="658" y="140"/>
      <point x="637" y="154" type="curve" smooth="yes"/>
      <point x="613" y="170"/>
      <point x="571" y="184"/>
      <point x="540" y="187" type="curve"/>
      <point x="553" y="131"/>
      <point x="604" y="91"/>
      <point x="664" y="91" type="curve" smooth="yes"/>
      <point x="675" y="91"/>
      <point x="690" y="92"/>
    </contour>
    <contour>
      <point x="791" y="222" type="curve" smooth="yes"/>
      <point x="791" y="291"/>
      <point x="733" y="352"/>
      <point x="664" y="352" type="curve" smooth="yes"/>
      <point x="604" y="352"/>
      <point x="566" y="322"/>
      <point x="547" y="282" type="curve"/>
      <point x="603" y="278"/>
      <point x="660" y="255"/>
      <point x="697" y="226" type="curve" smooth="yes"/>
      <point x="730" y="200"/>
      <point x="751" y="175"/>
      <point x="769" y="148" type="curve"/>
      <point x="784" y="171"/>
      <point x="791" y="193"/>
    </contour>
    <contour>
      <point x="905" y="222" type="curve" smooth="yes"/>
      <point x="905" y="87"/>
      <point x="800" y="-23"/>
      <point x="664" y="-23" type="curve" smooth="yes"/>
      <point x="594" y="-23"/>
      <point x="519" y="11"/>
      <point x="479" y="64" type="curve"/>
      <point x="439" y="11"/>
      <point x="367" y="-23"/>
      <point x="297" y="-23" type="curve" smooth="yes"/>
      <point x="162" y="-23"/>
      <point x="55" y="87"/>
      <point x="55" y="222" type="curve" smooth="yes"/>
      <point x="55" y="355"/>
      <point x="162" y="466"/>
      <point x="294" y="466" type="curve" smooth="yes"/>
      <point x="370" y="466"/>
      <point x="435" y="434"/>
      <point x="479" y="377" type="curve"/>
      <point x="524" y="434"/>
      <point x="592" y="466"/>
      <point x="664" y="466" type="curve" smooth="yes"/>
      <point x="800" y="466"/>
      <point x="905" y="355"/>
    </contour>
  </outline>
</glyph>
<glyph name="uAA71" format="2">
  <advance width="976"/>
  <unicode hex="AA71"/>
  <anchor x="0" y="0" name="_R"/>
  <anchor x="676" y="-53" name="BS"/>
  <anchor x="676" y="-53" name="L"/>
  <anchor x="508" y="-53" name="BD"/>
  <anchor x="676" y="495" name="U"/>
  <outline>
    <contour>
      <point x="235" y="207" type="curve" smooth="yes"/>
      <point x="235" y="241"/>
      <point x="216" y="268"/>
      <point x="192" y="291" type="curve"/>
      <point x="177" y="267"/>
      <point x="169" y="238"/>
      <point x="169" y="207" type="curve" smooth="yes"/>
      <point x="169" y="160"/>
      <point x="184" y="135"/>
      <point x="205" y="111" type="curve"/>
      <point x="223" y="133"/>
      <point x="235" y="162"/>
    </contour>
    <contour>
      <point x="921" y="222" type="curve" smooth="yes"/>
      <point x="921" y="87"/>
      <point x="810" y="-23"/>
      <point x="676" y="-23" type="curve" smooth="yes"/>
      <point x="656" y="-23"/>
      <point x="625" y="-19"/>
      <point x="606" y="-11" type="curve"/>
      <point x="651" y="94" type="line"/>
      <point x="658" y="92"/>
      <point x="666" y="91"/>
      <point x="676" y="91" type="curve" smooth="yes"/>
      <point x="748" y="91"/>
      <point x="807" y="151"/>
      <point x="807" y="222" type="curve" smooth="yes"/>
      <point x="807" y="292"/>
      <point x="748" y="352"/>
      <point x="676" y="352" type="curve" smooth="yes"/>
      <point x="615" y="352"/>
      <point x="559" y="288"/>
      <point x="543" y="235" type="curve" smooth="yes"/>
      <point x="543" y="225"/>
      <point x="544" y="216"/>
      <point x="544" y="207" type="curve" smooth="yes"/>
      <point x="544" y="112"/>
      <point x="525" y="34"/>
      <point x="454" y="-23" type="curve"/>
      <point x="388" y="70" type="line"/>
      <point x="417" y="105"/>
      <point x="430" y="133"/>
      <point x="430" y="207" type="curve" smooth="yes"/>
      <point x="430" y="289"/>
      <point x="370" y="352"/>
      <point x="300" y="352" type="curve" smooth="yes"/>
      <point x="288" y="352"/>
      <point x="277" y="351"/>
      <point x="267" y="348" type="curve"/>
      <point x="303" y="307"/>
      <point x="328" y="255"/>
      <point x="328" y="208" type="curve" smooth="yes"/>
      <point x="328" y="55"/>
      <point x="214" y="-23"/>
      <point x="180" y="-23" type="curve"/>
      <point x="106" y="39"/>
      <point x="55" y="112"/>
      <point x="55" y="207" type="curve" smooth="yes"/>
      <point x="55" y="349"/>
      <point x="165" y="466"/>
      <point x="300" y="466" type="curve" smooth="yes"/>
      <point x="375" y="466"/>
      <point x="442" y="429"/>
      <point x="487" y="372" type="curve"/>
      <point x="550" y="441"/>
      <point x="610" y="466"/>
      <point x="676" y="466" type="curve" smooth="yes"/>
      <point x="810" y="466"/>
      <point x="921" y="355"/>
    </contour>
  </outline>
</glyph>
<glyph name="uAA77" format="2">
  <advance width="968"/>
  <unicode hex="AA77"/>
  <anchor x="265" y="-53" name="BS"/>
  <anchor x="298" y="-53" name="LL"/>
  <anchor x="756" y="-53" name="L"/>
  <anchor x="155" y="-53" name="BD"/>
  <anchor x="298" y="495" name="U"/>
  <anchor x="0" y="0" name="R"/>
  <outline>
    <contour>
      <point x="913" y="0" type="line"/>
      <point x="676" y="0" type="line"/>
      <point x="676" y="330" type="line"/>
      <point x="547" y="330" type="line"/>
      <point x="576" y="282"/>
      <point x="594" y="223"/>
      <point x="594" y="148" type="curve" smooth="yes"/>
      <point x="594" y="-356" type="line"/>
      <point x="661" y="-356" type="line"/>
      <point x="661" y="-471" type="line"/>
      <point x="480" y="-471" type="line"/>
      <point x="480" y="136" type="line" smooth="yes"/>
      <point x="480" y="297"/>
      <point x="362" y="352"/>
      <point x="298" y="352" type="curve" smooth="yes"/>
      <point x="238" y="352"/>
      <point x="169" y="313"/>
      <point x="169" y="222" type="curve" smooth="yes"/>
      <point x="169" y="151"/>
      <point x="229" y="91"/>
      <point x="298" y="91" type="curve" smooth="yes"/>
      <point x="322" y="91"/>
      <point x="344" y="96"/>
      <point x="362" y="105" type="curve"/>
      <point x="403" y="-4" type="line"/>
      <point x="370" y="-19"/>
      <point x="337" y="-23"/>
      <point x="298" y="-23" type="curve" smooth="yes"/>
      <point x="166" y="-23"/>
      <point x="55" y="87"/>
      <point x="55" y="222" type="curve" smooth="yes"/>
      <point x="55" y="323"/>
      <point x="128" y="433"/>
      <point x="245" y="460" type="curve"/>
      <point x="165" y="485"/>
      <point x="110" y="559"/>
      <point x="110" y="646" type="curve" smooth="yes"/>
      <point x="110" y="763"/>
      <point x="206" y="835"/>
      <point x="302" y="835" type="curve" smooth="yes"/>
      <point x="349" y="835"/>
      <point x="407" y="811"/>
      <point x="440" y="757" type="curve"/>
      <point x="375" y="703" type="line"/>
      <point x="362" y="724"/>
      <point x="333" y="748"/>
      <point x="302" y="748" type="curve" smooth="yes"/>
      <point x="251" y="748"/>
      <point x="196" y="712"/>
      <point x="196" y="646" type="curve" smooth="yes"/>
      <point x="196" y="577"/>
      <point x="267" y="537"/>
      <point x="299" y="537" type="curve"/>
      <point x="299" y="466" type="line"/>
      <point x="336" y="466"/>
      <point x="373" y="459"/>
      <point x="412" y="444" type="curve"/>
      <point x="782" y="444" type="line"/>
      <point x="782" y="114" type="line"/>
      <point x="913" y="114" type="line"/>
    </contour>
  </outline>
</glyph>
<glyph name="uAA78" format="2">
  <advance width="798"/>
  <unicode hex="AA78"/>
  <outline>
    <contour>
      <point x="222" y="224" type="curve" smooth="yes"/>
      <point x="222" y="141"/>
      <point x="189" y="78"/>
      <point x="115" y="32" type="curve"/>
      <point x="55" y="101" type="line"/>
      <point x="112" y="143"/>
      <point x="123" y="196"/>
      <point x="123" y="224" type="curve" smooth="yes"/>
      <point x="123" y="252"/>
      <point x="112" y="305"/>
      <point x="55" y="347" type="curve"/>
      <point x="115" y="416" type="line"/>
      <point x="189" y="370"/>
      <point x="222" y="307"/>
    </contour>
    <contour>
      <point x="556" y="406" type="line"/>
      <point x="510" y="332"/>
      <point x="447" y="299"/>
      <point x="364" y="299" type="curve" smooth="yes"/>
      <point x="281" y="299"/>
      <point x="218" y="332"/>
      <point x="172" y="406" type="curve"/>
      <point x="241" y="466" type="line"/>
      <point x="283" y="409"/>
      <point x="336" y="398"/>
      <point x="364" y="398" type="curve" smooth="yes"/>
      <point x="392" y="398"/>
      <point x="445" y="409"/>
      <point x="487" y="466" type="curve"/>
    </contour>
    <contour>
      <point x="877" y="630" type="curve"/>
      <point x="825" y="546" type="line"/>
      <point x="816" y="557"/>
      <point x="807" y="564"/>
      <point x="798" y="564" type="curve" smooth="yes"/>
      <point x="723" y="564"/>
      <point x="641" y="371"/>
      <point x="613" y="45" type="curve"/>
      <point x="487" y="-23" type="line"/>
      <point x="445" y="44"/>
      <point x="382" y="45"/>
      <point x="364" y="45" type="curve" smooth="yes"/>
      <point x="346" y="45"/>
      <point x="283" y="44"/>
      <point x="241" y="-23" type="curve"/>
      <point x="172" y="38" type="line"/>
      <point x="218" y="112"/>
      <point x="281" y="145"/>
      <point x="364" y="145" type="curve" smooth="yes"/>
      <point x="417" y="145"/>
      <point x="467" y="134"/>
      <point x="508" y="96" type="curve"/>
      <point x="541" y="457"/>
      <point x="651" y="681"/>
      <point x="798" y="681" type="curve" smooth="yes"/>
      <point x="825" y="681"/>
      <point x="856" y="664"/>
    </contour>
  </outline>
</glyph>
<glyph name="uAA7C" format="2">
  <advance width="55"/>
  <unicode hex="AA7C"/>
  <anchor x="-242" y="495" name="_U"/>
  <anchor x="-234" y="495" name="UM"/>
  <outline>
    <contour>
      <point x="0" y="587" type="line"/>
      <point x="-480" y="587" type="line"/>
      <point x="-480" y="697" type="line"/>
      <point x="0" y="697" type="line"/>
    </contour>
  </outline>
</glyph>
<glyph name="uAA7D" format="2">
  <advance width="507"/>
  <unicode hex="AA7D"/>
  <outline>
    <contour>
      <point x="451" y="277" type="line"/>
      <point x="451" y="163" type="line"/>
      <point x="55" y="163" type="line"/>
      <point x="55" y="277" type="line"/>
    </contour>
  </outline>
</glyph>
<glyph name="u1004.kinzi" format="2">
  <advance width="55"/>
  <anchor x="-37" y="495" name="_Y"/>
  <anchor x="-102" y="495" name="_U"/>
  <anchor x="-92" y="495" name="UM"/>
  <outline>
    <contour>
      <point x="0" y="603" type="line"/>
      <point x="-23" y="560"/>
      <point x="-67" y="543"/>
      <point x="-102" y="543" type="curve" smooth="yes"/>
      <point x="-164" y="543"/>
      <point x="-213" y="594"/>
      <point x="-213" y="655" type="curve" smooth="yes"/>
      <point x="-213" y="686"/>
      <point x="-202" y="713"/>
      <point x="-180" y="735" type="curve"/>
      <point x="-200" y="754"/>
      <point x="-213" y="780"/>
      <point x="-213" y="811" type="curve" smooth="yes"/>
      <point x="-213" y="881"/>
      <point x="-158" y="921"/>
      <point x="-99" y="921" type="curve" smooth="yes"/>
      <point x="-61" y="921"/>
      <point x="-33" y="901"/>
      <point x="-18" y="879" type="curve"/>
      <point x="-74" y="831" type="line"/>
      <point x="-79" y="839"/>
      <point x="-91" y="848"/>
      <point x="-102" y="848" type="curve" smooth="yes"/>
      <point x="-122" y="848"/>
      <point x="-140" y="833"/>
      <point x="-140" y="811" type="curve" smooth="yes"/>
      <point x="-140" y="791"/>
      <point x="-125" y="771"/>
      <point x="-102" y="771" type="curve" smooth="yes"/>
      <point x="-73" y="771"/>
      <point x="-24" y="751"/>
      <point x="0" y="708" type="curve"/>
      <point x="-60" y="676" type="line"/>
      <point x="-71" y="693"/>
      <point x="-83" y="697"/>
      <point x="-98" y="697" type="curve" smooth="yes"/>
      <point x="-117" y="697"/>
      <point x="-138" y="684"/>
      <point x="-138" y="656" type="curve" smooth="yes"/>
      <point x="-138" y="635"/>
      <point x="-121" y="616"/>
      <point x="-98" y="616" type="curve" smooth="yes"/>
      <point x="-84" y="616"/>
      <point x="-72" y="620"/>
      <point x="-60" y="639" type="curve"/>
    </contour>
  </outline>
</glyph>
<glyph name="u1005.med" format="2">
  <advance width="0"/>
  <anchor x="-238" y="-53" name="_BS"/>
  <anchor x="-585" y="-53" name="LLM"/>
  <anchor x="-238" y="-53" name="_BSM"/>
  <anchor x="107" y="-53" name="LM"/>
  <anchor x="556" y="-53" name="BSM"/>
  <outline>
    <contour>
      <point x="-271" y="-282" type="curve" smooth="yes"/>
      <point x="-271" y="-254"/>
      <point x="-283" y="-227"/>
      <point x="-298" y="-203" type="curve"/>
      <point x="-323" y="-223"/>
      <point x="-336" y="-249"/>
      <point x="-336" y="-282" type="curve" smooth="yes"/>
      <point x="-336" y="-313"/>
      <point x="-322" y="-341"/>
      <point x="-298" y="-360" type="curve"/>
      <point x="-283" y="-337"/>
      <point x="-271" y="-309"/>
    </contour>
    <contour>
      <point x="-141" y="-282" type="curve" smooth="yes"/>
      <point x="-141" y="-233.679"/>
      <point x="-179.456" y="-180"/>
      <point x="-231" y="-180" type="curve"/>
      <point x="-207" y="-215"/>
      <point x="-201" y="-251"/>
      <point x="-201" y="-282" type="curve" smooth="yes"/>
      <point x="-201" y="-309"/>
      <point x="-211" y="-351"/>
      <point x="-232" y="-384" type="curve"/>
      <point x="-179.47" y="-384"/>
      <point x="-141" y="-330.293"/>
    </contour>
    <contour>
      <point x="-54" y="-282" type="curve" smooth="yes"/>
      <point x="-54" y="-386"/>
      <point x="-136" y="-471"/>
      <point x="-237" y="-471" type="curve" smooth="yes"/>
      <point x="-340" y="-471"/>
      <point x="-423" y="-386"/>
      <point x="-423" y="-282" type="curve" smooth="yes"/>
      <point x="-423" y="-180"/>
      <point x="-340" y="-93"/>
      <point x="-240" y="-93" type="curve" smooth="yes"/>
      <point x="-136" y="-93"/>
      <point x="-54" y="-180"/>
    </contour>
  </outline>
</glyph>
<glyph name="u100D_u100E" format="2">
  <advance width="592"/>
  <anchor x="0" y="0" name="_R"/>
  <anchor x="588" y="-53" name="BS"/>
  <anchor x="84" y="-53" name="LL"/>
  <anchor x="489" y="-53" name="L"/>
  <anchor x="292" y="495" name="U"/>
  <anchor x="528" y="-53" name="BD"/>
  <outline>
    <contour>
      <point x="538" y="240" type="curve" smooth="yes"/>
      <point x="538" y="111"/>
      <point x="453" y="9"/>
      <point x="345" y="-17" type="curve"/>
      <point x="345" y="-356" type="line"/>
      <point x="415" y="-356" type="line"/>
      <point x="415" y="-471" type="line"/>
      <point x="246" y="-471" type="line"/>
      <point x="246" y="-18" type="line"/>
      <point x="127" y="0"/>
      <point x="55" y="89"/>
      <point x="55" y="181" type="curve" smooth="yes"/>
      <point x="55" y="318"/>
      <point x="178" y="301"/>
      <point x="178" y="358" type="curve" smooth="yes"/>
      <point x="178" y="366"/>
      <point x="170" y="372"/>
      <point x="159" y="372" type="curve" smooth="yes"/>
      <point x="142" y="372"/>
      <point x="133" y="366"/>
      <point x="124" y="351" type="curve"/>
      <point x="55" y="391" type="line"/>
      <point x="60" y="424"/>
      <point x="106" y="466"/>
      <point x="159" y="466" type="curve" smooth="yes"/>
      <point x="223" y="466"/>
      <point x="277" y="435"/>
      <point x="277" y="358" type="curve" smooth="yes"/>
      <point x="277" y="262"/>
      <point x="154" y="252"/>
      <point x="154" y="181" type="curve" smooth="yes"/>
      <point x="154" y="126"/>
      <point x="191" y="94"/>
      <point x="246" y="79" type="curve"/>
      <point x="246" y="102"/>
      <point x="241" y="111"/>
      <point x="231" y="118" type="curve"/>
      <point x="231" y="166" type="line"/>
      <point x="244" y="163"/>
      <point x="268" y="160"/>
      <point x="283" y="160" type="curve" smooth="yes"/>
      <point x="304" y="160"/>
      <point x="319" y="169"/>
      <point x="319" y="180" type="curve" smooth="yes"/>
      <point x="319" y="191"/>
      <point x="304" y="201"/>
      <point x="280" y="201" type="curve" smooth="yes"/>
      <point x="265" y="201"/>
      <point x="243" y="198"/>
      <point x="231" y="195" type="curve"/>
      <point x="231" y="253" type="line"/>
      <point x="246" y="258"/>
      <point x="267" y="264"/>
      <point x="288" y="264" type="curve" smooth="yes"/>
      <point x="337" y="264"/>
      <point x="391" y="243"/>
      <point x="391" y="180" type="curve" smooth="yes"/>
      <point x="391" y="136"/>
      <point x="350" y="122"/>
      <point x="337" y="114" type="curve"/>
      <point x="342" y="106"/>
      <point x="345" y="100"/>
      <point x="345" y="85" type="curve"/>
      <point x="389" y="104"/>
      <point x="439" y="146"/>
      <point x="439" y="240" type="curve" smooth="yes"/>
      <point x="439" y="303"/>
      <point x="427" y="348"/>
      <point x="390" y="385" type="curve"/>
      <point x="447" y="466" type="line"/>
      <point x="506" y="423"/>
      <point x="538" y="344"/>
    </contour>
  </outline>
</glyph>
<glyph name="u100E.med" format="2">
  <advance width="0"/>
  <anchor x="-232" y="-53" name="_BS"/>
  <anchor x="-559" y="-53" name="LLM"/>
  <anchor x="62" y="-53" name="BSM"/>
  <anchor x="120" y="-53" name="LM"/>
  <anchor x="-238" y="-53" name="_BSM"/>
  <outline>
    <contour>
      <point x="-44" y="-269" type="curve" smooth="yes"/>
      <point x="-44" y="-371"/>
      <point x="-120" y="-471"/>
      <point x="-232" y="-471" type="curve" smooth="yes"/>
      <point x="-344" y="-471"/>
      <point x="-415" y="-390"/>
      <point x="-415" y="-326" type="curve" smooth="yes"/>
      <point x="-415" y="-205"/>
      <point x="-310" y="-233"/>
      <point x="-310" y="-189" type="curve" smooth="yes"/>
      <point x="-310" y="-170"/>
      <point x="-326" y="-171"/>
      <point x="-329" y="-171" type="curve" smooth="yes"/>
      <point x="-341" y="-171"/>
      <point x="-349" y="-185"/>
      <point x="-350" y="-189" type="curve" smooth="yes"/>
      <point x="-415" y="-150" type="line"/>
      <point x="-410" y="-115"/>
      <point x="-368" y="-93"/>
      <point x="-329" y="-93" type="curve" smooth="yes"/>
      <point x="-283" y="-93"/>
      <point x="-232" y="-125"/>
      <point x="-232" y="-189" type="curve" smooth="yes"/>
      <point x="-232" y="-274"/>
      <point x="-328" y="-270"/>
      <point x="-328" y="-326" type="curve" smooth="yes"/>
      <point x="-328" y="-350"/>
      <point x="-289" y="-384"/>
      <point x="-232" y="-384" type="curve" smooth="yes"/>
      <point x="-203" y="-384"/>
      <point x="-133" y="-361"/>
      <point x="-133" y="-269" type="curve" smooth="yes"/>
      <point x="-133" y="-224"/>
      <point x="-139" y="-196"/>
      <point x="-166" y="-167" type="curve"/>
      <point x="-113" y="-93" type="line"/>
      <point x="-70" y="-128"/>
      <point x="-44" y="-181"/>
    </contour>
  </outline>
</glyph>
<glyph name="u100F.med" format="2">
  <advance width="0"/>
  <anchor x="-945" y="-53" name="LLM"/>
  <anchor x="-420" y="-53" name="_BD"/>
  <anchor x="56" y="-53" name="BSM"/>
  <anchor x="105" y="-53" name="LM"/>
  <anchor x="907" y="-53" name="_BSM"/>
  <anchor x="-410" y="-53" name="_BDM"/>
  <outline>
    <contour>
      <point x="-375" y="-195" type="curve"/>
      <point x="-387" y="-186"/>
      <point x="-400" y="-180"/>
      <point x="-417" y="-180" type="curve" smooth="yes"/>
      <point x="-432" y="-180"/>
      <point x="-444" y="-186"/>
      <point x="-459" y="-194" type="curve"/>
      <point x="-448" y="-218"/>
      <point x="-442" y="-246"/>
      <point x="-442" y="-282" type="curve" smooth="yes"/>
      <point x="-442" y="-301"/>
      <point x="-453" y="-330"/>
      <point x="-453" y="-342" type="curve" smooth="yes"/>
      <point x="-453" y="-374"/>
      <point x="-438" y="-383"/>
      <point x="-417" y="-383" type="curve" smooth="yes"/>
      <point x="-396" y="-383"/>
      <point x="-381" y="-374"/>
      <point x="-381" y="-342" type="curve" smooth="yes"/>
      <point x="-381" y="-330"/>
      <point x="-390" y="-301"/>
      <point x="-390" y="-282" type="curve" smooth="yes"/>
      <point x="-390" y="-247"/>
      <point x="-384" y="-219"/>
    </contour>
    <contour>
      <point x="-55" y="-282" type="curve" smooth="yes"/>
      <point x="-55" y="-386"/>
      <point x="-129" y="-471"/>
      <point x="-231" y="-471" type="curve" smooth="yes"/>
      <point x="-241" y="-471"/>
      <point x="-262" y="-469"/>
      <point x="-271" y="-465" type="curve"/>
      <point x="-241" y="-381" type="line" smooth="yes"/>
      <point x="-238" y="-382"/>
      <point x="-233" y="-383"/>
      <point x="-231" y="-383" type="curve" smooth="yes"/>
      <point x="-176" y="-383"/>
      <point x="-142" y="-337"/>
      <point x="-142" y="-282" type="curve" smooth="yes"/>
      <point x="-142" y="-229"/>
      <point x="-178" y="-180"/>
      <point x="-231" y="-180" type="curve" smooth="yes"/>
      <point x="-276" y="-180"/>
      <point x="-303" y="-230"/>
      <point x="-303" y="-282" type="curve" smooth="yes"/>
      <point x="-303" y="-319"/>
      <point x="-291" y="-335"/>
      <point x="-291" y="-369" type="curve" smooth="yes"/>
      <point x="-291" y="-440"/>
      <point x="-370" y="-471"/>
      <point x="-417" y="-471" type="curve" smooth="yes"/>
      <point x="-462" y="-471"/>
      <point x="-541" y="-440"/>
      <point x="-541" y="-369" type="curve" smooth="yes"/>
      <point x="-541" y="-332"/>
      <point x="-531" y="-319"/>
      <point x="-531" y="-282" type="curve" smooth="yes"/>
      <point x="-531" y="-229"/>
      <point x="-559" y="-180"/>
      <point x="-607" y="-180" type="curve" smooth="yes"/>
      <point x="-660" y="-180"/>
      <point x="-696" y="-229"/>
      <point x="-696" y="-282" type="curve" smooth="yes"/>
      <point x="-696" y="-337"/>
      <point x="-662" y="-383"/>
      <point x="-607" y="-383" type="curve" smooth="yes"/>
      <point x="-604" y="-383"/>
      <point x="-600" y="-382"/>
      <point x="-597" y="-381" type="curve" smooth="yes"/>
      <point x="-567" y="-465" type="line"/>
      <point x="-576" y="-470"/>
      <point x="-595" y="-471"/>
      <point x="-607" y="-471" type="curve" smooth="yes"/>
      <point x="-709" y="-471"/>
      <point x="-783" y="-386"/>
      <point x="-783" y="-282" type="curve" smooth="yes"/>
      <point x="-783" y="-180"/>
      <point x="-709" y="-93"/>
      <point x="-607" y="-93" type="curve" smooth="yes"/>
      <point x="-579" y="-93"/>
      <point x="-541" y="-101"/>
      <point x="-510" y="-128" type="curve"/>
      <point x="-483" y="-105"/>
      <point x="-452" y="-93"/>
      <point x="-417" y="-93" type="curve" smooth="yes"/>
      <point x="-381" y="-93"/>
      <point x="-349" y="-104"/>
      <point x="-322" y="-125" type="curve"/>
      <point x="-289" y="-101"/>
      <point x="-254" y="-93"/>
      <point x="-231" y="-93" type="curve" smooth="yes"/>
      <point x="-129" y="-93"/>
      <point x="-55" y="-180"/>
    </contour>
  </outline>
</glyph>
<glyph name="u100F_u100B" format="2">
  <advance width="1054"/>
  <anchor x="0" y="0" name="_R"/>
  <anchor x="1076" y="-53" name="BS"/>
  <anchor x="369" y="-53" name="LL"/>
  <anchor x="974" y="-53" name="L"/>
  <anchor x="771" y="495" name="U"/>
  <anchor x="1027" y="-53" name="BD"/>
  <outline>
    <contour>
      <point x="585" y="333" type="curve"/>
      <point x="572" y="343"/>
      <point x="546" y="352"/>
      <point x="531" y="352" type="curve" smooth="yes"/>
      <point x="515" y="352"/>
      <point x="489" y="344"/>
      <point x="474" y="334" type="curve"/>
      <point x="487" y="303"/>
      <point x="496" y="267"/>
      <point x="496" y="222" type="curve" smooth="yes"/>
      <point x="496" y="198"/>
      <point x="483" y="160"/>
      <point x="483" y="144" type="curve" smooth="yes"/>
      <point x="483" y="103"/>
      <point x="502" y="91"/>
      <point x="531" y="91" type="curve" smooth="yes"/>
      <point x="558" y="91"/>
      <point x="577" y="103"/>
      <point x="577" y="144" type="curve" smooth="yes"/>
      <point x="577" y="160"/>
      <point x="565" y="198"/>
      <point x="565" y="222" type="curve" smooth="yes"/>
      <point x="565" y="265"/>
      <point x="572" y="302"/>
    </contour>
    <contour>
      <point x="999" y="222" type="curve" smooth="yes"/>
      <point x="999" y="87"/>
      <point x="904" y="-23"/>
      <point x="771" y="-23" type="curve" smooth="yes"/>
      <point x="755" y="-23"/>
      <point x="732" y="-22"/>
      <point x="720" y="-17" type="curve"/>
      <point x="757" y="93" type="line"/>
      <point x="761" y="92"/>
      <point x="766" y="91"/>
      <point x="771" y="91" type="curve" smooth="yes"/>
      <point x="843" y="91"/>
      <point x="885" y="151"/>
      <point x="885" y="222" type="curve" smooth="yes"/>
      <point x="885" y="291"/>
      <point x="843" y="352"/>
      <point x="771" y="352" type="curve" smooth="yes"/>
      <point x="711" y="352"/>
      <point x="678" y="289"/>
      <point x="678" y="222" type="curve" smooth="yes"/>
      <point x="678" y="174"/>
      <point x="694" y="152"/>
      <point x="694" y="109" type="curve" smooth="yes"/>
      <point x="694" y="18"/>
      <point x="592" y="-23"/>
      <point x="531" y="-23" type="curve" smooth="yes"/>
      <point x="468" y="-23"/>
      <point x="367" y="18"/>
      <point x="367" y="109" type="curve" smooth="yes"/>
      <point x="367" y="160"/>
      <point x="384" y="175"/>
      <point x="384" y="222" type="curve" smooth="yes"/>
      <point x="384" y="291"/>
      <point x="345" y="352"/>
      <point x="283" y="352" type="curve" smooth="yes"/>
      <point x="211" y="352"/>
      <point x="169" y="291"/>
      <point x="169" y="222" type="curve" smooth="yes"/>
      <point x="169" y="151"/>
      <point x="211" y="91"/>
      <point x="283" y="91" type="curve" smooth="yes"/>
      <point x="288" y="91"/>
      <point x="294" y="92"/>
      <point x="297" y="93" type="curve" smooth="yes"/>
      <point x="334" y="-17" type="line"/>
      <point x="324" y="-22"/>
      <point x="298" y="-23"/>
      <point x="283" y="-23" type="curve" smooth="yes"/>
      <point x="150" y="-23"/>
      <point x="55" y="87"/>
      <point x="55" y="222" type="curve" smooth="yes"/>
      <point x="55" y="355"/>
      <point x="150" y="466"/>
      <point x="283" y="466" type="curve" smooth="yes"/>
      <point x="319" y="466"/>
      <point x="366" y="451"/>
      <point x="406" y="423" type="curve"/>
      <point x="445" y="448"/>
      <point x="483" y="466"/>
      <point x="531" y="466" type="curve" smooth="yes"/>
      <point x="576" y="466"/>
      <point x="618" y="448"/>
      <point x="654" y="424" type="curve"/>
      <point x="697" y="453"/>
      <point x="740" y="466"/>
      <point x="771" y="466" type="curve" smooth="yes"/>
      <point x="904" y="466"/>
      <point x="999" y="355"/>
    </contour>
    <contour>
      <point x="892" y="-471" type="line"/>
      <point x="726" y="-471" type="line"/>
      <point x="726" y="-363" type="line"/>
      <point x="720" y="-364"/>
      <point x="707" y="-365"/>
      <point x="700" y="-365" type="curve" smooth="yes"/>
      <point x="617" y="-365"/>
      <point x="531" y="-340"/>
      <point x="531" y="-231" type="curve" smooth="yes"/>
      <point x="531" y="-114"/>
      <point x="631" y="-96"/>
      <point x="700" y="-96" type="curve" smooth="yes"/>
      <point x="727" y="-96"/>
      <point x="774" y="-99"/>
      <point x="831" y="-123" type="curve"/>
      <point x="816" y="-206" type="line"/>
      <point x="789" y="-197"/>
      <point x="751" y="-183"/>
      <point x="700" y="-183" type="curve" smooth="yes"/>
      <point x="663" y="-183"/>
      <point x="618" y="-188"/>
      <point x="618" y="-231" type="curve" smooth="yes"/>
      <point x="618" y="-273"/>
      <point x="663" y="-278"/>
      <point x="700" y="-278" type="curve" smooth="yes"/>
      <point x="744" y="-278"/>
      <point x="771" y="-276"/>
      <point x="813" y="-257" type="curve"/>
      <point x="813" y="-384" type="line"/>
      <point x="892" y="-384" type="line"/>
    </contour>
  </outline>
</glyph>
<glyph name="u1010.med" format="2">
  <advance width="0"/>
  <anchor x="-876" y="-53" name="LLM"/>
  <anchor x="-384" y="-53" name="_BD"/>
  <anchor x="107" y="-53" name="BSM"/>
  <anchor x="107" y="-53" name="LM"/>
  <anchor x="867" y="-53" name="_BSM"/>
  <anchor x="-379" y="-53" name="_BDM"/>
  <outline>
    <contour>
      <point x="-430" y="-282" type="curve" smooth="yes"/>
      <point x="-430" y="-229"/>
      <point x="-475" y="-180"/>
      <point x="-526" y="-180" type="curve" smooth="yes"/>
      <point x="-582" y="-180"/>
      <point x="-627" y="-229"/>
      <point x="-627" y="-282" type="curve" smooth="yes"/>
      <point x="-627" y="-336"/>
      <point x="-581" y="-383"/>
      <point x="-529" y="-383" type="curve" smooth="yes"/>
      <point x="-476" y="-383"/>
      <point x="-430" y="-336"/>
    </contour>
    <contour>
      <point x="-55" y="-282" type="curve" smooth="yes"/>
      <point x="-55" y="-386"/>
      <point x="-138" y="-471"/>
      <point x="-243" y="-471" type="curve" smooth="yes"/>
      <point x="-264" y="-471"/>
      <point x="-282" y="-468"/>
      <point x="-297" y="-461" type="curve"/>
      <point x="-262" y="-380" type="line"/>
      <point x="-256" y="-382"/>
      <point x="-249" y="-383"/>
      <point x="-243" y="-383" type="curve" smooth="yes"/>
      <point x="-187" y="-383"/>
      <point x="-142" y="-336"/>
      <point x="-142" y="-282" type="curve" smooth="yes"/>
      <point x="-142" y="-229"/>
      <point x="-187" y="-180"/>
      <point x="-243" y="-180" type="curve" smooth="yes"/>
      <point x="-292" y="-180"/>
      <point x="-338" y="-236"/>
      <point x="-343" y="-282" type="curve"/>
      <point x="-343" y="-386"/>
      <point x="-426" y="-471"/>
      <point x="-526" y="-471" type="curve" smooth="yes"/>
      <point x="-631" y="-471"/>
      <point x="-714" y="-386"/>
      <point x="-714" y="-282" type="curve" smooth="yes"/>
      <point x="-714" y="-180"/>
      <point x="-630" y="-93"/>
      <point x="-529" y="-93" type="curve" smooth="yes"/>
      <point x="-470" y="-93"/>
      <point x="-419" y="-122"/>
      <point x="-384" y="-167" type="curve"/>
      <point x="-353" y="-126"/>
      <point x="-307" y="-93"/>
      <point x="-243" y="-93" type="curve" smooth="yes"/>
      <point x="-138" y="-93"/>
      <point x="-55" y="-180"/>
    </contour>
  </outline>
</glyph>
<glyph name="u1010_u103D.med.tri" format="2">
  <advance width="0"/>
  <anchor x="-228" y="-53" name="_BS"/>
  <anchor x="-567" y="-53" name="LLM"/>
  <anchor x="-228" y="-53" name="_BSM"/>
  <anchor x="107" y="-53" name="LM"/>
  <anchor x="553" y="-53" name="BSM"/>
  <outline>
    <contour>
      <point x="-124" y="-407" type="curve" smooth="yes"/>
      <point x="-124" y="-402"/>
      <point x="-150" y="-360"/>
      <point x="-154" y="-360" type="curve" smooth="yes"/>
      <point x="-158" y="-360"/>
      <point x="-183" y="-402"/>
      <point x="-183" y="-407" type="curve" smooth="yes"/>
      <point x="-183" y="-414"/>
      <point x="-181" y="-417"/>
      <point x="-154" y="-417" type="curve" smooth="yes"/>
      <point x="-126" y="-417"/>
      <point x="-124" y="-414"/>
    </contour>
    <contour>
      <point x="-64" y="-423" type="curve" smooth="yes"/>
      <point x="-64" y="-459"/>
      <point x="-99" y="-471"/>
      <point x="-154" y="-471" type="curve" smooth="yes"/>
      <point x="-205" y="-471"/>
      <point x="-247" y="-459"/>
      <point x="-247" y="-423" type="curve" smooth="yes"/>
      <point x="-247" y="-375"/>
      <point x="-167" y="-285"/>
      <point x="-154" y="-285" type="curve" smooth="yes"/>
      <point x="-143" y="-285"/>
      <point x="-64" y="-374"/>
    </contour>
    <contour>
      <point x="-270" y="-164" type="curve" smooth="yes"/>
      <point x="-270" y="-145"/>
      <point x="-284" y="-128"/>
      <point x="-304" y="-128" type="curve" smooth="yes"/>
      <point x="-323" y="-128"/>
      <point x="-339" y="-145"/>
      <point x="-339" y="-164" type="curve" smooth="yes"/>
      <point x="-339" y="-182"/>
      <point x="-324" y="-198"/>
      <point x="-304" y="-198" type="curve" smooth="yes"/>
      <point x="-284" y="-198"/>
      <point x="-270" y="-182"/>
    </contour>
    <contour>
      <point x="-55" y="-164" type="curve" smooth="yes"/>
      <point x="-55" y="-218"/>
      <point x="-94" y="-267"/>
      <point x="-154" y="-267" type="curve" smooth="yes"/>
      <point x="-165" y="-267"/>
      <point x="-180" y="-265"/>
      <point x="-187" y="-260" type="curve"/>
      <point x="-163" y="-197" type="line" smooth="yes"/>
      <point x="-160" y="-198"/>
      <point x="-156" y="-198"/>
      <point x="-154" y="-198" type="curve" smooth="yes"/>
      <point x="-135" y="-198"/>
      <point x="-121" y="-183"/>
      <point x="-121" y="-164" type="curve" smooth="yes"/>
      <point x="-121" y="-144"/>
      <point x="-139" y="-128"/>
      <point x="-154" y="-128" type="curve" smooth="yes"/>
      <point x="-190" y="-128"/>
      <point x="-207" y="-182"/>
      <point x="-210" y="-195" type="curve" smooth="yes"/>
      <point x="-220" y="-234"/>
      <point x="-257" y="-266"/>
      <point x="-304" y="-266" type="curve" smooth="yes"/>
      <point x="-364" y="-266"/>
      <point x="-405" y="-217"/>
      <point x="-405" y="-164" type="curve" smooth="yes"/>
      <point x="-405" y="-114"/>
      <point x="-363" y="-62"/>
      <point x="-304" y="-62" type="curve" smooth="yes"/>
      <point x="-271" y="-62"/>
      <point x="-247" y="-77"/>
      <point x="-228" y="-98" type="curve"/>
      <point x="-207" y="-71"/>
      <point x="-178" y="-63"/>
      <point x="-154" y="-63" type="curve" smooth="yes"/>
      <point x="-98" y="-63"/>
      <point x="-55" y="-112"/>
    </contour>
  </outline>
</glyph>
<glyph name="u1011.med" format="2">
  <advance width="0"/>
  <anchor x="107" y="-53" name="LLM"/>
  <anchor x="-382" y="-53" name="_BD"/>
  <anchor x="107" y="-53" name="BSM"/>
  <anchor x="-862" y="-53" name="LM"/>
  <anchor x="877" y="-53" name="_BSM"/>
  <anchor x="-395" y="-53" name="_BDM"/>
  <outline>
    <contour>
      <point x="-427" y="-282" type="curve" smooth="yes"/>
      <point x="-427" y="-229"/>
      <point x="-473" y="-180"/>
      <point x="-525" y="-180" type="curve" smooth="yes"/>
      <point x="-578" y="-180"/>
      <point x="-624" y="-229"/>
      <point x="-624" y="-282" type="curve" smooth="yes"/>
      <point x="-624" y="-335"/>
      <point x="-578" y="-384"/>
      <point x="-526" y="-384" type="curve" smooth="yes"/>
      <point x="-473" y="-384"/>
      <point x="-427" y="-335"/>
    </contour>
    <contour>
      <point x="-142" y="-282" type="curve" smooth="yes"/>
      <point x="-142" y="-229"/>
      <point x="-186" y="-180"/>
      <point x="-240" y="-180" type="curve" smooth="yes"/>
      <point x="-294" y="-180"/>
      <point x="-337" y="-229"/>
      <point x="-337" y="-282" type="curve" smooth="yes"/>
      <point x="-337" y="-335"/>
      <point x="-294" y="-384"/>
      <point x="-241" y="-384" type="curve" smooth="yes"/>
      <point x="-185" y="-384"/>
      <point x="-142" y="-335"/>
    </contour>
    <contour>
      <point x="-55" y="-282" type="curve" smooth="yes"/>
      <point x="-55" y="-386"/>
      <point x="-138" y="-471"/>
      <point x="-240" y="-471" type="curve" smooth="yes"/>
      <point x="-299" y="-471"/>
      <point x="-349" y="-444"/>
      <point x="-382" y="-401" type="curve"/>
      <point x="-417" y="-444"/>
      <point x="-468" y="-471"/>
      <point x="-525" y="-471" type="curve" smooth="yes"/>
      <point x="-628" y="-471"/>
      <point x="-711" y="-386"/>
      <point x="-711" y="-282" type="curve" smooth="yes"/>
      <point x="-711" y="-180"/>
      <point x="-628" y="-93"/>
      <point x="-526" y="-93" type="curve" smooth="yes"/>
      <point x="-469" y="-93"/>
      <point x="-417" y="-120"/>
      <point x="-382" y="-164" type="curve"/>
      <point x="-349" y="-120"/>
      <point x="-298" y="-93"/>
      <point x="-241" y="-93" type="curve" smooth="yes"/>
      <point x="-138" y="-93"/>
      <point x="-55" y="-180"/>
    </contour>
  </outline>
</glyph>
<glyph name="u1014_u1010_u103C" format="2">
  <advance width="847"/>
  <anchor x="0" y="0" name="_R"/>
  <anchor x="954" y="-53" name="BS"/>
  <anchor x="954" y="-53" name="L"/>
  <anchor x="841" y="-53" name="BD"/>
  <outline>
    <contour>
      <point x="504" y="73" type="curve"/>
      <point x="459" y="109"/>
      <point x="413" y="138"/>
      <point x="378" y="138" type="curve" smooth="yes"/>
      <point x="346" y="138"/>
      <point x="321" y="117"/>
      <point x="321" y="97" type="curve" smooth="yes"/>
      <point x="321" y="72"/>
      <point x="358" y="69"/>
      <point x="397" y="69" type="curve" smooth="yes"/>
      <point x="456" y="69"/>
      <point x="481" y="70"/>
    </contour>
    <contour>
      <point x="717" y="13" type="curve"/>
      <point x="648" y="-56" type="line"/>
      <point x="639" y="-48"/>
      <point x="618" y="-28"/>
      <point x="592" y="-3" type="curve"/>
      <point x="552" y="-18"/>
      <point x="501" y="-23"/>
      <point x="429" y="-23" type="curve" smooth="yes"/>
      <point x="358" y="-23"/>
      <point x="228" y="-23"/>
      <point x="228" y="97" type="curve" smooth="yes"/>
      <point x="228" y="172"/>
      <point x="301" y="231"/>
      <point x="378" y="231" type="curve" smooth="yes"/>
      <point x="443" y="231"/>
      <point x="522" y="176"/>
      <point x="594" y="120" type="curve"/>
      <point x="597" y="125"/>
      <point x="598" y="131"/>
      <point x="598" y="138" type="curve" smooth="yes"/>
      <point x="598" y="246"/>
      <point x="325" y="231"/>
      <point x="325" y="357" type="curve" smooth="yes"/>
      <point x="325" y="418"/>
      <point x="376" y="466"/>
      <point x="481" y="466" type="curve" smooth="yes"/>
      <point x="539" y="466"/>
      <point x="577" y="440"/>
      <point x="588" y="427" type="curve"/>
      <point x="543" y="349" type="line"/>
      <point x="528" y="361"/>
      <point x="508" y="373"/>
      <point x="481" y="373" type="curve" smooth="yes"/>
      <point x="453" y="373"/>
      <point x="439" y="368"/>
      <point x="439" y="357" type="curve" smooth="yes"/>
      <point x="439" y="304"/>
      <point x="705" y="324"/>
      <point x="705" y="138" type="curve" smooth="yes"/>
      <point x="705" y="101"/>
      <point x="695" y="71"/>
      <point x="676" y="49" type="curve"/>
      <point x="686" y="40"/>
      <point x="708" y="21"/>
    </contour>
    <contour>
      <point x="390" y="-194" type="curve" smooth="yes"/>
      <point x="390" y="-162"/>
      <point x="363" y="-152"/>
      <point x="348" y="-152" type="curve" smooth="yes"/>
      <point x="331" y="-152"/>
      <point x="307" y="-170"/>
      <point x="307" y="-194" type="curve" smooth="yes"/>
      <point x="307" y="-227"/>
      <point x="335" y="-237"/>
      <point x="348" y="-237" type="curve" smooth="yes"/>
      <point x="363" y="-237"/>
      <point x="390" y="-227"/>
    </contour>
    <contour>
      <point x="636" y="-194" type="curve" smooth="yes"/>
      <point x="636" y="-261"/>
      <point x="578" y="-318"/>
      <point x="517" y="-318" type="curve" smooth="yes"/>
      <point x="505" y="-318"/>
      <point x="493" y="-316"/>
      <point x="486" y="-312" type="curve"/>
      <point x="505" y="-236" type="line"/>
      <point x="509" y="-237"/>
      <point x="513" y="-237"/>
      <point x="517" y="-237" type="curve" smooth="yes"/>
      <point x="540" y="-237"/>
      <point x="556" y="-215"/>
      <point x="556" y="-194" type="curve" smooth="yes"/>
      <point x="556" y="-177"/>
      <point x="541" y="-152"/>
      <point x="517" y="-152" type="curve" smooth="yes"/>
      <point x="490" y="-152"/>
      <point x="473" y="-173"/>
      <point x="468" y="-195" type="curve"/>
      <point x="468" y="-269"/>
      <point x="408" y="-318"/>
      <point x="348" y="-318" type="curve" smooth="yes"/>
      <point x="288" y="-318"/>
      <point x="228" y="-269"/>
      <point x="228" y="-194" type="curve" smooth="yes"/>
      <point x="228" y="-122"/>
      <point x="288" y="-71"/>
      <point x="348" y="-71" type="curve" smooth="yes"/>
      <point x="380" y="-71"/>
      <point x="408" y="-82"/>
      <point x="433" y="-105" type="curve"/>
      <point x="454" y="-84"/>
      <point x="486" y="-71"/>
      <point x="517" y="-71" type="curve" smooth="yes"/>
      <point x="578" y="-71"/>
      <point x="636" y="-128"/>
    </contour>
    <contour>
      <point x="792" y="-104" type="line"/>
      <point x="792" y="-201" type="line" smooth="yes"/>
      <point x="792" y="-255"/>
      <point x="781" y="-339"/>
      <point x="724" y="-398" type="curve" smooth="yes"/>
      <point x="664" y="-459"/>
      <point x="594" y="-471"/>
      <point x="522" y="-471" type="curve" smooth="yes"/>
      <point x="339" y="-471" type="line" smooth="yes"/>
      <point x="267" y="-471"/>
      <point x="196" y="-459"/>
      <point x="136" y="-398" type="curve" smooth="yes"/>
      <point x="79" y="-339"/>
      <point x="69" y="-255"/>
      <point x="69" y="-201" type="curve" smooth="yes"/>
      <point x="69" y="709" type="line" smooth="yes"/>
      <point x="69" y="762"/>
      <point x="79" y="847"/>
      <point x="138" y="906" type="curve" smooth="yes"/>
      <point x="198" y="966"/>
      <point x="267" y="978"/>
      <point x="339" y="978" type="curve" smooth="yes"/>
      <point x="522" y="978" type="line" smooth="yes"/>
      <point x="594" y="978"/>
      <point x="664" y="965"/>
      <point x="723" y="904" type="curve" smooth="yes"/>
      <point x="769" y="858"/>
      <point x="792" y="770"/>
      <point x="792" y="723" type="curve"/>
      <point x="678" y="723" type="line"/>
      <point x="678" y="750"/>
      <point x="664" y="805"/>
      <point x="640" y="829" type="curve" smooth="yes"/>
      <point x="606" y="863"/>
      <point x="547" y="864"/>
      <point x="504" y="864" type="curve" smooth="yes"/>
      <point x="355" y="864" type="line" smooth="yes"/>
      <point x="312" y="864"/>
      <point x="256" y="862"/>
      <point x="222" y="828" type="curve" smooth="yes"/>
      <point x="186" y="792"/>
      <point x="183" y="732"/>
      <point x="183" y="691" type="curve" smooth="yes"/>
      <point x="183" y="-185" type="line" smooth="yes"/>
      <point x="183" y="-220"/>
      <point x="186" y="-285"/>
      <point x="222" y="-320" type="curve" smooth="yes"/>
      <point x="257" y="-353"/>
      <point x="312" y="-356"/>
      <point x="355" y="-356" type="curve" smooth="yes"/>
      <point x="505" y="-356" type="line" smooth="yes"/>
      <point x="549" y="-356"/>
      <point x="604" y="-354"/>
      <point x="640" y="-318" type="curve" smooth="yes"/>
      <point x="674" y="-284"/>
      <point x="678" y="-222"/>
      <point x="678" y="-185" type="curve" smooth="yes"/>
      <point x="678" y="-104" type="line"/>
    </contour>
  </outline>
</glyph>
<glyph name="u1017.med" format="2">
  <advance width="0"/>
  <anchor x="-249" y="-53" name="_BS"/>
  <anchor x="-596" y="-53" name="LLM"/>
  <anchor x="-249" y="-53" name="_BSM"/>
  <anchor x="106" y="-53" name="LM"/>
  <anchor x="565" y="-53" name="BSM"/>
  <outline>
    <contour>
      <point x="-143" y="-270" type="curve" smooth="yes"/>
      <point x="-143" y="-252"/>
      <point x="-146" y="-240"/>
      <point x="-150" y="-230" type="curve"/>
      <point x="-174" y="-252"/>
      <point x="-206" y="-263"/>
      <point x="-245" y="-263" type="curve" smooth="yes"/>
      <point x="-284" y="-263"/>
      <point x="-316" y="-252"/>
      <point x="-339" y="-230" type="curve"/>
      <point x="-343" y="-240"/>
      <point x="-347" y="-252"/>
      <point x="-347" y="-270" type="curve" smooth="yes"/>
      <point x="-347" y="-326"/>
      <point x="-309" y="-384"/>
      <point x="-245" y="-384" type="curve" smooth="yes"/>
      <point x="-181" y="-384"/>
      <point x="-143" y="-326"/>
    </contour>
    <contour>
      <point x="-56" y="-270" type="curve" smooth="yes"/>
      <point x="-56" y="-378"/>
      <point x="-138" y="-471"/>
      <point x="-245" y="-471" type="curve" smooth="yes"/>
      <point x="-352" y="-471"/>
      <point x="-434" y="-378"/>
      <point x="-434" y="-270" type="curve" smooth="yes"/>
      <point x="-434" y="-197"/>
      <point x="-417" y="-134"/>
      <point x="-362" y="-93" type="curve"/>
      <point x="-317" y="-168"/>
      <point x="-279" y="-176"/>
      <point x="-251" y="-176" type="curve" smooth="yes"/>
      <point x="-224" y="-176"/>
      <point x="-173" y="-168"/>
      <point x="-128" y="-93" type="curve"/>
      <point x="-73" y="-134"/>
      <point x="-56" y="-197"/>
    </contour>
  </outline>
</glyph>
<glyph name="u101A.aiph" format="2">
  <advance width="976"/>
  <anchor x="0" y="0" name="_R"/>
  <anchor x="678" y="-53" name="BS"/>
  <anchor x="678" y="-53" name="L"/>
  <anchor x="490" y="-53" name="BD"/>
  <anchor x="678" y="495" name="U"/>
  <outline>
    <contour>
      <point x="921" y="222" type="curve" smooth="yes"/>
      <point x="921" y="89"/>
      <point x="810" y="-23"/>
      <point x="678" y="-23" type="curve" smooth="yes"/>
      <point x="594" y="-23"/>
      <point x="529" y="21"/>
      <point x="490" y="76" type="curve"/>
      <point x="447" y="17"/>
      <point x="380" y="-23"/>
      <point x="300" y="-23" type="curve" smooth="yes"/>
      <point x="160" y="-23"/>
      <point x="55" y="101"/>
      <point x="55" y="237" type="curve" smooth="yes"/>
      <point x="55" y="351"/>
      <point x="90" y="466"/>
      <point x="181" y="466" type="curve" smooth="yes"/>
      <point x="232" y="466"/>
      <point x="270" y="427"/>
      <point x="270" y="379" type="curve" smooth="yes"/>
      <point x="270" y="331"/>
      <point x="229" y="291"/>
      <point x="181" y="291" type="curve" smooth="yes"/>
      <point x="179" y="291"/>
      <point x="174" y="291"/>
      <point x="172" y="291" type="curve" smooth="yes"/>
      <point x="169" y="276"/>
      <point x="169" y="258"/>
      <point x="169" y="237" type="curve" smooth="yes"/>
      <point x="169" y="151"/>
      <point x="232" y="91"/>
      <point x="300" y="91" type="curve" smooth="yes"/>
      <point x="376" y="91"/>
      <point x="430" y="166"/>
      <point x="430" y="237" type="curve" smooth="yes"/>
      <point x="430" y="310"/>
      <point x="420" y="330"/>
      <point x="388" y="373" type="curve"/>
      <point x="454" y="466" type="line"/>
      <point x="526" y="405"/>
      <point x="544" y="332"/>
      <point x="544" y="237" type="curve" smooth="yes"/>
      <point x="544" y="178"/>
      <point x="606" y="91"/>
      <point x="678" y="91" type="curve" smooth="yes"/>
      <point x="750" y="91"/>
      <point x="808" y="151"/>
      <point x="808" y="222" type="curve" smooth="yes"/>
      <point x="808" y="274.877"/>
      <point x="773.939" y="323.056"/>
      <point x="725.617" y="342.684" type="curve"/>
      <point x="712.293" y="309.957"/>
      <point x="679.691" y="286"/>
      <point x="643" y="286" type="curve" smooth="yes"/>
      <point x="597" y="286"/>
      <point x="555" y="327"/>
      <point x="555" y="375" type="curve" smooth="yes"/>
      <point x="555" y="409.913"/>
      <point x="577.22" y="440.065"/>
      <point x="607.038" y="453.911" type="curve"/>
      <point x="607" y="454" type="line" smooth="yes"/>
      <point x="607.982" y="454.421"/>
      <point x="608.983" y="454.828"/>
      <point x="610.002" y="455.223" type="curve" smooth="yes"/>
      <point x="615.903" y="457.708"/>
      <point x="622.073" y="459.56"/>
      <point x="628.404" y="460.695" type="curve" smooth="yes"/>
      <point x="645.527" y="464.563"/>
      <point x="664.158" y="466"/>
      <point x="678" y="466" type="curve" smooth="yes"/>
      <point x="810" y="466"/>
      <point x="921" y="358"/>
    </contour>
  </outline>
</glyph>
<glyph name="u101B.long" format="2">
  <advance width="649"/>
  <anchor x="0" y="0" name="_R"/>
  <anchor x="267" y="-53" name="BS"/>
  <anchor x="97" y="-53" name="LL"/>
  <anchor x="756" y="-53" name="L"/>
  <anchor x="119" y="-53" name="BD"/>
  <anchor x="313" y="495" name="U"/>
  <outline>
    <contour>
      <point x="328" y="96" type="curve"/>
      <point x="313" y="117"/>
      <point x="291" y="141"/>
      <point x="271" y="154" type="curve" smooth="yes"/>
      <point x="246" y="170"/>
      <point x="202" y="187"/>
      <point x="174" y="189" type="curve"/>
      <point x="187" y="130"/>
      <point x="238" y="93"/>
      <point x="298" y="93" type="curve" smooth="yes"/>
      <point x="313" y="93"/>
      <point x="322" y="93"/>
    </contour>
    <contour>
      <point x="594" y="-471" type="line"/>
      <point x="480" y="-471" type="line"/>
      <point x="480" y="138" type="line" smooth="yes"/>
      <point x="480" y="297"/>
      <point x="362" y="352"/>
      <point x="298" y="352" type="curve" smooth="yes"/>
      <point x="238" y="352"/>
      <point x="200" y="322"/>
      <point x="181" y="282" type="curve"/>
      <point x="236" y="278"/>
      <point x="294" y="254"/>
      <point x="331" y="226" type="curve" smooth="yes"/>
      <point x="395" y="177"/>
      <point x="439" y="106"/>
      <point x="448" y="22" type="curve"/>
      <point x="408" y="-11"/>
      <point x="361" y="-23"/>
      <point x="298" y="-23" type="curve" smooth="yes"/>
      <point x="166" y="-23"/>
      <point x="55" y="88"/>
      <point x="55" y="222" type="curve" smooth="yes"/>
      <point x="55" y="341"/>
      <point x="151" y="466"/>
      <point x="298" y="466" type="curve" smooth="yes"/>
      <point x="440" y="466"/>
      <point x="594" y="366"/>
      <point x="594" y="150" type="curve" smooth="yes"/>
    </contour>
  </outline>
</glyph>
<glyph name="u1020_u1020" format="2">
  <advance width="612"/>
  <anchor x="0" y="0" name="_R"/>
  <anchor x="684" y="-53" name="BS"/>
  <anchor x="684" y="-53" name="L"/>
  <anchor x="298" y="495" name="U"/>
  <anchor x="657" y="-53" name="BD"/>
  <outline>
    <contour>
      <point x="397" y="-364" type="line"/>
      <point x="297" y="-364" type="line"/>
      <point x="297" y="-303" type="line"/>
      <point x="291" y="-304"/>
      <point x="281" y="-305"/>
      <point x="272" y="-305" type="curve" smooth="yes"/>
      <point x="252" y="-305"/>
      <point x="191" y="-305"/>
      <point x="191" y="-237" type="curve" smooth="yes"/>
      <point x="191" y="-181"/>
      <point x="252" y="-168"/>
      <point x="272" y="-168" type="curve" smooth="yes"/>
      <point x="308" y="-168"/>
      <point x="332" y="-172"/>
      <point x="357" y="-191" type="curve"/>
      <point x="333" y="-231" type="line"/>
      <point x="315" y="-218"/>
      <point x="290" y="-217"/>
      <point x="272" y="-217" type="curve" smooth="yes"/>
      <point x="265" y="-217"/>
      <point x="240" y="-221"/>
      <point x="240" y="-237" type="curve" smooth="yes"/>
      <point x="240" y="-254"/>
      <point x="264" y="-256"/>
      <point x="272" y="-256" type="curve" smooth="yes"/>
      <point x="291" y="-256"/>
      <point x="317" y="-254"/>
      <point x="346" y="-243" type="curve"/>
      <point x="346" y="-315" type="line"/>
      <point x="397" y="-315" type="line"/>
    </contour>
    <contour>
      <point x="541" y="-338" type="curve" smooth="yes"/>
      <point x="541" y="-405"/>
      <point x="496" y="-471"/>
      <point x="397" y="-471" type="curve" smooth="yes"/>
      <point x="214" y="-471" type="line" smooth="yes"/>
      <point x="170" y="-471"/>
      <point x="141" y="-459"/>
      <point x="122" y="-437" type="curve" smooth="yes"/>
      <point x="92" y="-403"/>
      <point x="87" y="-347"/>
      <point x="87" y="-282" type="curve" smooth="yes"/>
      <point x="87" y="18" type="line"/>
      <point x="143" y="-29"/>
      <point x="217" y="-66"/>
      <point x="298" y="-66" type="curve" smooth="yes"/>
      <point x="343" y="-66"/>
      <point x="379" y="-58"/>
      <point x="408" y="-46" type="curve"/>
      <point x="408" y="1" type="line"/>
      <point x="370" y="-15"/>
      <point x="333" y="-23"/>
      <point x="298" y="-23" type="curve" smooth="yes"/>
      <point x="166" y="-23"/>
      <point x="55" y="87"/>
      <point x="55" y="222" type="curve" smooth="yes"/>
      <point x="55" y="355"/>
      <point x="166" y="466"/>
      <point x="298" y="466" type="curve" smooth="yes"/>
      <point x="372" y="466"/>
      <point x="471" y="432"/>
      <point x="522" y="336" type="curve"/>
      <point x="420" y="283" type="line"/>
      <point x="377" y="350"/>
      <point x="317" y="352"/>
      <point x="298" y="352" type="curve" smooth="yes"/>
      <point x="229" y="352"/>
      <point x="169" y="291"/>
      <point x="169" y="222" type="curve" smooth="yes"/>
      <point x="169" y="151"/>
      <point x="229" y="91"/>
      <point x="298" y="91" type="curve" smooth="yes"/>
      <point x="317" y="91"/>
      <point x="377" y="91"/>
      <point x="420" y="160" type="curve"/>
      <point x="522" y="108" type="line"/>
      <point x="522" y="-94" type="line"/>
      <point x="469" y="-145"/>
      <point x="385" y="-161"/>
      <point x="298" y="-161" type="curve" smooth="yes"/>
      <point x="235" y="-161"/>
      <point x="189" y="-141"/>
      <point x="172" y="-129" type="curve"/>
      <point x="172" y="-291" type="line" smooth="yes"/>
      <point x="172" y="-333"/>
      <point x="175" y="-355"/>
      <point x="190" y="-370" type="curve" smooth="yes"/>
      <point x="200" y="-380"/>
      <point x="214" y="-386"/>
      <point x="238" y="-386" type="curve" smooth="yes"/>
      <point x="378" y="-386" type="line" smooth="yes"/>
      <point x="439" y="-386"/>
      <point x="464" y="-369"/>
      <point x="464" y="-338" type="curve" smooth="yes"/>
      <point x="464" y="-317"/>
      <point x="460" y="-286"/>
      <point x="402" y="-286" type="curve" smooth="yes"/>
      <point x="396" y="-286"/>
      <point x="390" y="-287"/>
      <point x="384" y="-289" type="curve"/>
      <point x="368" y="-213" type="line"/>
      <point x="380" y="-210"/>
      <point x="392" y="-210"/>
      <point x="402" y="-210" type="curve" smooth="yes"/>
      <point x="487" y="-210"/>
      <point x="541" y="-259"/>
    </contour>
  </outline>
</glyph>
<glyph name="u1021.med" format="2">
  <advance width="0"/>
  <anchor x="-822" y="-53" name="LLM"/>
  <anchor x="-358" y="-53" name="_BD"/>
  <anchor x="150" y="-53" name="BSM"/>
  <anchor x="150" y="-53" name="LM"/>
  <anchor x="874" y="-53" name="_BSM"/>
  <anchor x="-331" y="-53" name="_BDM"/>
  <outline>
    <contour>
      <point x="-118" y="-276" type="curve"/>
      <point x="-145" y="-283"/>
      <point x="-164" y="-295"/>
      <point x="-180" y="-312" type="curve" smooth="yes"/>
      <point x="-196" y="-330"/>
      <point x="-207" y="-355"/>
      <point x="-214" y="-383" type="curve"/>
      <point x="-161" y="-378"/>
      <point x="-117" y="-338"/>
    </contour>
    <contour>
      <point x="-31" y="-282" type="curve" smooth="yes"/>
      <point x="-31" y="-386"/>
      <point x="-115" y="-471"/>
      <point x="-217" y="-471" type="curve" smooth="yes"/>
      <point x="-241" y="-471"/>
      <point x="-269" y="-469"/>
      <point x="-292" y="-450" type="curve"/>
      <point x="-294" y="-441"/>
      <point x="-294" y="-431"/>
      <point x="-294" y="-421" type="curve" smooth="yes"/>
      <point x="-294" y="-366"/>
      <point x="-270" y="-308"/>
      <point x="-239" y="-270" type="curve" smooth="yes"/>
      <point x="-219" y="-245"/>
      <point x="-184" y="-224"/>
      <point x="-148" y="-212" type="curve"/>
      <point x="-165" y="-195"/>
      <point x="-190" y="-182"/>
      <point x="-217" y="-182" type="curve" smooth="yes"/>
      <point x="-250" y="-182"/>
      <point x="-294" y="-195"/>
      <point x="-321" y="-219" type="curve"/>
      <point x="-324" y="-246"/>
      <point x="-334" y="-267"/>
      <point x="-349" y="-284" type="curve"/>
      <point x="-330" y="-303"/>
      <point x="-321" y="-325"/>
      <point x="-321" y="-350" type="curve" smooth="yes"/>
      <point x="-321" y="-417"/>
      <point x="-373" y="-471"/>
      <point x="-490" y="-471" type="curve" smooth="yes"/>
      <point x="-606" y="-471"/>
      <point x="-661" y="-423"/>
      <point x="-661" y="-360" type="curve"/>
      <point x="-576" y="-329" type="line"/>
      <point x="-576" y="-352"/>
      <point x="-550" y="-383"/>
      <point x="-490" y="-383" type="curve" smooth="yes"/>
      <point x="-450" y="-383"/>
      <point x="-408" y="-374"/>
      <point x="-408" y="-350" type="curve" smooth="yes"/>
      <point x="-408" y="-331"/>
      <point x="-435" y="-317"/>
      <point x="-498" y="-317" type="curve"/>
      <point x="-498" y="-248" type="line"/>
      <point x="-438" y="-248"/>
      <point x="-408" y="-234"/>
      <point x="-408" y="-215" type="curve" smooth="yes"/>
      <point x="-408" y="-191"/>
      <point x="-450" y="-182"/>
      <point x="-490" y="-182" type="curve" smooth="yes"/>
      <point x="-550" y="-182"/>
      <point x="-576" y="-214"/>
      <point x="-576" y="-236" type="curve"/>
      <point x="-661" y="-204" type="line"/>
      <point x="-661" y="-143"/>
      <point x="-601" y="-95"/>
      <point x="-490" y="-95" type="curve" smooth="yes"/>
      <point x="-430" y="-95"/>
      <point x="-385" y="-110"/>
      <point x="-358" y="-134" type="curve"/>
      <point x="-325" y="-111"/>
      <point x="-282" y="-95"/>
      <point x="-217" y="-95" type="curve" smooth="yes"/>
      <point x="-115" y="-95"/>
      <point x="-31" y="-181"/>
    </contour>
  </outline>
</glyph>
<glyph name="u102B_u103A" format="2">
  <advance width="471"/>
  <anchor x="-270" y="-53" name="KL"/>
  <anchor x="234" y="-53" name="KR"/>
  <anchor x="121" y="-53" name="BS"/>
  <anchor x="121" y="-53" name="BS"/>
  <anchor x="123" y="-53" name="BS"/>
  <anchor x="121" y="-53" name="L"/>
  <anchor x="96" y="-53" name="BD"/>
  <outline>
    <contour>
      <point x="415" y="727" type="curve"/>
      <point x="303" y="727" type="line"/>
      <point x="303" y="782"/>
      <point x="274" y="802"/>
      <point x="239" y="802" type="curve" smooth="yes"/>
      <point x="197" y="802"/>
      <point x="180" y="772"/>
      <point x="180" y="721" type="curve" smooth="yes"/>
      <point x="180" y="0" type="line"/>
      <point x="66" y="0" type="line"/>
      <point x="66" y="721" type="line" smooth="yes"/>
      <point x="66" y="772"/>
      <point x="47" y="802"/>
      <point x="7" y="802" type="curve" smooth="yes"/>
      <point x="-34" y="802"/>
      <point x="-59" y="782"/>
      <point x="-59" y="727" type="curve"/>
      <point x="-171" y="727" type="line"/>
      <point x="-171" y="829"/>
      <point x="-114" y="916"/>
      <point x="7" y="916" type="curve" smooth="yes"/>
      <point x="58" y="916"/>
      <point x="88" y="906"/>
      <point x="123" y="873" type="curve"/>
      <point x="156" y="906"/>
      <point x="188" y="916"/>
      <point x="239" y="916" type="curve" smooth="yes"/>
      <point x="357" y="916"/>
      <point x="415" y="829"/>
    </contour>
  </outline>
</glyph>
<glyph name="u102D_uAA7C" format="2">
  <advance width="55"/>
  <anchor x="-43" y="495" name="_Y"/>
  <anchor x="-182" y="495" name="_U"/>
  <anchor x="-179" y="495" name="UM"/>
  <outline>
    <contour>
      <point x="-442" y="693" type="line"/>
      <point x="-742" y="693" type="line"/>
      <point x="-742" y="775" type="line"/>
      <point x="-442" y="775" type="line"/>
    </contour>
    <contour>
      <point x="-87" y="733" type="curve" smooth="yes"/>
      <point x="-87" y="786"/>
      <point x="-129" y="835"/>
      <point x="-182" y="835" type="curve" smooth="yes"/>
      <point x="-238" y="835"/>
      <point x="-281" y="786"/>
      <point x="-281" y="733" type="curve" smooth="yes"/>
      <point x="-281" y="680"/>
      <point x="-237" y="631"/>
      <point x="-185" y="631" type="curve" smooth="yes"/>
      <point x="-129" y="631"/>
      <point x="-87" y="680"/>
    </contour>
    <contour>
      <point x="0" y="733" type="curve" smooth="yes"/>
      <point x="0" y="630"/>
      <point x="-81" y="544"/>
      <point x="-182" y="544" type="curve" smooth="yes"/>
      <point x="-285" y="544"/>
      <point x="-368" y="630"/>
      <point x="-368" y="733" type="curve" smooth="yes"/>
      <point x="-368" y="835"/>
      <point x="-285" y="922"/>
      <point x="-185" y="922" type="curve" smooth="yes"/>
      <point x="-81" y="922"/>
      <point x="0" y="835"/>
    </contour>
  </outline>
</glyph>
<glyph name="u102F.med" format="2">
  <advance width="0"/>
  <anchor x="-126" y="-53" name="_BS"/>
  <anchor x="-326" y="-53" name="LLM"/>
  <anchor x="-126" y="-53" name="_BSM"/>
  <anchor x="99" y="-53" name="LM"/>
  <anchor x="250" y="-53" name="BSM"/>
  <outline>
    <contour>
      <point x="27" y="-471" type="line"/>
      <point x="-164" y="-471" type="line"/>
      <point x="-164" y="-104" type="line"/>
      <point x="-63" y="-104" type="line"/>
      <point x="-63" y="-371" type="line"/>
      <point x="27" y="-371" type="line"/>
    </contour>
  </outline>
</glyph>
<glyph name="u102F_u108D" format="2">
  <advance width="219"/>
  <anchor x="93" y="-53" name="_BS"/>
  <anchor x="-107" y="-53" name="LLM"/>
  <anchor x="318" y="-53" name="BSM"/>
  <anchor x="318" y="-53" name="LM"/>
  <anchor x="81" y="-53" name="_BSM"/>
  <outline>
    <contour>
      <point x="-51" y="-324" type="line"/>
      <point x="-351" y="-324" type="line"/>
      <point x="-351" y="-237" type="line"/>
      <point x="-51" y="-237" type="line"/>
    </contour>
    <contour>
      <point x="246" y="-471" type="line"/>
      <point x="55" y="-471" type="line"/>
      <point x="55" y="-104" type="line"/>
      <point x="156" y="-104" type="line"/>
      <point x="156" y="-371" type="line"/>
      <point x="246" y="-371" type="line"/>
    </contour>
  </outline>
</glyph>
<glyph name="u1030.med" format="2">
  <advance width="0"/>
  <anchor x="-198" y="-53" name="_BS"/>
  <anchor x="-495" y="-53" name="LLM"/>
  <anchor x="-198" y="-53" name="_BSM"/>
  <anchor x="99" y="-53" name="LM"/>
  <anchor x="399" y="-53" name="BSM"/>
  <outline>
    <contour>
      <point x="-232" y="-471" type="line"/>
      <point x="-333" y="-471" type="line"/>
      <point x="-333" y="-104" type="line"/>
      <point x="-232" y="-104" type="line"/>
    </contour>
    <contour>
      <point x="27" y="-471" type="line"/>
      <point x="-163" y="-471" type="line"/>
      <point x="-163" y="-104" type="line"/>
      <point x="-63" y="-104" type="line"/>
      <point x="-63" y="-371" type="line"/>
      <point x="27" y="-371" type="line"/>
    </contour>
  </outline>
</glyph>
<glyph name="u1031.aiph" format="2">
  <advance width="600"/>
  <anchor x="0" y="0" name="_R"/>
  <anchor x="299" y="-53" name="BS"/>
  <anchor x="299" y="-53" name="L"/>
  <anchor x="299" y="495" name="U"/>
  <anchor x="292" y="-53" name="BD"/>
  <outline>
    <contour>
      <point x="417" y="153" type="curve"/>
      <point x="389" y="162"/>
      <point x="369" y="163"/>
      <point x="349" y="163" type="curve" smooth="yes"/>
      <point x="301" y="163"/>
      <point x="259" y="140"/>
      <point x="232" y="108" type="curve"/>
      <point x="251" y="97"/>
      <point x="273" y="91"/>
      <point x="298" y="91" type="curve" smooth="yes"/>
      <point x="332" y="91"/>
      <point x="385" y="110"/>
    </contour>
    <contour>
      <point x="521.3" y="317.8" type="curve" smooth="yes"/>
      <point x="521.3" y="279.4"/>
      <point x="488.5" y="246.6"/>
      <point x="450.1" y="246.6" type="curve" smooth="yes"/>
      <point x="413.3" y="246.6"/>
      <point x="379.7" y="279.4"/>
      <point x="379.7" y="317.8" type="curve" smooth="yes"/>
      <point x="379.7" y="320.719"/>
      <point x="379.894" y="323.597"/>
      <point x="380.269" y="326.423" type="curve" smooth="yes"/>
      <point x="357.866" y="343.046"/>
      <point x="331.515" y="352"/>
      <point x="298" y="352" type="curve" smooth="yes"/>
      <point x="190" y="352"/>
      <point x="169" y="245"/>
      <point x="169" y="222" type="curve" smooth="yes"/>
      <point x="169" y="209"/>
      <point x="171" y="196"/>
      <point x="174" y="184" type="curve"/>
      <point x="226" y="236"/>
      <point x="301" y="256"/>
      <point x="349" y="256" type="curve" smooth="yes"/>
      <point x="394" y="256"/>
      <point x="473" y="240"/>
      <point x="543" y="192" type="curve"/>
      <point x="543" y="54"/>
      <point x="400" y="-23"/>
      <point x="298" y="-23" type="curve" smooth="yes"/>
      <point x="151" y="-23"/>
      <point x="55" y="94"/>
      <point x="55" y="222" type="curve" smooth="yes"/>
      <point x="55" y="331"/>
      <point x="144" y="466"/>
      <point x="298" y="466" type="curve" smooth="yes"/>
      <point x="366.882" y="466"/>
      <point x="455.772" y="432.389"/>
      <point x="504.532" y="362.303" type="curve" smooth="yes"/>
      <point x="509.409" y="356.645"/>
      <point x="513.398" y="350.229"/>
      <point x="516.26" y="343.267" type="curve" smooth="yes"/>
      <point x="517.552" y="340.881"/>
      <point x="518.799" y="338.458"/>
      <point x="520" y="336" type="curve" smooth="yes"/>
      <point x="518.934" y="335.429" type="line"/>
      <point x="520.475" y="329.798"/>
      <point x="521.3" y="323.889"/>
    </contour>
  </outline>
</glyph>
<glyph name="u1032_u102D" format="2">
  <advance width="55"/>
  <anchor x="-43" y="495" name="_Y"/>
  <anchor x="-182" y="495" name="_U"/>
  <anchor x="-180" y="495" name="UM"/>
  <outline>
    <contour>
      <point x="-87" y="735" type="curve" smooth="yes"/>
      <point x="-87" y="788"/>
      <point x="-129" y="837"/>
      <point x="-182" y="837" type="curve" smooth="yes"/>
      <point x="-238" y="837"/>
      <point x="-281" y="788"/>
      <point x="-281" y="735" type="curve" smooth="yes"/>
      <point x="-281" y="682"/>
      <point x="-237" y="633"/>
      <point x="-185" y="633" type="curve" smooth="yes"/>
      <point x="-129" y="633"/>
      <point x="-87" y="682"/>
    </contour>
    <contour>
      <point x="0" y="735" type="curve" smooth="yes"/>
      <point x="0" y="631"/>
      <point x="-81" y="546"/>
      <point x="-182" y="546" type="curve" smooth="yes"/>
      <point x="-285" y="546"/>
      <point x="-368" y="631"/>
      <point x="-368" y="735" type="curve" smooth="yes"/>
      <point x="-368" y="837"/>
      <point x="-285" y="924"/>
      <point x="-185" y="924" type="curve" smooth="yes"/>
      <point x="-81" y="924"/>
      <point x="0" y="837"/>
    </contour>
    <contour>
      <point x="-408" y="617" type="line"/>
      <point x="-462" y="548" type="line"/>
      <point x="-768" y="791" type="line"/>
      <point x="-717" y="861" type="line"/>
    </contour>
  </outline>
</glyph>
<glyph name="u103C_u102F.alt.narr" format="2">
  <advance width="234"/>
  <anchor x="234" y="0" name="R"/>
  <anchor x="927" y="-53" name="BS"/>
  <anchor x="331" y="-53" name="LL"/>
  <anchor x="927" y="-53" name="L"/>
  <anchor x="781" y="-53" name="BD"/>
  <outline>
    <contour>
      <point x="594" y="-104" type="line"/>
      <point x="594" y="-317" type="line" smooth="yes"/>
      <point x="594" y="-371"/>
      <point x="588" y="-407"/>
      <point x="561" y="-434" type="curve" smooth="yes"/>
      <point x="534" y="-461"/>
      <point x="481" y="-471"/>
      <point x="414" y="-471" type="curve" smooth="yes"/>
      <point x="289" y="-471" type="line" smooth="yes"/>
      <point x="221" y="-471"/>
      <point x="178" y="-449"/>
      <point x="135" y="-396" type="curve" smooth="yes"/>
      <point x="84" y="-334"/>
      <point x="69" y="-255"/>
      <point x="69" y="-201" type="curve" smooth="yes"/>
      <point x="69" y="709" type="line" smooth="yes"/>
      <point x="69" y="762"/>
      <point x="79" y="847"/>
      <point x="138" y="906" type="curve" smooth="yes"/>
      <point x="198" y="966"/>
      <point x="267" y="978"/>
      <point x="339" y="978" type="curve" smooth="yes"/>
      <point x="360" y="978" type="line"/>
      <point x="360" y="864" type="line"/>
      <point x="340" y="864" type="line" smooth="yes"/>
      <point x="312" y="864"/>
      <point x="256" y="862"/>
      <point x="222" y="828" type="curve" smooth="yes"/>
      <point x="186" y="792"/>
      <point x="183" y="732"/>
      <point x="183" y="691" type="curve" smooth="yes"/>
      <point x="183" y="-185" type="line" smooth="yes"/>
      <point x="183" y="-224"/>
      <point x="186" y="-285"/>
      <point x="222" y="-323" type="curve" smooth="yes"/>
      <point x="244" y="-346"/>
      <point x="256" y="-356"/>
      <point x="301" y="-356" type="curve" smooth="yes"/>
      <point x="403" y="-356" type="line" smooth="yes"/>
      <point x="458" y="-356"/>
      <point x="462" y="-355"/>
      <point x="472" y="-345" type="curve" smooth="yes"/>
      <point x="479" y="-338"/>
      <point x="480" y="-328"/>
      <point x="480" y="-300" type="curve" smooth="yes"/>
      <point x="480" y="-104" type="line"/>
    </contour>
    <contour>
      <point x="855" y="-471" type="line"/>
      <point x="664" y="-471" type="line"/>
      <point x="664" y="-104" type="line"/>
      <point x="765" y="-104" type="line"/>
      <point x="765" y="-371" type="line"/>
      <point x="855" y="-371" type="line"/>
    </contour>
  </outline>
</glyph>
<glyph name="u103C_u103D.alt.wide" format="2">
  <advance width="234"/>
  <anchor x="234" y="0" name="R"/>
  <anchor x="1245" y="-53" name="BS"/>
  <anchor x="553" y="-53" name="LL"/>
  <anchor x="1245" y="-53" name="L"/>
  <outline>
    <contour>
      <point x="997" y="-282" type="curve" smooth="yes"/>
      <point x="997" y="-229"/>
      <point x="954" y="-180"/>
      <point x="901" y="-180" type="curve" smooth="yes"/>
      <point x="845" y="-180"/>
      <point x="802" y="-229"/>
      <point x="802" y="-282" type="curve" smooth="yes"/>
      <point x="802" y="-325"/>
      <point x="823" y="-356"/>
      <point x="862" y="-369" type="curve" smooth="yes"/>
      <point x="871" y="-372"/>
      <point x="882" y="-374"/>
      <point x="898" y="-374" type="curve" smooth="yes"/>
      <point x="964" y="-374"/>
      <point x="997" y="-331"/>
    </contour>
    <contour>
      <point x="1084" y="-282" type="curve" smooth="yes"/>
      <point x="1084" y="-386"/>
      <point x="1002" y="-471"/>
      <point x="901" y="-471" type="curve" smooth="yes"/>
      <point x="337" y="-471" type="line" smooth="yes"/>
      <point x="265" y="-471"/>
      <point x="207" y="-454"/>
      <point x="151" y="-401" type="curve" smooth="yes"/>
      <point x="89" y="-343"/>
      <point x="69" y="-254"/>
      <point x="69" y="-201" type="curve" smooth="yes"/>
      <point x="69" y="709" type="line" smooth="yes"/>
      <point x="69" y="763"/>
      <point x="90" y="849"/>
      <point x="151" y="907" type="curve" smooth="yes"/>
      <point x="208" y="960"/>
      <point x="265" y="978"/>
      <point x="337" y="978" type="curve" smooth="yes"/>
      <point x="712" y="978" type="line"/>
      <point x="712" y="864" type="line"/>
      <point x="364" y="864" type="line" smooth="yes"/>
      <point x="321" y="864"/>
      <point x="271" y="861"/>
      <point x="231" y="826" type="curve" smooth="yes"/>
      <point x="192" y="792"/>
      <point x="183" y="732"/>
      <point x="183" y="691" type="curve" smooth="yes"/>
      <point x="183" y="-185" type="line" smooth="yes"/>
      <point x="183" y="-222"/>
      <point x="192" y="-284"/>
      <point x="232" y="-321" type="curve" smooth="yes"/>
      <point x="267" y="-353"/>
      <point x="315" y="-356"/>
      <point x="364" y="-356" type="curve" smooth="yes"/>
      <point x="729" y="-356" type="line"/>
      <point x="720" y="-332"/>
      <point x="715" y="-307"/>
      <point x="715" y="-282" type="curve" smooth="yes"/>
      <point x="715" y="-180"/>
      <point x="798" y="-93"/>
      <point x="898" y="-93" type="curve" smooth="yes"/>
      <point x="1002" y="-93"/>
      <point x="1084" y="-180"/>
    </contour>
  </outline>
</glyph>
<glyph name="u103C_u103D.narr" format="2">
  <advance width="234"/>
  <anchor x="234" y="0" name="R"/>
  <anchor x="906" y="-53" name="BS"/>
  <anchor x="906" y="-53" name="L"/>
  <outline>
    <contour>
      <point x="793" y="723" type="curve"/>
      <point x="678" y="723" type="line"/>
      <point x="678" y="750"/>
      <point x="667" y="802"/>
      <point x="640" y="829" type="curve" smooth="yes"/>
      <point x="606" y="863"/>
      <point x="549" y="864"/>
      <point x="505" y="864" type="curve" smooth="yes"/>
      <point x="346" y="864" type="line" smooth="yes"/>
      <point x="324" y="864"/>
      <point x="271" y="860"/>
      <point x="231" y="826" type="curve" smooth="yes"/>
      <point x="192" y="792"/>
      <point x="183" y="732"/>
      <point x="183" y="691" type="curve" smooth="yes"/>
      <point x="183" y="-185" type="line" smooth="yes"/>
      <point x="183" y="-222"/>
      <point x="190" y="-287"/>
      <point x="232" y="-321" type="curve" smooth="yes"/>
      <point x="264" y="-348"/>
      <point x="283" y="-354"/>
      <point x="361" y="-354" type="curve" smooth="yes"/>
      <point x="391" y="-354" type="line"/>
      <point x="382" y="-331"/>
      <point x="376" y="-306"/>
      <point x="376" y="-282" type="curve" smooth="yes"/>
      <point x="376" y="-180"/>
      <point x="459" y="-93"/>
      <point x="559" y="-93" type="curve" smooth="yes"/>
      <point x="663" y="-93"/>
      <point x="745" y="-180"/>
      <point x="745" y="-282" type="curve" smooth="yes"/>
      <point x="745" y="-386"/>
      <point x="663" y="-471"/>
      <point x="562" y="-471" type="curve" smooth="yes"/>
      <point x="412" y="-471" type="line" smooth="yes"/>
      <point x="280" y="-471"/>
      <point x="222" y="-469"/>
      <point x="151" y="-401" type="curve" smooth="yes"/>
      <point x="89" y="-343"/>
      <point x="69" y="-254"/>
      <point x="69" y="-201" type="curve" smooth="yes"/>
      <point x="69" y="709" type="line" smooth="yes"/>
      <point x="69" y="763"/>
      <point x="90" y="849"/>
      <point x="151" y="907" type="curve" smooth="yes"/>
      <point x="208" y="960"/>
      <point x="265" y="978"/>
      <point x="337" y="978" type="curve" smooth="yes"/>
      <point x="522" y="978" type="line" smooth="yes"/>
      <point x="597" y="978"/>
      <point x="665" y="965"/>
      <point x="723" y="904" type="curve" smooth="yes"/>
      <point x="770" y="854"/>
      <point x="793" y="768"/>
    </contour>
    <contour>
      <point x="657" y="-277" type="curve" smooth="yes"/>
      <point x="657" y="-223"/>
      <point x="614" y="-180"/>
      <point x="560" y="-180" type="curve" smooth="yes"/>
      <point x="506" y="-180"/>
      <point x="463" y="-223"/>
      <point x="463" y="-277" type="curve" smooth="yes"/>
      <point x="463" y="-324"/>
      <point x="487" y="-357"/>
      <point x="526" y="-369" type="curve" smooth="yes"/>
      <point x="536" y="-372"/>
      <point x="548" y="-374"/>
      <point x="560" y="-374" type="curve" smooth="yes"/>
      <point x="617" y="-374"/>
      <point x="657" y="-334"/>
    </contour>
  </outline>
</glyph>
<glyph name="u103D_u103E.small.tri" format="2">
  <advance width="0"/>
  <anchor x="-189" y="-53" name="_BS"/>
  <anchor x="-189" y="-53" name="_BSM"/>
  <outline>
    <contour>
      <point x="-130" y="-302" type="curve" smooth="yes"/>
      <point x="-130" y="-291"/>
      <point x="-180" y="-203"/>
      <point x="-189" y="-203" type="curve" smooth="yes"/>
      <point x="-201" y="-203"/>
      <point x="-250" y="-291"/>
      <point x="-250" y="-302" type="curve" smooth="yes"/>
      <point x="-250" y="-314"/>
      <point x="-237" y="-324"/>
      <point x="-189" y="-324" type="curve" smooth="yes"/>
      <point x="-139" y="-324"/>
      <point x="-130" y="-315"/>
    </contour>
    <contour>
      <point x="-55" y="-315" type="curve" smooth="yes"/>
      <point x="-55" y="-366"/>
      <point x="-100" y="-393"/>
      <point x="-189" y="-393" type="curve" smooth="yes"/>
      <point x="-269" y="-393"/>
      <point x="-325" y="-369"/>
      <point x="-325" y="-317" type="curve" smooth="yes"/>
      <point x="-325" y="-316"/>
      <point x="-325" y="-314"/>
      <point x="-325" y="-313" type="curve" smooth="yes"/>
      <point x="-380" y="-361" type="line"/>
      <point x="-482" y="-244" type="line"/>
      <point x="-431" y="-200" type="line"/>
      <point x="-372" y="-267" type="line"/>
      <point x="-214" y="-130" type="line" smooth="yes"/>
      <point x="-205" y="-122"/>
      <point x="-194" y="-113"/>
      <point x="-189" y="-113" type="curve" smooth="yes"/>
      <point x="-171" y="-113"/>
      <point x="-55" y="-246"/>
    </contour>
  </outline>
</glyph>
<glyph name="u103D_u103E.tri" format="2">
  <advance width="0"/>
  <anchor x="-225" y="-53" name="_BS"/>
  <anchor x="-558" y="-53" name="LLM"/>
  <anchor x="-225" y="-53" name="_BSM"/>
  <anchor x="107" y="-53" name="LM"/>
  <anchor x="523" y="-53" name="BSM"/>
  <outline>
    <contour>
      <point x="-150" y="-356" type="curve" smooth="yes"/>
      <point x="-150" y="-341"/>
      <point x="-212" y="-231"/>
      <point x="-225" y="-231" type="curve" smooth="yes"/>
      <point x="-240" y="-231"/>
      <point x="-301" y="-341"/>
      <point x="-301" y="-356" type="curve" smooth="yes"/>
      <point x="-301" y="-371"/>
      <point x="-285" y="-384"/>
      <point x="-225" y="-384" type="curve" smooth="yes"/>
      <point x="-160" y="-384"/>
      <point x="-150" y="-371"/>
    </contour>
    <contour>
      <point x="-55" y="-372" type="curve" smooth="yes"/>
      <point x="-55" y="-436"/>
      <point x="-110" y="-471"/>
      <point x="-225" y="-471" type="curve" smooth="yes"/>
      <point x="-325" y="-471"/>
      <point x="-396" y="-441"/>
      <point x="-396" y="-375" type="curve" smooth="yes"/>
      <point x="-396" y="-374"/>
      <point x="-396" y="-370"/>
      <point x="-396" y="-369" type="curve" smooth="yes"/>
      <point x="-466" y="-431" type="line"/>
      <point x="-595" y="-282" type="line"/>
      <point x="-531" y="-227" type="line"/>
      <point x="-456" y="-312" type="line"/>
      <point x="-256" y="-139" type="line" smooth="yes"/>
      <point x="-243" y="-127"/>
      <point x="-231" y="-117"/>
      <point x="-225" y="-117" type="curve" smooth="yes"/>
      <point x="-201" y="-117"/>
      <point x="-55" y="-284"/>
    </contour>
  </outline>
</glyph>
<glyph name="u103E_u102F" format="2">
  <advance width="0"/>
  <anchor x="-288" y="-54" name="_BS"/>
  <anchor x="-585" y="-53" name="LLM"/>
  <anchor x="-288" y="-54" name="_BSM"/>
  <anchor x="16" y="-53" name="LM"/>
  <anchor x="466" y="-53" name="BSM"/>
  <outline>
    <contour>
      <point x="-315" y="-471" type="line"/>
      <point x="-506" y="-471" type="line"/>
      <point x="-506" y="-371" type="line"/>
      <point x="-416" y="-371" type="line"/>
      <point x="-416" y="-104" type="line"/>
      <point x="-315" y="-104" type="line"/>
    </contour>
    <contour>
      <point x="-56" y="-471" type="line"/>
      <point x="-246" y="-471" type="line"/>
      <point x="-246" y="-104" type="line"/>
      <point x="-146" y="-104" type="line"/>
      <point x="-146" y="-371" type="line"/>
      <point x="-56" y="-371" type="line"/>
    </contour>
  </outline>
</glyph>
<glyph name="u103E_u1030" format="2">
  <advance width="0"/>
  <anchor x="-366" y="-53" name="_BS"/>
  <anchor x="-747" y="-53" name="LLM"/>
  <anchor x="-366" y="-53" name="_BSM"/>
  <anchor x="17" y="-53" name="LM"/>
  <anchor x="609" y="-53" name="BSM"/>
  <outline>
    <contour>
      <point x="-484" y="-471" type="line"/>
      <point x="-675" y="-471" type="line"/>
      <point x="-675" y="-371" type="line"/>
      <point x="-585" y="-371" type="line"/>
      <point x="-585" y="-104" type="line"/>
      <point x="-484" y="-104" type="line"/>
    </contour>
    <contour>
      <point x="-315" y="-471" type="line"/>
      <point x="-415" y="-471" type="line"/>
      <point x="-415" y="-104" type="line"/>
      <point x="-315" y="-104" type="line"/>
    </contour>
    <contour>
      <point x="-55" y="-471" type="line"/>
      <point x="-246" y="-471" type="line"/>
      <point x="-246" y="-104" type="line"/>
      <point x="-145" y="-104" type="line"/>
      <point x="-145" y="-371" type="line"/>
      <point x="-55" y="-371" type="line"/>
    </contour>
  </outline>
</glyph>
<glyph name="u103E_u1030.slanth" format="2">
  <advance width="0"/>
  <anchor x="-357" y="-53" name="_BS"/>
  <anchor x="47" y="-53" name="LLM"/>
  <anchor x="-357" y="-53" name="_BSM"/>
  <anchor x="-786" y="-53" name="LM"/>
  <anchor x="612" y="-53" name="BSM"/>
  <outline>
    <contour>
      <point x="-459" y="-128" type="line"/>
      <point x="-559" y="-395" type="line" smooth="yes"/>
      <point x="-568" y="-420"/>
      <point x="-581" y="-445"/>
      <point x="-597" y="-459" type="curve" smooth="yes"/>
      <point x="-610" y="-470"/>
      <point x="-621" y="-471"/>
      <point x="-640" y="-471" type="curve" smooth="yes"/>
      <point x="-768" y="-471" type="line"/>
      <point x="-768" y="-371" type="line"/>
      <point x="-687" y="-371" type="line" smooth="yes"/>
      <point x="-672" y="-371"/>
      <point x="-667" y="-370"/>
      <point x="-660" y="-363" type="curve" smooth="yes"/>
      <point x="-652" y="-354"/>
      <point x="-648" y="-341"/>
      <point x="-642" y="-326" type="curve" smooth="yes"/>
      <point x="-553" y="-93" type="line"/>
    </contour>
    <contour>
      <point x="-315" y="-471" type="line"/>
      <point x="-415" y="-471" type="line"/>
      <point x="-415" y="-104" type="line"/>
      <point x="-315" y="-104" type="line"/>
    </contour>
    <contour>
      <point x="-55" y="-471" type="line"/>
      <point x="-246" y="-471" type="line"/>
      <point x="-246" y="-104" type="line"/>
      <point x="-145" y="-104" type="line"/>
      <point x="-145" y="-371" type="line"/>
      <point x="-55" y="-371" type="line"/>
    </contour>
  </outline>
</glyph>
<glyph name="u105C.med" format="2">
  <advance width="0"/>
  <anchor x="-228" y="-27" name="_BS"/>
  <anchor x="-547" y="-27" name="LLM"/>
  <anchor x="-228" y="-27" name="_BSM"/>
  <anchor x="90" y="-27" name="LM"/>
  <anchor x="556" y="-53" name="BSM"/>
  <outline>
    <contour>
      <point x="-218" y="-282" type="line"/>
      <point x="-219" y="-281" type="line"/>
      <point x="-220" y="-282" type="line"/>
      <point x="-219" y="-283" type="line"/>
    </contour>
    <contour>
      <point x="-170" y="-282" type="curve" smooth="yes"/>
      <point x="-170" y="-309"/>
      <point x="-191" y="-334"/>
      <point x="-219" y="-334" type="curve" smooth="yes"/>
      <point x="-247" y="-334"/>
      <point x="-269" y="-309"/>
      <point x="-269" y="-282" type="curve" smooth="yes"/>
      <point x="-269" y="-255"/>
      <point x="-247" y="-229"/>
      <point x="-219" y="-229" type="curve" smooth="yes"/>
      <point x="-191" y="-229"/>
      <point x="-170" y="-255"/>
    </contour>
    <contour>
      <point x="-124" y="-282" type="curve" smooth="yes"/>
      <point x="-124" y="-229"/>
      <point x="-166" y="-180"/>
      <point x="-219" y="-180" type="curve" smooth="yes"/>
      <point x="-275" y="-180"/>
      <point x="-318" y="-229"/>
      <point x="-318" y="-282" type="curve" smooth="yes"/>
      <point x="-318" y="-335"/>
      <point x="-274" y="-384"/>
      <point x="-222" y="-384" type="curve" smooth="yes"/>
      <point x="-166" y="-384"/>
      <point x="-124" y="-335"/>
    </contour>
    <contour>
      <point x="-37" y="-282" type="curve" smooth="yes"/>
      <point x="-37" y="-386"/>
      <point x="-118" y="-471"/>
      <point x="-219" y="-471" type="curve" smooth="yes"/>
      <point x="-322" y="-471"/>
      <point x="-405" y="-386"/>
      <point x="-405" y="-282" type="curve" smooth="yes"/>
      <point x="-405" y="-180"/>
      <point x="-322" y="-93"/>
      <point x="-222" y="-93" type="curve" smooth="yes"/>
      <point x="-118" y="-93"/>
      <point x="-37" y="-180"/>
    </contour>
  </outline>
</glyph>
<glyph name="u1063_u103A" format="2">
  <advance width="577"/>
  <anchor x="372" y="-53" name="BS"/>
  <anchor x="337" y="-53" name="L"/>
  <anchor x="306" y="-53" name="BD"/>
  <outline>
    <contour>
      <point x="523" y="222" type="curve" smooth="yes"/>
      <point x="523" y="87"/>
      <point x="414" y="-23"/>
      <point x="280" y="-23" type="curve" smooth="yes"/>
      <point x="246" y="-23"/>
      <point x="208" y="-15"/>
      <point x="169" y="3" type="curve"/>
      <point x="169" y="-471" type="line"/>
      <point x="55" y="-471" type="line"/>
      <point x="55" y="111" type="line"/>
      <point x="159" y="160" type="line"/>
      <point x="186" y="112"/>
      <point x="230" y="91"/>
      <point x="280" y="91" type="curve" smooth="yes"/>
      <point x="351" y="91"/>
      <point x="409" y="151"/>
      <point x="409" y="222" type="curve" smooth="yes"/>
      <point x="409" y="292"/>
      <point x="351" y="351"/>
      <point x="280" y="351" type="curve" smooth="yes"/>
      <point x="230" y="351"/>
      <point x="191" y="334"/>
      <point x="159" y="283" type="curve"/>
      <point x="57" y="336" type="line"/>
      <point x="96" y="409"/>
      <point x="163" y="447"/>
      <point x="226" y="460" type="curve"/>
      <point x="153" y="484"/>
      <point x="91" y="558"/>
      <point x="91" y="646" type="curve" smooth="yes"/>
      <point x="91" y="763"/>
      <point x="186" y="835"/>
      <point x="283" y="835" type="curve" smooth="yes"/>
      <point x="321" y="835"/>
      <point x="381" y="816"/>
      <point x="417" y="754" type="curve"/>
      <point x="355" y="703" type="line"/>
      <point x="342" y="725"/>
      <point x="313" y="748"/>
      <point x="283" y="748" type="curve" smooth="yes"/>
      <point x="240" y="748"/>
      <point x="177" y="717"/>
      <point x="177" y="646" type="curve" smooth="yes"/>
      <point x="177" y="574"/>
      <point x="249" y="537"/>
      <point x="280" y="537" type="curve"/>
      <point x="280" y="466" type="line"/>
      <point x="414" y="466"/>
      <point x="523" y="355"/>
    </contour>
  </outline>
</glyph>
<glyph name="u107A.aiph" format="2">
  <advance width="1017"/>
  <anchor x="0" y="0" name="_R"/>
  <anchor x="830" y="-53" name="BS"/>
  <anchor x="298" y="-53" name="LL"/>
  <anchor x="761" y="-53" name="L"/>
  <anchor x="298" y="495" name="U"/>
  <anchor x="750" y="-53" name="BD"/>
  <outline>
    <contour>
      <point x="963" y="222" type="curve" smooth="yes"/>
      <point x="963" y="89"/>
      <point x="851" y="-23"/>
      <point x="718" y="-23" type="curve" smooth="yes"/>
      <point x="669" y="-23"/>
      <point x="627" y="-9"/>
      <point x="594" y="15" type="curve"/>
      <point x="594" y="-357" type="line"/>
      <point x="661" y="-357" type="line"/>
      <point x="661" y="-471" type="line"/>
      <point x="480" y="-471" type="line"/>
      <point x="480" y="136" type="line" smooth="yes"/>
      <point x="480" y="295"/>
      <point x="372" y="352"/>
      <point x="308" y="352" type="curve" smooth="yes"/>
      <point x="221" y="352"/>
      <point x="179" y="291"/>
      <point x="179" y="222" type="curve" smooth="yes"/>
      <point x="179" y="169.769"/>
      <point x="211.471" y="123.49"/>
      <point x="256.109" y="102.673" type="curve"/>
      <point x="270.925" y="131.842"/>
      <point x="301.928" y="152"/>
      <point x="335" y="152" type="curve" smooth="yes"/>
      <point x="383" y="152"/>
      <point x="424" y="113"/>
      <point x="424" y="65" type="curve" smooth="yes"/>
      <point x="424" y="37.8594"/>
      <point x="410.892" y="12.9568"/>
      <point x="390.822" y="-3.56154" type="curve"/>
      <point x="392" y="-7" type="line"/>
      <point x="387.73" y="-8.70786"/>
      <point x="383.501" y="-10.2537"/>
      <point x="379.313" y="-11.649" type="curve" smooth="yes"/>
      <point x="366.149" y="-19.4662"/>
      <point x="350.962" y="-24"/>
      <point x="335" y="-24" type="curve" smooth="yes"/>
      <point x="330.156" y="-24"/>
      <point x="325.356" y="-23.5454"/>
      <point x="320.646" y="-22.6758" type="curve" smooth="yes"/>
      <point x="316.379" y="-22.8974"/>
      <point x="312.164" y="-23"/>
      <point x="308" y="-23" type="curve" smooth="yes"/>
      <point x="176" y="-23"/>
      <point x="65" y="87"/>
      <point x="65" y="222" type="curve" smooth="yes"/>
      <point x="65" y="339"/>
      <point x="160" y="466"/>
      <point x="308" y="466" type="curve" smooth="yes"/>
      <point x="440" y="466"/>
      <point x="562" y="381"/>
      <point x="591" y="201" type="curve"/>
      <point x="610" y="147"/>
      <point x="659" y="91"/>
      <point x="718" y="91" type="curve" smooth="yes"/>
      <point x="790" y="91"/>
      <point x="849" y="151"/>
      <point x="849" y="222" type="curve" smooth="yes"/>
      <point x="849" y="291"/>
      <point x="790" y="352"/>
      <point x="718" y="352" type="curve" smooth="yes"/>
      <point x="708" y="352"/>
      <point x="700" y="351"/>
      <point x="693" y="349" type="curve"/>
      <point x="648" y="453" type="line"/>
      <point x="667" y="463"/>
      <point x="692" y="466"/>
      <point x="718" y="466" type="curve" smooth="yes"/>
      <point x="851" y="466"/>
      <point x="963" y="358"/>
    </contour>
  </outline>
</glyph>
<glyph name="u1082_u108D" format="2">
  <advance width="55"/>
  <anchor x="-281" y="-53" name="_BS"/>
  <anchor x="-719" y="-53" name="LLM"/>
  <anchor x="-281" y="-53" name="_BSM"/>
  <anchor x="76" y="-53" name="LM"/>
  <anchor x="76" y="-53" name="BSM"/>
  <outline>
    <contour>
      <point x="-411" y="-322" type="line"/>
      <point x="-711" y="-322" type="line"/>
      <point x="-711" y="-240" type="line"/>
      <point x="-411" y="-240" type="line"/>
    </contour>
    <contour>
      <point x="1" y="-395" type="line"/>
      <point x="-30" y="-454"/>
      <point x="-88" y="-471"/>
      <point x="-136" y="-471" type="curve" smooth="yes"/>
      <point x="-232" y="-471"/>
      <point x="-328" y="-400"/>
      <point x="-328" y="-284" type="curve" smooth="yes"/>
      <point x="-328" y="-175"/>
      <point x="-247" y="-89"/>
      <point x="-139" y="-89" type="curve"/>
      <point x="-139" y="-176" type="line"/>
      <point x="-170" y="-176"/>
      <point x="-241" y="-196"/>
      <point x="-241" y="-284" type="curve" smooth="yes"/>
      <point x="-241" y="-353"/>
      <point x="-179" y="-384"/>
      <point x="-136" y="-384" type="curve" smooth="yes"/>
      <point x="-102" y="-384"/>
      <point x="-83" y="-367"/>
      <point x="-64" y="-341" type="curve"/>
    </contour>
  </outline>
</glyph>
<glyph name="u1086.kham" format="2">
  <advance width="60"/>
  <anchor x="-144" y="495" name="_U"/>
  <anchor x="-158" y="495" name="UM"/>
  <outline>
    <contour>
      <point x="55" y="631" type="curve"/>
      <point x="30" y="547" type="line"/>
      <point x="-126" y="582"/>
      <point x="-344" y="645"/>
      <point x="-344" y="802" type="curve" smooth="yes"/>
      <point x="-344" y="855"/>
      <point x="-294" y="889"/>
      <point x="-255" y="889" type="curve" smooth="yes"/>
      <point x="-210" y="889"/>
      <point x="-167" y="855"/>
      <point x="-167" y="802" type="curve" smooth="yes"/>
      <point x="-167" y="767"/>
      <point x="-186" y="744"/>
      <point x="-203" y="732" type="curve"/>
      <point x="-155" y="685"/>
      <point x="-22" y="646"/>
    </contour>
  </outline>
</glyph>
